<svg id="svg1" width="150mm" height="150mm" version="1.1" viewBox="0 0 150 150" xml:space="preserve" xmlns="http://www.w3.org/2000/svg"><g id="layer1" transform="translate(-30 -73.5)"><g id="layer1-8" transform="translate(-174 -37.3)"><circle id="path2" cx="279" cy="186" r="75" fill="#001439" stroke-width=".155"/><path id="path1" d="m277 224c-3.77-0.821-6.97-3.63-8.45-7.43l-0.532-1.36-0.0603-14.7c-0.0331-8.09-0.129-14.7-0.213-14.7-0.0839 0-1.19 1.04-2.45 2.32-3.45 3.48-5.71 4.62-9.13 4.62-8.04 0-12.9-8.16-9.13-15.4 0.558-1.08 2.78-3.4 14.5-15.1 10.6-10.6 14.1-13.9 14.8-14.3 1.97-0.923 4.25-0.922 6.21 2e-3 1.47 0.694 28 27.2 29.1 29.1 1.05 1.77 1.5 3.39 1.5 5.44 0 4.74-2.86 8.52-7.55 9.96-1.26 0.389-4.45 0.381-5.73-0.0133-2.08-0.641-3.55-1.63-6.13-4.14-1.39-1.35-2.59-2.46-2.67-2.46-0.0743 0-0.135 6.43-0.135 14.3 0 15.7 0.0199 15.4-1.28 18-0.895 1.77-3.21 4.07-5 4.93-2.44 1.19-5.11 1.53-7.66 0.979z" fill="#02d1f7" stroke-width=".791"/></g></g></svg>
