<svg width="150mm" height="150mm" version="1.1" viewBox="0 0 150 150" xml:space="preserve" xmlns="http://www.w3.org/2000/svg"><path d="m28 40.5c-17.8-4.65-32.5-23.4-26.8-34.1 5.88-11 20.6-7.47 31.9 7.71 2.36 3.18 2.46 2.95-1.39 3.24l-2.23 0.168-1.38-1.79c-9.46-12.3-22.6-14.5-23.3-4.02-0.83 11.6 28.6 32.3 31.2 22 0.357-1.41 1.73-2.01 3.89-1.7l1.1 0.154-0.122 1.68c-0.437 6.01-5.5 8.65-12.9 6.72z" stroke-width=".95"/><path d="m90.1 150c-1.94-0.707-73.6-72.1-74.8-74.5-0.947-1.93-0.87-3.84 0.863-21.4 1.86-18.8 1.24-16.7 4.47-15 2.84 1.49 7.14 3.03 9.17 3.29 1.23 0.16 1.29 0.21 1.98 1.52 4.11 7.84 16 4.85 16.1-4.05 0.0752-7.96-9.54-11.6-14.9-5.72l-1.3 1.43-2.17-0.559c-2.34-0.602-6.72-2.63-9.31-4.32l-1.6-1.04 0.173-1.75c0.439-4.45 2.33-7.13 5.77-8.15 1.66-0.494 45.5-4.72 47.7-4.6 3.13 0.175 0.983-1.82 40.2 37.4 39.7 39.7 37.3 37.1 37.4 40.5 0.191 3.98 2.52 1.31-26.5 30.3-18.8 18.8-26 25.9-26.8 26.3-1.46 0.718-4.87 0.867-6.47 0.282zm0.73-60.7c10.9-16.8 19.8-30.6 19.8-30.7 0-0.517-5.09-3.32-5.41-2.98-0.656 0.713-39.7 61.1-39.5 61.2 0.4 0.4 4.87 3.06 5.06 3.02 0.127-0.0312 9.15-13.8 20.1-30.5zm13.7 28.8c11.9-2.98 12.5-23.3 0.804-27.3-9.08-3.12-17.5 3.41-17.5 13.6 0 9.77 7.63 16.1 16.7 13.8zm-5.54-5.71c-4.88-2.21-5.05-13.5-0.246-16.1 3.82-2.03 7.29 1.12 7.61 6.91 0.383 7.01-2.95 11.2-7.36 9.16zm-19.4-28.3c12.5-2.65 13.4-23.4 1.19-27.5-9.25-3.12-18 4.29-17.3 14.6 0.652 9.18 7.56 14.7 16.1 12.9zm-5.14-5.92c-2.89-1.53-4.37-7.07-3.13-11.7 1.59-5.96 8.44-6.37 10.2-0.617 2.32 7.52-2 15.1-7.09 12.4z" fill="#ff2323" stroke-width=".95"/></svg>
