<svg width="144mm" height="150mm" version="1.1" viewBox="0 0 144 150" xml:space="preserve" xmlns="http://www.w3.org/2000/svg"><g transform="rotate(180 72 75)"><g transform="translate(-90.4 -58.7)"><path d="m178 209c-4.57-0.112-18.3-0.834-23.2-1.22-3.35-0.263-8.86-1.09-20.9-3.14-9.02-1.53-16.7-2.85-17.1-2.93l-0.695-0.145 0.128-61.4 2.65-0.138c1.67-0.0872 3.01-0.297 3.63-0.568 2.58-1.14 6.11-4.38 9.11-8.37 3.49-4.65 6.56-10.3 13.2-24.1 1.86-3.87 3.03-5.16 8.23-9.04 4.16-3.1 5.37-4.18 6.87-6.13 4.08-5.31 6.35-13 7.66-25.9 0.605-5.96 0.675-6.13 2.79-6.63 2.36-0.567 6.78 0.326 10.1 2.03 4.72 2.46 7.37 5.8 9.01 11.4 0.661 2.24 0.699 2.64 0.7 7.41 9.1e-4 4.36-0.0744 5.35-0.551 7.24-0.838 3.33-1.98 5.96-4.79 11.1-3.06 5.55-5.08 9.75-6.02 12.5-0.809 2.37-1.09 5.61-0.605 7.06l0.315 0.955 10.6-0.16c15.3-0.231 27.8 0.246 32.1 1.23 2.04 0.462 3.19 1.06 5.11 2.66 4.01 3.34 8 10.3 7.43 12.9-0.174 0.811-1.13 2.23-3.78 5.61-2.28 2.91-2.19 3.51 1.28 8.98 1.18 1.86 2.26 3.81 2.4 4.34 0.438 1.63 0.0638 2.29-3.41 6.05-1.25 1.36-2.54 2.89-2.86 3.41-0.883 1.42-0.645 2.84 1.22 7.3 2.03 4.84 2.1 5.83 0.595 8.04-0.565 0.828-2.27 2.63-3.78 4.01-4.57 4.15-4.64 4.31-4.65 9.48-9.5e-4 3.05-0.0609 3.52-0.569 4.47-1.91 3.57-8.57 8.81-12.9 10.1-4.65 1.43-14.7 1.98-29.3 1.63zm-84.3-5.61c-1.25-0.311-2.27-1.18-2.91-2.48l-0.589-1.2v-28.3c0-27.1 0.0193-28.3 0.471-29.1 0.259-0.486 0.713-1.15 1.01-1.47 1.15-1.27 1.39-1.3 9.32-1.3 7.3 0 7.43 0.01 8.27 0.574 1.04 0.698 1.91 1.95 2.26 3.23 0.168 0.624 0.233 10.5 0.189 28.7l-0.0674 27.7-0.598 1.22c-0.376 0.763-0.979 1.47-1.62 1.89l-1.02 0.677-6.96 0.0461c-3.83 0.0254-7.31-0.0428-7.75-0.151z" fill="#a00" stroke-width=".954"/></g></g></svg>
