<svg id="svg1" width="11.3mm" height="11.2mm" version="1.1" viewBox="0 0 11.3 11.2" xml:space="preserve" xmlns="http://www.w3.org/2000/svg"><g id="layer1" transform="translate(-99.4 -105)"><ellipse id="path4" cx="105" cy="110" rx="5.19" ry="5.29" fill="#fef1dd"/><g id="g4"><path id="path3" d="m103 116c-1.61-0.601-2.55-1.45-3.3-2.97-0.596-1.22-0.687-1.68-0.555-2.8 0.361-3.05 2.63-5.12 5.6-5.12 3.02 0 5.29 2.12 5.6 5.21 0.374 3.75-3.82 7-7.35 5.68zm4.26-0.941c1.84-0.941 2.95-3.51 2.4-5.56-0.443-1.68-1.24-2.65-2.78-3.36-1.7-0.79-2.59-0.79-4.29 0-2.25 1.05-3.4 3.37-2.79 5.63 0.548 2.05 1.55 3.02 4.01 3.89 0.637 0.227 2.44-0.0885 3.44-0.603z" fill="#fce5bd"/><path id="path2" d="m104 110c-2e-3 -0.628-0.0754-1.41-0.163-1.74-0.147-0.548-0.0712-0.595 0.942-0.595h1.1l-0.0788 1.65c-0.0788 1.65-0.0788 1.65-0.939 1.74-0.85 0.0819-0.86 0.0692-0.864-1.06z" fill="#92400e"/><path id="path1" d="m104 113c-0.295-0.768 0.106-1.24 0.984-1.15 0.683 0.0665 0.826 0.195 0.826 0.742s-0.143 0.675-0.826 0.742c-0.558 0.0543-0.877-0.0532-0.984-0.331z" fill="#92400e"/></g></g></svg>
