<svg width="58.9mm" height="39.7mm" version="1.1" viewBox="0 0 58.9 39.7" xml:space="preserve" xmlns="http://www.w3.org/2000/svg" xmlns:xlink="http://www.w3.org/1999/xlink"><g transform="translate(-76 -84)" fill="#050" stroke-width="1.07"><path d="m78.5 118c-0.831-0.651-1.11-1.58-1.11-3.7 0-1.7 0.113-2.25 0.587-2.85 0.464-0.59 0.498-0.747 0.163-0.747-0.233 0-0.816-0.33-1.3-0.734l-0.872-0.734 0.0011-11c1e-3 -10.4 0.028-11 0.564-11.9 0.31-0.508 0.979-1.18 1.49-1.49 0.892-0.544 1.46-0.563 16.8-0.563 15.3 0 15.9 0.019 16.8 0.563 1.63 0.996 2.05 2.04 2.05 5.17 5.3e-4 1.52 0.0967 2.76 0.214 2.76 0.117-0.0011 0.425-0.376 0.685-0.833 0.639-1.12 1.35-1.22 8.07-1.1 6.53 0.121 7.54 0.402 9.81 2.73 2.39 2.45 2.47 2.88 2.47 13.9v9.6l-0.747 0.587c-0.411 0.323-1.05 0.587-1.42 0.587-0.546 0-0.67-0.148-0.67-0.799 0-1.3-1.43-3.78-2.77-4.78-1.42-1.07-2.78-1.5-4.74-1.49-3.19 0.0107-6.18 2.65-6.81 6.03l-0.197 1.05h-22.6l-0.171-0.638c-0.792-2.96-1.63-4.22-3.66-5.55-1.03-0.673-1.44-0.76-3.58-0.76-2.12 0-2.54 0.0878-3.54 0.745-2.01 1.32-3.16 2.92-3.49 4.81-0.177 1.05-0.32 1.25-0.912 1.31-0.386 0.0379-0.904-0.0895-1.15-0.283zm21-11.1c2.14-1.17 3.63-2.74 4.66-4.93 0.774-1.63 0.884-2.16 0.884-4.27 0-2.74-0.456-4.15-2.04-6.31-1.25-1.7-2.88-2.83-5.21-3.62-4.54-1.54-10 0.823-12.3 5.27-1.15 2.28-1.34 5.75-0.439 8.14 0.801 2.12 2.44 4.17 4.22 5.26 2.03 1.25 2.94 1.46 5.99 1.38 2.37-0.0628 2.87-0.17 4.23-0.911zm-9.58-5.73c-2.34-2.54-2.69-3.32-1.86-4.16 0.723-0.723 1.45-0.519 2.59 0.73 1.6 1.75 2.14 2.22 2.52 2.22 0.376 0 2.57-2.23 4.97-5.04 0.835-0.979 1.81-1.85 2.17-1.95 0.753-0.193 1.76 0.569 1.76 1.33 0 0.272-1.79 2.48-3.98 4.91-5.02 5.59-4.85 5.54-8.17 1.94zm42.2 2.14c0-5.23-0.271-6.19-2.26-7.99-1.5-1.36-2.6-1.59-7.44-1.59-5.75-0.0021-5.31-0.626-5.31 7.65v6.52h15z"/><path d="m123 123c-3.07-1.35-4.21-5.66-2.24-8.45 2.96-4.18 9.76-2.46 10.2 2.59 0.0727 0.757-0.0236 1.85-0.214 2.43-0.445 1.35-1.86 2.96-3.04 3.45-1.16 0.483-3.65 0.476-4.76-0.014zm4.13-2.35c0.903-0.533 1.68-1.91 1.68-2.99 0-1.12-1.17-2.58-2.39-2.98-2.05-0.675-4.04 0.578-4.32 2.72-0.369 2.75 2.62 4.68 5.04 3.25z"/><path d="m85 123c-2.66-1.4-3.77-4.57-2.54-7.22 1.65-3.54 5.62-4.55 8.74-2.22 2.22 1.66 2.74 5.32 1.09 7.7-1.5 2.17-4.93 2.99-7.29 1.74zm4.56-2.26c1.51-1.08 1.85-3.57 0.66-4.9-0.723-0.812-2.28-1.4-3.17-1.21-0.936 0.206-2.24 1.37-2.6 2.34-0.739 1.94 1.01 4.33 3.18 4.33 0.691 0 1.46-0.223 1.94-0.559z"/></g></svg>
