<?xml version="1.0" encoding="UTF-8" standalone="no"?>
<!-- Created with Inkscape (http://www.inkscape.org/) -->

<svg
   width="6.3500042mm"
   height="6.3499975mm"
   viewBox="0 0 6.3500041 6.3499974"
   version="1.1"
   id="svg1"
   xml:space="preserve"
   xmlns:inkscape="http://www.inkscape.org/namespaces/inkscape"
   xmlns:sodipodi="http://sodipodi.sourceforge.net/DTD/sodipodi-0.dtd"
   xmlns="http://www.w3.org/2000/svg"
   xmlns:svg="http://www.w3.org/2000/svg"><sodipodi:namedview
     id="namedview1"
     pagecolor="#505050"
     bordercolor="#ffffff"
     borderopacity="1"
     inkscape:showpageshadow="0"
     inkscape:pageopacity="0"
     inkscape:pagecheckerboard="1"
     inkscape:deskcolor="#505050"
     inkscape:document-units="mm"><inkscape:page
       x="0"
       y="0"
       width="6.3500042"
       height="6.3499975"
       id="page2"
       margin="0"
       bleed="0" /></sodipodi:namedview><defs
     id="defs1" /><g
     inkscape:label="Camada 1"
     inkscape:groupmode="layer"
     id="layer1"
     transform="translate(-249.00794,87.096712)"><g
       id="g2"><path
         style="fill:#001537;fill-opacity:1;stroke-width:0.0281956"
         d="m 253.8921,-81.020771 c -0.41591,-0.0633 -0.7503,-0.353286 -0.83931,-0.727886 -0.007,-0.03108 -0.0156,-0.105803 -0.0183,-0.166035 l -0.005,-0.109512 -0.18117,-0.09373 c -0.0996,-0.05155 -0.22016,-0.11382 -0.26782,-0.138381 -0.0477,-0.02456 -0.44465,-0.230103 -0.88222,-0.45676 -0.43756,-0.226657 -0.80443,-0.416623 -0.81527,-0.422145 -0.0184,-0.0094 -0.0238,-0.0079 -0.0827,0.02249 -0.24272,0.125289 -0.55101,0.152068 -0.82034,0.07125 -0.34751,-0.104265 -0.59671,-0.346174 -0.68593,-0.665875 -0.0192,-0.06866 -0.0213,-0.08894 -0.0215,-0.206828 -3.4e-4,-0.1415 0.006,-0.18861 0.0435,-0.290681 0.10169,-0.281621 0.34504,-0.50048 0.66236,-0.595691 0.18269,-0.05482 0.3892,-0.06123 0.57785,-0.01796 0.0521,0.01193 0.0891,0.02426 0.2187,0.07276 0.0205,0.0077 0.0912,-0.0229 1.14767,-0.496644 l 1.12577,-0.504842 -0.006,-0.03199 c -0.0112,-0.06508 -0.006,-0.248162 0.009,-0.31107 0.0443,-0.186761 0.13497,-0.33561 0.28865,-0.473578 0.19981,-0.179375 0.44136,-0.26817 0.72971,-0.26825 0.27976,-7.7e-5 0.52085,0.08978 0.71996,0.268331 0.15352,0.137672 0.244,0.286035 0.28877,0.473497 0.018,0.07533 0.02,0.274738 0.004,0.349734 -0.11183,0.508233 -0.65185,0.838583 -1.21265,0.741822 -0.18532,-0.03197 -0.38028,-0.122425 -0.51015,-0.236674 -0.0221,-0.01942 -0.0442,-0.0353 -0.0492,-0.0353 -0.005,0 -0.47688,0.209791 -1.04861,0.466203 l -1.0395,0.466204 0.028,0.05839 c 0.0983,0.205476 0.10743,0.438294 0.0258,0.658339 -0.0128,0.03464 -0.0205,0.06532 -0.0172,0.06817 0.006,0.0048 0.22333,0.117765 1.00262,0.520571 0.1538,0.07949 0.37002,0.191482 0.4805,0.248858 0.11048,0.05737 0.27168,0.140931 0.35825,0.185679 l 0.1574,0.08136 0.0717,-0.06452 c 0.15402,-0.138683 0.33754,-0.227623 0.54116,-0.262268 0.41543,-0.07068 0.83502,0.091 1.06328,0.409716 0.0519,0.07244 0.0829,0.130983 0.11197,0.21128 0.0399,0.110308 0.0476,0.157245 0.0475,0.290356 -1.5e-4,0.167534 -0.0266,0.272609 -0.10309,0.408989 -0.14864,0.265109 -0.42757,0.452191 -0.74918,0.502497 -0.0815,0.01275 -0.26536,0.01281 -0.34888,1.06e-4 z"
         id="path1"
         inkscape:label="Escuro" /></g></g></svg>
