<?xml version="1.0" encoding="UTF-8" standalone="no"?>
<!-- Created with Inkscape (http://www.inkscape.org/) -->

<svg
   width="512"
   height="69.999985"
   viewBox="0 0 135.46666 18.520829"
   version="1.1"
   id="svg1"
   xml:space="preserve"
   inkscape:version="1.4.4 (dcaf3e7, 2026-05-05)"
   sodipodi:docname="Logo-full-dark.svg"
   xmlns:inkscape="http://www.inkscape.org/namespaces/inkscape"
   xmlns:sodipodi="http://sodipodi.sourceforge.net/DTD/sodipodi-0.dtd"
   xmlns="http://www.w3.org/2000/svg"
   xmlns:svg="http://www.w3.org/2000/svg"><sodipodi:namedview
     id="namedview1"
     pagecolor="#505050"
     bordercolor="#ffffff"
     borderopacity="1"
     inkscape:showpageshadow="0"
     inkscape:pageopacity="0"
     inkscape:pagecheckerboard="1"
     inkscape:deskcolor="#505050"
     inkscape:document-units="mm"
     inkscape:zoom="0.50000001"
     inkscape:cx="808.99998"
     inkscape:cy="-292.99999"
     inkscape:window-width="1920"
     inkscape:window-height="1009"
     inkscape:window-x="-8"
     inkscape:window-y="-8"
     inkscape:window-maximized="1"
     inkscape:current-layer="layer1"
     showgrid="false" /><defs
     id="defs1"><rect
       x="-4776"
       y="-248"
       width="4408"
       height="1768"
       id="rect6" /><rect
       x="-2296"
       y="-1248"
       width="5816"
       height="2752"
       id="rect13" /></defs><g
     id="text13"
     style="font-size:800px;font-family:'Google Sans';-inkscape-font-specification:'Google Sans';white-space:pre;fill:#001537;stroke-width:7.55906"
     transform="matrix(0.02631033,0,0,0.02375791,97.558723,23.949902)"
     aria-label="DescontoVivo&#10;"><path
       style="font-weight:bold;font-size:666.667px;-inkscape-font-specification:'Google Sans Bold'"
       d="m -2242,-530.7476 v -477.3336 h 161.3334 q 76.0001,0 130.6668,30.66671 55.3333,30.00002 84.6667,84.00004 30,53.33336 30,124.00006 0,70.6667 -30,124.66673 -29.3334,54.00003 -84.6667,84.00004 -54.6667,30.00002 -130.6668,30.00002 z m 90.0001,-85.33338 h 67.3333 q 52.6667,0 88.0001,-18.66667 35.3333,-19.33335 52.6667,-54.00003 18,-34.66668 18,-80.66671 0,-46.66669 -18,-80.6667 -17.3334,-34.66669 -52.6667,-53.33336 -35.3334,-19.33335 -88.0001,-19.33335 h -67.3333 z"
       id="path9"
       inkscape:label="D" /><path
       style="font-size:533.333px"
       d="m -1644.2665,-522.21428 q -41.0666,0 -73.5999,-18.66665 -32,-18.66666 -50.6667,-51.19997 -18.1333,-32.53331 -18.1333,-74.13329 0,-38.93331 18.1333,-71.99995 18.1334,-33.06665 49.6,-52.79997 31.4667,-20.26666 72,-20.26666 43.7333,0 73.5999,18.66666 29.8667,18.66665 45.3333,50.1333 15.4667,30.93332 15.4667,68.79996 0,8.53333 -0.5334,14.93332 -0.5333,5.86667 -1.0666,8.53333 h -233.5999 v -49.59997 h 167.9999 q -0.5333,-9.06666 -5.3333,-18.66665 -4.8,-9.6 -13.3333,-17.59999 -8.5334,-8 -20.8,-12.79999 -11.7333,-5.33333 -27.2,-5.33333 -20.2667,0 -37.3333,10.66666 -16.5333,10.66666 -26.1333,29.86664 -9.6,18.66666 -9.6,44.79998 0,27.19998 10.1333,46.39997 10.1333,18.66665 27.2,28.79998 17.6,9.6 38.9333,9.6 25.0666,0 42.1333,-10.66666 17.0667,-11.2 26.6667,-27.73332 l 56.5333,27.73332 q -19.2,33.59997 -50.1333,53.3333 -30.9334,19.19998 -76.2667,19.19998 z m 287.4663,0 q -35.2,0 -60.2666,-10.13332 -24.5333,-10.13333 -40,-26.66665 -15.4666,-16.53333 -22.9333,-36.26665 l 62.4,-27.19998 q 9.0666,19.19999 24.5333,29.33331 15.4666,9.6 36.2666,9.6 17.0667,0 30.9333,-5.33333 13.8667,-5.86666 13.8667,-20.79999 0,-10.66666 -7.4667,-16.53332 -6.9333,-6.4 -17.6,-9.6 -10.6666,-3.73333 -21.8666,-5.86666 l -32,-6.93333 q -19.7333,-4.26666 -37.3333,-14.93332 -17.6,-11.2 -28.8,-27.73332 -10.6666,-17.06666 -10.6666,-38.93331 0,-24.53332 13.8666,-42.66664 14.4,-18.13332 38.4,-28.26665 24.5333,-10.13333 53.8666,-10.13333 27.2,0 49.0667,6.4 21.8666,6.4 37.8666,19.73332 16,12.79999 25.6,33.06665 l -59.7333,26.13332 q -8.5333,-15.99999 -22.4,-22.39999 -13.3333,-6.4 -28.8,-6.4 -18.1333,0 -28.8,6.93333 -10.6666,6.93333 -10.6666,16.53333 0,10.13332 10.6666,17.59998 10.6667,7.46667 25.6,11.2 l 40,9.59999 q 40.5333,9.6 60.8,30.93332 20.8,21.33332 20.8,51.19996 0,26.66666 -15.4667,46.93331 -15.4667,19.73332 -41.6,30.93331 -26.1333,10.66666 -58.1333,10.66666 z m 292.8,0 q -41.6,0 -74.1333,-18.13332 -32,-18.66665 -50.6666,-51.19997 -18.1333,-33.06664 -18.1333,-75.19995 0,-42.13331 18.1333,-74.66662 18.6666,-32.53332 50.6666,-51.19997 32.5333,-18.66666 74.1333,-18.66666 45.3333,0 77.86662,19.19999 32.53332,19.19999 46.93331,55.46664 l -63.99993,26.66665 q -8.5334,-18.66666 -24,-27.19999 -15.4667,-9.06666 -36.8,-9.06666 -20.8,0 -37.3333,10.13333 -16.5333,9.59999 -26.1333,27.19998 -9.6,17.59999 -9.6,42.13331 0,24.53332 9.6,42.66664 9.6,17.59999 26.1333,27.73332 16.5333,9.59999 37.3333,9.59999 23.4667,0 38.9333,-10.13333 15.4667,-10.66666 25.0667,-28.79998 l 62.39993,27.73332 q -15.99999,34.13331 -48.53331,54.9333 -32.53332,20.79998 -77.86662,20.79998 z m 299.19938,0 q -42.66664,0 -75.73329,-18.66665 -32.53331,-19.19999 -51.19997,-51.7333 -18.13332,-33.06665 -18.13332,-74.13329 0,-41.06664 18.13332,-73.59996 18.66666,-33.06664 51.19997,-51.7333 33.06665,-19.19999 75.73329,-19.19999 42.66664,0 75.19995,19.19999 32.53331,19.19999 50.66664,51.7333 18.66665,32.53332 18.66665,73.59996 0,41.06664 -18.66665,74.13329 -18.13333,32.53331 -50.66664,51.7333 -32.53331,18.66665 -75.19995,18.66665 z m 0,-65.06662 q 20.26665,0 36.79997,-9.06666 17.06666,-9.6 27.19999,-27.19999 10.66666,-18.13332 10.66666,-43.19997 0,-25.06665 -10.66666,-42.66664 -10.13333,-17.59999 -27.19999,-27.19998 -16.53332,-9.6 -36.26664,-9.6 -20.26666,0 -37.86664,9.6 -17.06666,9.59999 -27.73332,27.19998 -10.13333,17.59999 -10.13333,42.66664 0,25.06665 10.13333,43.19997 10.66666,17.59999 27.73332,27.19999 17.59998,9.06666 37.33331,9.06666 z m 196.80034,56.5333 v -271.99984 h 65.59996 v 34.13331 h 4.26666 q 12.26666,-19.73332 34.66665,-30.93331 22.39998,-11.73333 48.5333,-11.73333 50.1333,0 75.19995,30.39999 25.06665,30.39998 25.06665,81.06661 v 169.06657 h -69.86662 v -160.53324 q 0,-26.66665 -13.86666,-40.53331 -13.33332,-14.39999 -36.79998,-14.39999 -19.19998,0 -33.59997,10.66666 -13.86666,10.13333 -21.86666,27.73332 -7.46666,17.06665 -7.46666,38.39997 v 138.66659 z m 290.13361,-212.26654 v -59.7333 h 50.1333 v 59.7333 z m 137.59992,216.5332 q -42.13331,0 -66.1333,-23.99999 -23.99998,-24.53331 -23.99998,-67.19995 v -261.86651 h 69.86662 v 249.06651 q 0,19.73332 8,29.33332 7.99999,9.06666 26.13331,9.06666 8.53333,0 15.99999,-2.13333 7.46667,-2.66667 18.66666,-9.6 v 68.26663 q -11.73333,4.26666 -23.99999,6.4 -11.73332,2.66666 -24.53331,2.66666 z m -22.93332,-216.5332 v -59.7333 h 69.333288 v 59.7333 z m 243.733796,220.79986 q -42.66664,0 -75.7332867,-18.66665 -32.5333133,-19.19999 -51.1999683,-51.7333 -18.133323,-33.06665 -18.133323,-74.13329 0,-41.06664 18.133323,-73.59996 18.666655,-33.06664 51.1999683,-51.7333 33.0666467,-19.19999 75.7332867,-19.19999 42.666644,0 75.199954,19.19999 32.53331,19.19999 50.66664,51.7333 18.66665,32.53332 18.66665,73.59996 0,41.06664 -18.66665,74.13329 -18.13333,32.53331 -50.66664,51.7333 -32.53331,18.66665 -75.199954,18.66665 z m 0,-65.06662 q 20.266654,0 36.799974,-9.06666 17.06666,-9.6 27.19999,-27.19999 10.66666,-18.13332 10.66666,-43.19997 0,-25.06665 -10.66666,-42.66664 -10.13333,-17.59999 -27.19999,-27.19998 -16.53332,-9.6 -36.266641,-9.6 -20.266654,0 -37.866643,9.6 -17.066656,9.59999 -27.733317,27.19998 -10.1333267,17.59999 -10.1333267,42.66664 0,25.06665 10.1333267,43.19997 10.666661,17.59999 27.733317,27.19999 17.599989,9.06666 37.33331,9.06666 z"
       id="path10"
       inkscape:label="esconto" /><path
       style="font-weight:bold;font-size:666.667px;-inkscape-font-specification:'Google Sans Bold'"
       d="m 422.40064,-530.7476 50.00003,-128.66673 18.66667,-60.6667 102.66672,-288.00017 h 97.33338 l -174.00009,477.3336 z"
       id="path12"
       sodipodi:nodetypes="ccccccc"
       inkscape:label="V" /><path
       style="font-size:800px;font-family:'Google Sans';-inkscape-font-specification:'Google Sans';white-space:pre;fill:#00cde6;fill-opacity:1;stroke-width:7.46145"
       d="m 1269.0624,449.31067 c -0.2364,-0.20192 -12.7628,-33.65872 -17.445,-46.59414 -0.9774,-2.70003 -2.0873,-6.24148 -2.4666,-7.8699 -0.3792,-1.62842 -0.9285,-3.98233 -1.2205,-5.23093 -0.6702,-2.8649 -3.339,-10.9226 -4.9733,-15.01539 -3.8815,-9.72011 -9.5188,-18.8644 -15.6248,-25.34513 -1.2702,-1.34804 -1.563,-1.87295 -2.5351,-4.54306 -0.6045,-1.66041 -1.0991,-3.20745 -1.0991,-3.43788 0,-0.23041 0.2565,-0.76342 0.5699,-1.18444 l 0.5698,-0.76549 11.0916,0.1186 11.0915,0.1186 2.028,0.83094 c 5.0366,2.06362 9.0947,5.94756 11.6793,11.1781 0.4647,0.94039 2.0451,5.01574 3.5118,9.05635 3.3565,9.2462 8.2976,22.73603 14.4128,39.34871 2.6183,7.11304 4.7606,13.19955 4.7606,13.52558 0,0.32602 -0.7484,2.54267 -1.6631,4.92586 -0.9146,2.38319 -3.8685,10.122 -6.564,17.19735 -2.6955,7.07535 -5.0557,13.10264 -5.2447,13.39397 -0.3817,0.58816 -0.4903,0.62429 -0.8791,0.2923 z"
       id="path14"
       inkscape:label="Ciano"
       transform="matrix(3.7795276,0,0,4.1938483,-4400.0002,-2428.3975)" /><path
       style="font-weight:bold;font-size:533.333px;-inkscape-font-specification:'Google Sans Bold'"
       d="m 734.66809,-530.7476 v -271.99984 h 69.86663 v 271.99984 z m 35.19998,-301.86649 q -18.66665,0 -31.99998,-13.33332 -13.33332,-13.33333 -13.33332,-31.99998 0,-18.66666 13.33332,-31.46665 13.33333,-13.33332 31.99998,-13.33332 18.66666,0 31.46665,13.33332 13.33333,12.79999 13.33333,31.46665 0,18.66665 -13.33333,31.99998 -12.79999,13.33332 -31.46665,13.33332 z M 955.46778,-530.7476 840.26785,-802.74744 h 79.46662 l 68.79996,177.06656 h 4.26666 l 69.86661,-177.06656 h 78.4 l -116.2666,271.99984 z m 340.79992,8.53332 q -42.6667,0 -75.7333,-18.66665 -32.5333,-19.19999 -51.2,-51.7333 -18.1333,-33.06665 -18.1333,-74.13329 0,-41.06664 18.1333,-73.59996 18.6667,-33.06664 51.2,-51.7333 33.0666,-19.19999 75.7333,-19.19999 42.6666,0 75.1999,19.19999 32.5333,19.19999 50.6666,51.7333 18.6667,32.53332 18.6667,73.59996 0,41.06664 -18.6667,74.13329 -18.1333,32.53331 -50.6666,51.7333 -32.5333,18.66665 -75.1999,18.66665 z m 0,-65.06662 q 20.2666,0 36.7999,-9.06666 17.0667,-9.6 27.2,-27.19999 10.6667,-18.13332 10.6667,-43.19997 0,-25.06665 -10.6667,-42.66664 -10.1333,-17.59999 -27.2,-27.19998 -16.5333,-9.6 -36.2666,-9.6 -20.2667,0 -37.8667,9.6 -17.0666,9.59999 -27.7333,27.19998 -10.1333,17.59999 -10.1333,42.66664 0,25.06665 10.1333,43.19997 10.6667,17.59999 27.7333,27.19999 17.6,9.06666 37.3334,9.06666 z"
       id="path13"
       inkscape:label="ivo" /></g><path
     d="m 41.847573,15.059722 q 0,0.651099 -0.164844,1.149549 -0.164843,0.498449 -0.491638,0.781943 -0.323903,0.280378 -0.809757,0.280378 -0.485852,0 -0.812649,-0.274148 -0.323901,-0.277262 -0.488747,-0.772596 -0.16484,-0.495335 -0.16484,-1.158895 0,-0.6511 0.16484,-1.152665 0.164846,-0.501565 0.488747,-0.785057 0.326797,-0.286608 0.812649,-0.286608 0.485854,0 0.809757,0.277261 0.326795,0.277262 0.491638,0.778828 0.164844,0.498449 0.164844,1.16201 z m -0.526341,0 q 0,-0.85671 -0.219792,-1.311546 -0.216898,-0.454834 -0.720106,-0.454834 -0.503206,0 -0.722995,0.457951 -0.216901,0.45795 -0.216901,1.31466 0,0.85671 0.225574,1.305313 0.225575,0.44549 0.714322,0.44549 0.503208,0 0.720106,-0.448604 0.219792,-0.45172 0.219792,-1.30843 z m 3.175401,-2.526516 q 0.245819,0 0.445368,0.04673 0.199546,0.04673 0.378851,0.130844 l -0.15617,0.389413 q -0.147489,-0.06854 -0.315225,-0.102806 -0.164846,-0.03427 -0.338362,-0.03427 -0.639129,0 -0.639129,0.545179 v 0.666676 h 1.03244 l -0.05206,0.411221 h -0.980383 v 2.613745 h -0.485855 v -2.61374 h -0.725887 v -0.411221 h 0.725887 v -0.654215 q 0,-0.3053 0.144601,-0.526487 0.147492,-0.221186 0.399092,-0.339569 0.251605,-0.121497 0.566829,-0.121497 z m 2.053315,3.211885 q 0.02024,0.570101 0.277632,0.831787 0.260279,0.25857 0.613101,0.25857 0.234249,0 0.422232,-0.07477 0.187976,-0.07477 0.390417,-0.221186 l 0.228468,0.345799 q -0.211117,0.180688 -0.485855,0.283493 -0.27474,0.102806 -0.561046,0.102806 -0.445365,0 -0.757701,-0.214957 -0.309443,-0.214957 -0.474286,-0.598139 -0.161952,-0.386298 -0.161952,-0.894094 0,-0.498449 0.161952,-0.884749 0.164843,-0.386297 0.462719,-0.607485 0.300765,-0.221186 0.705644,-0.221186 0.575505,0 0.905192,0.429912 0.332581,0.429914 0.332581,1.177587 0,0.08412 -0.0058,0.158882 -0.0029,0.07477 -0.0058,0.127728 z m 0.827108,-1.464197 q -0.338362,0 -0.566827,0.258572 -0.228468,0.25857 -0.257387,0.800634 h 1.587701 q -0.0087,-0.526486 -0.214008,-0.791289 -0.205332,-0.267917 -0.549479,-0.267917 z m 2.290459,2.919046 v -0.401876 h 0.474284 v -2.47667 h -0.474284 v -0.401876 h 0.84446 l 0.08965,0.775713 q 0.176414,-0.404991 0.428014,-0.626177 0.251603,-0.221187 0.665157,-0.221187 0.127246,0 0.225576,0.0218 0.101219,0.0187 0.205333,0.04985 l -0.06941,1.109052 h -0.399092 v -0.69783 q -0.01156,0 -0.02604,0 -0.69986,0 -1.003517,1.077897 v 1.389427 h 0.618881 v 0.401876 z m 5.859168,-0.165112 q -0.156168,0.112151 -0.378849,0.174457 -0.222684,0.0623 -0.43669,0.0623 -0.491641,0 -0.757703,-0.277263 -0.266062,-0.277263 -0.266062,-0.713406 v -1.956414 h -0.69986 v -0.404991 h 0.69986 v -0.744558 l 0.485854,-0.0623 v 0.806865 h 1.052685 l -0.05784,0.404991 h -0.994844 v 1.950183 q 0,0.274148 0.13303,0.417452 0.135924,0.143304 0.44826,0.143304 0.170627,0 0.315227,-0.04362 0.1446,-0.04362 0.268954,-0.112151 z m 3.233248,-0.551409 q 0,0.199379 0.06073,0.289723 0.06073,0.09035 0.187978,0.130843 l -0.118573,0.367607 q -0.196652,-0.02804 -0.344143,-0.133958 -0.14749,-0.109036 -0.214009,-0.327108 -0.164843,0.227417 -0.413551,0.3458 -0.24582,0.115266 -0.540806,0.115266 -0.456933,0 -0.720103,-0.277263 -0.263171,-0.277263 -0.263171,-0.735213 0,-0.507795 0.367282,-0.778828 0.367284,-0.271031 1.06136,-0.271031 h 0.448259 v -0.274148 q 0,-0.355145 -0.193765,-0.501564 -0.19087,-0.149535 -0.532124,-0.149535 -0.150384,0 -0.352822,0.0405 -0.202441,0.03738 -0.439584,0.127727 l -0.127246,-0.395643 q 0.27763,-0.112152 0.523449,-0.158881 0.248711,-0.04673 0.471395,-0.04673 0.566827,0 0.853133,0.286608 0.286311,0.28661 0.286311,0.772597 z m -1.258017,0.389413 q 0.225576,0 0.428016,-0.121498 0.20533,-0.124612 0.341254,-0.342684 V 15.564402 H 57.8316 q -0.503205,0 -0.711427,0.186919 -0.205333,0.186918 -0.205333,0.501564 0,0.619947 0.587074,0.619947 z m 3.583174,-0.03427 q 0.352822,0 0.55526,-0.14019 0.202441,-0.140188 0.202441,-0.380067 0,-0.14642 -0.05206,-0.255455 -0.04916,-0.109036 -0.20533,-0.196265 -0.156168,-0.09035 -0.480071,-0.177572 -0.315227,-0.08412 -0.549478,-0.19315 -0.231356,-0.11215 -0.361497,-0.289723 -0.127249,-0.177572 -0.127249,-0.461067 0,-0.414336 0.321011,-0.654214 0.32101,-0.239879 0.835784,-0.239879 0.367284,0 0.63913,0.10592 0.274741,0.105921 0.465611,0.255456 l -0.214008,0.355145 q -0.170627,-0.127728 -0.381741,-0.208725 -0.208224,-0.08412 -0.503206,-0.08412 -0.358605,0 -0.508992,0.121497 -0.150381,0.118383 -0.150381,0.308417 0,0.146418 0.0723,0.242993 0.0752,0.09346 0.251603,0.168227 0.176414,0.07477 0.485857,0.165111 0.297873,0.08723 0.520557,0.205611 0.222684,0.118381 0.344146,0.311531 0.124357,0.190034 0.124357,0.495334 0,0.348914 -0.185089,0.566985 -0.185087,0.214958 -0.480071,0.314647 -0.292089,0.09657 -0.618884,0.09657 -0.413554,0 -0.705645,-0.127728 -0.289198,-0.130843 -0.485852,-0.314646 l 0.277627,-0.345799 q 0.179306,0.15888 0.410664,0.258569 0.234252,0.09658 0.503206,0.09658 z m 6.908964,-2.987582 q 0.274741,0 0.482963,0.109036 0.211112,0.109036 0.367283,0.317762 l 0.04049,-0.358262 h 0.413555 v 4.601313 l -0.485852,-0.06542 v -1.669802 q -0.167738,0.252339 -0.387526,0.370722 -0.219792,0.115266 -0.468503,0.115266 -0.410663,0 -0.656482,-0.211842 -0.245819,-0.211841 -0.355714,-0.595023 -0.109897,-0.386298 -0.109897,-0.900325 0,-0.492218 0.133033,-0.878516 0.133029,-0.389414 0.390416,-0.610601 0.260281,-0.224303 0.636238,-0.224303 z m 0.121465,0.420567 q -0.760592,0 -0.760592,1.292853 0,1.271046 0.702752,1.271046 0.251603,0 0.439581,-0.149534 0.190869,-0.15265 0.315229,-0.355145 V 14.692113 Q 68.693914,14.492734 68.51172,14.383698 68.329523,14.271547 68.115517,14.271547 Z m 2.831258,-0.352031 v 2.324021 q 0,0.323992 0.124354,0.467297 0.124357,0.143304 0.387527,0.143304 0.251603,0 0.474285,-0.15265 0.225575,-0.155766 0.349929,-0.367606 v -2.414366 h 0.485858 v 3.280422 h -0.413555 l -0.04049,-0.442375 q -0.179303,0.249225 -0.445365,0.383184 -0.263171,0.130843 -0.529233,0.130843 -0.442476,0 -0.662268,-0.252341 -0.216897,-0.255455 -0.216897,-0.713405 v -2.386328 z m 3.366278,1.825573 q 0.02024,0.570101 0.27763,0.831787 0.260278,0.25857 0.6131,0.25857 0.234252,0 0.42223,-0.07477 0.187981,-0.07477 0.390419,-0.221186 l 0.228468,0.345799 q -0.211116,0.180688 -0.485854,0.283493 -0.274738,0.102806 -0.561047,0.102806 -0.445367,0 -0.7577,-0.214957 -0.309444,-0.214957 -0.474287,-0.598139 -0.161949,-0.386298 -0.161949,-0.894094 0,-0.498449 0.161949,-0.884749 0.164843,-0.386297 0.462719,-0.607485 0.300768,-0.221186 0.705647,-0.221186 0.575503,0 0.905192,0.429912 0.332576,0.429914 0.332576,1.177587 0,0.08412 -0.0058,0.158882 -0.0029,0.07477 -0.0058,0.127728 z m 0.827106,-1.464197 q -0.338363,0 -0.56683,0.258572 -0.228465,0.25857 -0.257384,0.800634 h 1.587698 q -0.0087,-0.526486 -0.214005,-0.791289 -0.20533,-0.267917 -0.549479,-0.267917 z m 8.271088,-0.361376 -1.10763,3.280422 h -0.563938 l -1.098955,-3.280422 h 0.514773 l 0.882057,2.80378 0.870488,-2.80378 z m 3.11178,2.563901 q 0,0.199379 0.06073,0.289723 0.06073,0.09035 0.187979,0.130843 l -0.118573,0.367607 q -0.196655,-0.02804 -0.344147,-0.133958 -0.147492,-0.109036 -0.214005,-0.327108 -0.164846,0.227417 -0.413557,0.3458 -0.245817,0.115266 -0.540801,0.115266 -0.456934,0 -0.720105,-0.277263 -0.26317,-0.277263 -0.26317,-0.735213 0,-0.507795 0.367281,-0.778828 0.367283,-0.271031 1.06136,-0.271031 h 0.448259 v -0.274148 q 0,-0.355145 -0.193765,-0.501564 -0.19087,-0.149535 -0.532124,-0.149535 -0.150384,0 -0.352822,0.0405 -0.202441,0.03738 -0.439581,0.127727 l -0.127243,-0.395644 q 0.27763,-0.112152 0.523448,-0.158881 0.248711,-0.04673 0.471392,-0.04673 0.56683,0 0.853138,0.286608 0.286306,0.28661 0.286306,0.772597 z m -1.258012,0.389413 q 0.225573,0 0.428011,-0.121498 0.205333,-0.124612 0.341257,-0.342684 V 15.5644 h -0.439581 q -0.503209,0 -0.711433,0.186919 -0.205329,0.186918 -0.205329,0.501564 0,0.619947 0.587075,0.619947 z m 3.733559,-4.274205 v 3.791331 q 0,0.242995 0.138814,0.3458 0.141706,0.09969 0.364392,0.09969 0.135925,0 0.260279,-0.03115 0.127246,-0.03115 0.2516,-0.08412 l 0.130141,0.383182 q -0.124355,0.06542 -0.309444,0.115267 -0.182195,0.05297 -0.413554,0.05297 -0.404879,0 -0.656479,-0.239879 -0.251606,-0.242994 -0.251606,-0.669792 v -3.348961 h -0.934111 v -0.414337 z m 2.666418,3.146464 q 0.02024,0.570101 0.27763,0.831787 0.260279,0.25857 0.613103,0.25857 0.234249,0 0.422227,-0.07477 0.187978,-0.07477 0.390419,-0.221186 l 0.228468,0.345799 q -0.211114,0.180688 -0.485852,0.283493 -0.274743,0.102806 -0.561048,0.102806 -0.445365,0 -0.757698,-0.214957 Q 91.482798,16.841674 91.317952,16.458492 91.156,16.072194 91.156,15.564398 q 0,-0.498449 0.161952,-0.884749 0.164846,-0.386297 0.462722,-0.607485 0.300765,-0.221186 0.705641,-0.221186 0.575504,0 0.905191,0.429912 0.332579,0.429914 0.332579,1.177587 0,0.08412 -0.0058,0.158882 -0.0029,0.07477 -0.0058,0.127728 z m 0.827109,-1.464197 q -0.338362,0 -0.56683,0.258572 -0.228465,0.25857 -0.257389,0.800634 h 1.587702 q -0.0087,-0.526486 -0.214008,-0.791289 -0.205332,-0.267917 -0.549475,-0.267917 z m 4.268575,-0.429912 q 0.144597,0 0.280519,0.06854 0.135925,0.06854 0.222684,0.264802 0.08676,0.196265 0.08676,0.573217 v 2.442403 h -0.451152 v -2.358289 q 0,-0.308415 -0.0347,-0.44549 -0.03471,-0.137073 -0.199551,-0.137073 -0.135922,0 -0.271844,0.09345 -0.135924,0.09035 -0.260281,0.29907 v 2.548324 H 95.67907 v -2.358289 q 0,-0.308415 -0.0347,-0.44549 -0.0347,-0.137073 -0.199547,-0.137073 -0.141708,0 -0.274738,0.09345 -0.133029,0.09035 -0.257386,0.29907 v 2.548324 h -0.44826 v -3.280422 h 0.381743 l 0.02892,0.380068 q 0.124354,-0.190034 0.27763,-0.317761 0.156168,-0.130843 0.384633,-0.130843 0.173519,0 0.326797,0.09035 0.153273,0.08723 0.225573,0.342684 0.124355,-0.193149 0.280522,-0.31153 0.156171,-0.121498 0.390422,-0.121498 z m 6.940784,0 q 0.1446,0 0.28052,0.06854 0.13593,0.06854 0.22269,0.264802 0.0868,0.196265 0.0868,0.573217 v 2.442403 h -0.45115 v -2.358289 q 0,-0.308415 -0.0347,-0.44549 -0.0347,-0.137073 -0.19954,-0.137073 -0.13593,0 -0.27185,0.09345 -0.13592,0.09035 -0.26028,0.29907 v 2.548324 h -0.45405 v -2.358289 q 0,-0.308415 -0.0347,-0.44549 -0.0347,-0.137073 -0.19955,-0.137073 -0.1417,0 -0.27473,0.09345 -0.13303,0.09035 -0.25738,0.29907 v 2.548324 h -0.44827 v -3.280422 h 0.38174 l 0.0289,0.380068 q 0.12435,-0.190034 0.27763,-0.317761 0.15617,-0.130843 0.38463,-0.130843 0.17351,0 0.32679,0.09035 0.15328,0.08723 0.22557,0.342684 0.12437,-0.193149 0.28054,-0.31153 0.15616,-0.121498 0.39041,-0.121498 z m 1.9492,0.06854 v 2.324021 q 0,0.323992 0.12436,0.467297 0.12436,0.143304 0.38753,0.143304 0.2516,0 0.47428,-0.15265 0.22558,-0.155766 0.34993,-0.367606 v -2.414369 h 0.48586 v 3.280422 h -0.41356 l -0.0405,-0.442375 q -0.1793,0.249225 -0.44536,0.383184 -0.26318,0.130843 -0.52924,0.130843 -0.44247,0 -0.66226,-0.252341 -0.2169,-0.255455 -0.2169,-0.713405 v -2.386328 z m 4.13844,-1.535846 q 0.16195,0 0.25739,0.105919 0.0983,0.105922 0.0983,0.258572 0,0.15888 -0.0983,0.267916 -0.0954,0.105921 -0.25739,0.105921 -0.15327,0 -0.2516,-0.105921 -0.0983,-0.109036 -0.0983,-0.267916 0,-0.15265 0.0983,-0.258572 0.0983,-0.105919 0.2516,-0.105919 z m 0.38752,1.535846 v 2.866086 h 0.85893 v 0.414336 h -2.28468 v -0.414336 h 0.93991 v -2.451749 h -0.91099 v -0.41434 z m 4.34666,3.11531 q -0.15616,0.112151 -0.37885,0.174457 -0.22267,0.0623 -0.43669,0.0623 -0.49163,0 -0.7577,-0.277263 -0.26606,-0.277258 -0.26606,-0.713401 v -1.956414 h -0.69986 v -0.404991 h 0.69986 V 13.17496 l 0.48586,-0.0623 v 0.806865 h 1.05268 l -0.0578,0.404991 h -0.99484 v 1.950183 q 0,0.274148 0.13303,0.417452 0.13592,0.143304 0.44826,0.143304 0.17063,0 0.31522,-0.04362 0.1446,-0.04362 0.26896,-0.112151 z m 2.21239,-3.183846 q 0.64491,0 0.97459,0.464182 0.32969,0.46418 0.32969,1.243007 0,0.501565 -0.15038,0.887864 -0.15039,0.386299 -0.44247,0.607485 -0.2921,0.218072 -0.71722,0.218072 -0.64491,0 -0.97749,-0.467297 -0.33258,-0.467296 -0.33258,-1.239893 0,-0.50468 0.15038,-0.890978 0.15039,-0.389414 0.44248,-0.60437 0.29497,-0.218072 0.723,-0.218072 z m 0,0.426798 q -0.39332,0 -0.59576,0.314645 -0.19954,0.314647 -0.19954,0.971977 0,0.6511 0.19666,0.965746 0.19954,0.31153 0.59285,0.31153 0.39331,0 0.58996,-0.314645 0.19955,-0.314647 0.19955,-0.968862 0,-0.654214 -0.19666,-0.965746 -0.19665,-0.314645 -0.58706,-0.314645 z m 7.78811,-0.426798 q 0.14459,0 0.28052,0.06853 0.13592,0.06854 0.22269,0.264802 0.0868,0.196265 0.0868,0.573217 v 2.442403 h -0.45115 v -2.358289 q 0,-0.308415 -0.0347,-0.44549 -0.0347,-0.137073 -0.19955,-0.137073 -0.13592,0 -0.27185,0.09345 -0.13592,0.09035 -0.26027,0.29907 v 2.548324 h -0.45405 v -2.358289 q 0,-0.308415 -0.0347,-0.44549 -0.0347,-0.137073 -0.19955,-0.137073 -0.14171,0 -0.27474,0.09345 -0.13303,0.09035 -0.25739,0.29907 v 2.548324 h -0.44826 v -3.280422 h 0.38176 l 0.0289,0.380068 q 0.12436,-0.190034 0.27763,-0.317761 0.15617,-0.130843 0.38464,-0.130843 0.17351,0 0.32679,0.09035 0.15328,0.08723 0.22558,0.342684 0.12435,-0.193149 0.28051,-0.31153 0.15617,-0.121498 0.39043,-0.121498 z m 3.64391,2.632437 q 0,0.199379 0.0607,0.289723 0.0607,0.09035 0.18798,0.130843 l -0.11857,0.367607 q -0.19666,-0.02803 -0.34415,-0.133958 -0.14749,-0.109036 -0.21401,-0.327108 -0.16484,0.227417 -0.41355,0.3458 -0.24582,0.115266 -0.54081,0.115266 -0.45693,0 -0.7201,-0.277263 -0.26316,-0.277263 -0.26316,-0.735213 0,-0.507795 0.36727,-0.778828 0.36728,-0.271031 1.06137,-0.271031 h 0.44825 v -0.274148 q 0,-0.355145 -0.19376,-0.501564 -0.19087,-0.149535 -0.53213,-0.149535 -0.15038,0 -0.35282,0.0405 -0.20243,0.03738 -0.43958,0.127727 l -0.12725,-0.395643 q 0.27763,-0.112152 0.52345,-0.158881 0.24871,-0.04673 0.4714,-0.04673 0.56682,0 0.85313,0.286608 0.28631,0.28661 0.28631,0.772597 z m -1.25802,0.389413 q 0.22557,0 0.42802,-0.121498 0.20533,-0.124612 0.34125,-0.342684 v -0.844248 h -0.43958 q -0.50321,0 -0.71143,0.186919 -0.20533,0.186918 -0.20533,0.501564 0,0.619947 0.58707,0.619947 z m 3.70175,-4.48916 q 0.16195,0 0.25738,0.105919 0.0983,0.105922 0.0983,0.258572 0,0.15888 -0.0983,0.267916 -0.0954,0.105921 -0.25738,0.105921 -0.15328,0 -0.2516,-0.105921 -0.0983,-0.109036 -0.0983,-0.267916 0,-0.15265 0.0983,-0.258572 0.0983,-0.105919 0.2516,-0.105919 z m 0.38752,1.535846 v 2.866086 h 0.85892 v 0.414336 h -2.28467 v -0.414336 h 0.9399 v -2.451749 h -0.91097 v -0.41434 z m 2.9643,2.919046 q 0.35282,0 0.55526,-0.14019 0.20243,-0.140188 0.20243,-0.380067 0,-0.14642 -0.052,-0.255455 -0.0492,-0.109036 -0.20533,-0.196265 -0.15617,-0.09035 -0.48007,-0.177572 -0.31523,-0.08412 -0.54948,-0.19315 -0.23136,-0.11215 -0.36149,-0.289723 -0.12725,-0.177572 -0.12725,-0.461067 0,-0.414336 0.321,-0.654214 0.32102,-0.239879 0.83579,-0.239879 0.36729,0 0.63913,0.10592 0.27474,0.105921 0.46561,0.255456 l -0.21401,0.355145 q -0.17063,-0.127728 -0.38174,-0.208725 -0.20822,-0.08412 -0.50321,-0.08412 -0.3586,0 -0.50898,0.121497 -0.15039,0.118383 -0.15039,0.308417 0,0.146418 0.0723,0.242993 0.0752,0.09346 0.25161,0.168227 0.17641,0.07477 0.48585,0.165111 0.29787,0.08723 0.52056,0.205611 0.22269,0.118381 0.34414,0.311531 0.12436,0.190034 0.12436,0.495334 0,0.348914 -0.18509,0.566985 -0.18509,0.214958 -0.48006,0.314647 -0.2921,0.09657 -0.61889,0.09657 -0.41356,0 -0.70565,-0.127728 -0.2892,-0.130843 -0.48585,-0.314646 l 0.27763,-0.345799 q 0.1793,0.15888 0.41066,0.258569 0.23425,0.09658 0.50321,0.09658 z"
     id="text6"
     style="font-size:230.437px;line-height:0;font-family:'FiraCode Nerd Font';-inkscape-font-specification:'FiraCode Nerd Font';letter-spacing:0px;white-space:pre;fill:#001537;stroke-width:0.191999"
     aria-label="Ofertas que valem muito mais" /><g
     inkscape:label="Camada 1"
     inkscape:groupmode="layer"
     id="layer1"
     transform="matrix(0.3758385,0,0,0.3758385,394.02447,88.406347)"><g
       id="g11"
       transform="matrix(0.29722762,0,0,0.29781497,-1032.1554,-246.57983)"><path
         style="fill:#00cde6;fill-opacity:1"
         d="m 171.41591,136.83269 c -0.27758,-0.1765 -14.98542,-29.42143 -20.4831,-40.728413 -1.14754,-2.36012 -2.45077,-5.45574 -2.89607,-6.87916 -0.44529,-1.42342 -1.09018,-3.481 -1.4331,-4.57241 -0.78681,-2.50423 -3.92039,-9.54755 -5.83937,-13.12511 -4.55744,-8.49644 -11.17646,-16.48956 -18.34586,-22.15443 -1.49128,-1.178327 -1.83519,-1.637161 -2.97656,-3.971131 -0.70976,-1.451379 -1.29047,-2.803667 -1.29047,-3.005083 0,-0.201417 0.30111,-0.667317 0.66912,-1.035333 l 0.66912,-0.669121 13.02307,0.103667 13.02307,0.103666 2.38125,0.72634 c 5.91368,1.803818 10.67849,5.198809 13.71326,9.770881 0.54561,0.822 2.40109,4.384312 4.12328,7.916247 3.94093,8.082197 9.74251,19.873797 16.92271,34.395117 3.07434,6.21757 5.58971,11.537853 5.58971,11.822833 0,0.28499 -0.87871,2.22258 -1.95269,4.30575 -1.07398,2.08317 -4.54218,8.84774 -7.70712,15.03238 -3.16493,6.18463 -5.93608,11.45315 -6.15811,11.70781 -0.44822,0.51411 -0.57579,0.54569 -1.03214,0.2555 z"
         id="path6"
         inkscape:label="Ciano" /><path
         style="fill:#001537;fill-opacity:1"
         d="m 194.46968,174.52146 c -2.14236,-0.70516 -4.40648,-2.12948 -5.73261,-3.60629 -1.04839,-1.16752 -2.36917,-3.54673 -6.32383,-11.3915 -3.66202,-7.26426 -4.96549,-10.09262 -4.87457,-10.57721 0.12178,-0.64912 4.00205,-8.31333 11.25215,-22.225 6.93879,-13.31433 13.01408,-25.24924 18.90759,-37.143953 19.61128,-39.580975 21.2744,-42.834468 22.57465,-44.161962 1.72973,-1.765957 4.02093,-3.246206 6.1074,-3.945738 1.73743,-0.582508 1.95973,-0.590332 17.75168,-0.624871 l 15.99221,-0.03498 0.61039,0.61039 c 0.33572,0.335715 0.6104,0.880635 0.6104,1.210934 0,0.580261 -3.97329,8.592747 -21.10028,42.550593 -9.5791,18.992567 -15.68447,31.011267 -25.20101,49.609367 -1.56371,3.05594 -4.63884,9.0686 -6.83362,13.36146 -10.34473,20.23366 -11.01495,21.46086 -12.60016,23.07131 -0.96706,0.98245 -2.18563,1.86016 -3.45041,2.48525 -1.71033,0.84529 -2.24743,0.97883 -4.28649,1.06576 -1.49019,0.0635 -2.71801,-0.0279 -3.40349,-0.25357 z"
         id="path5"
         inkscape:label="V" /><path
         id="path4"
         style="fill:#001537;fill-opacity:1"
         d="m 44.274817,41.335978 c -47.2199352,-0.100066 -44.28121181,-0.20267 -47.8373902,1.666048 -2.095057,1.100922 -2.7320854,1.74337 -13.8849408,13.998112 -8.334337,9.157754 -15.454277,16.906216 -21.033341,22.890076 -9.349361,10.02773 -11.276268,12.06654 -11.700061,12.38064 -0.961858,0.71288 -2.897436,3.794149 -3.553789,5.657019 -1.025397,2.910307 -1.16975,7.083407 -0.341064,9.874847 0.722834,2.43487 2.108139,4.70019 4.206462,6.8802 0.840408,0.87313 3.645853,3.96875 6.234761,6.87917 2.588908,2.91041 7.039885,7.90371 9.890869,11.09596 2.850983,3.19226 5.658825,6.34741 6.239413,7.01146 1.518323,1.73658 4.373178,4.92854 12.319661,13.77487 3.856195,4.29286 8.7264004,9.74925 10.8225954,12.12536 2.279479,2.58388 4.47043385,4.79065 5.4513468,5.49062 2.7240669,1.94385 5.6147265,3.00936 9.5348188,3.51503 1.005461,0.12969 17.822157,0.21409 37.412703,0.18759 34.848963,-0.0472 35.657741,-0.0598 39.026042,-0.60772 4.432779,-0.72107 6.147417,-1.12713 10.186458,-2.41277 4.416879,-1.40591 5.612449,-1.89225 9.657289,-3.92793 12.54485,-6.31355 22.33546,-16.204 28.64993,-28.9419 3.42003,-6.89907 5.51048,-13.5798 6.57583,-21.01474 0.66642,-4.6512 0.67517,-15.05665 0.016,-19.325433 -1.27475,-8.25546 -4.22602,-16.841743 -8.20157,-23.863143 C 130.74768,69.019134 125.58407,62.37217 121.5192,58.672388 112.58612,50.541643 104.47026,45.947372 94.003564,43.095561 87.426176,41.303458 91.149193,41.435308 44.274817,41.335978 Z m 10.753865,32.253329 c 17.227623,-0.05871 25.058593,0.0059 26.742554,0.220658 2.927585,0.37334 7.13882,1.739199 10.312032,3.344499 7.682049,3.88629 13.637142,10.848058 16.485812,19.272208 1.32403,3.915468 1.67716,6.011858 1.8278,10.847918 0.11854,3.80558 0.0548,4.99978 -0.416,7.75973 -1.2068,7.07476 -3.63302,12.19452 -8.31112,17.53795 -4.092331,4.67435 -9.678805,8.04805 -16.458941,9.93996 l -2.645833,0.73846 -25.664583,0.0734 c -27.908296,0.0802 -26.246575,0.16021 -27.881502,-1.34049 -1.411923,-1.296 -1.354957,0.11477 -1.354957,-33.55867 0,-30.662531 0.01013,-31.299024 0.525033,-32.353584 0.288883,-0.59164 0.965098,-1.373562 1.502234,-1.737362 l 0.976168,-0.661458 z m -74.66521,15.580961 c 1.963222,0.01842 3.964408,0.481021 5.893181,1.403015 4.8586438,2.32254 7.6381165,6.897341 7.6553465,12.600267 0.011888,3.93472 -1.1793301,6.87471 -3.8917521,9.60406 -1.8184284,1.82978 -4.0464584,3.13083 -6.4202804,3.74913 -8.473379,2.20704 -16.790189,-4.46547 -16.790189,-13.47101 0,-4.054938 1.542632,-7.554961 4.563029,-10.351311 2.551655,-2.362388 5.71863,-3.564848 8.990665,-3.534151 z"
         inkscape:label="D" /></g><g
       id="g10"
       transform="matrix(0.07918254,-0.03057659,0.03051629,0.07933901,-1028.6244,-222.68453)"
       inkscape:label="etiqueta"><path
         style="fill:#f31614;fill-opacity:1"
         d="m -219.21557,313.08924 c -10.16391,-0.80101 -17.70067,-8.07711 -19.03642,-18.37807 -0.23139,-1.78442 -0.28837,-24.49695 -0.22733,-90.61979 l 0.0815,-88.23855 0.71596,-2.59386 c 0.39378,-1.42662 1.13985,-3.47517 1.65795,-4.55233 1.63625,-3.4019 2.81885,-4.78851 15.33784,-17.983786 2.48229,-2.61637 5.64435,-5.95109 7.02679,-7.41047 16.84133,-17.77858 17.44101,-18.36135 20.47778,-19.90019 0.7168,-0.36323 2.44496,-0.96315 3.84035,-1.33314 l 2.53708,-0.67272 23.41563,-0.0288 c 21.97348,-0.0271 23.54598,0.002 25.53229,0.46443 2.64076,0.61541 4.99373,1.66683 7.11045,3.17729 1.7911,1.27809 8.86723,8.57185 25.31651,26.09507 13.123769,13.980606 14.500809,15.853006 16.182469,22.003646 l 0.60307,2.20574 v 89.95833 89.95834 l -0.59793,2.24895 c -0.32886,1.23693 -1.15589,3.38006 -1.83784,4.7625 -1.04601,2.12046 -1.61481,2.88594 -3.63717,4.8948 -1.31849,1.30968 -3.07974,2.78192 -3.91388,3.27164 -2.238499,1.3142 -5.579219,2.37491 -8.423129,2.67443 -2.92541,0.3081 -108.24982,0.30488 -112.16193,-0.003 z m 61.28836,-205.69573 c 2.32036,-1.14679 4.17268,-2.74575 5.40437,-4.66519 1.12873,-1.75898 2.10146,-4.924236 2.08834,-6.795466 -0.0105,-1.49843 -0.014,-1.50502 -0.40996,-0.77482 -0.21965,0.40505 -0.62868,1.63306 -0.90895,2.7289 -1.3083,5.115396 -4.21192,7.936566 -9.24961,8.986956 -2.6189,0.54605 -6.201,0.36336 -7.54484,-0.3848 -0.58208,-0.32407 -0.84379,-0.52405 -0.58157,-0.44441 0.29492,0.0896 0.41086,0.0382 0.30397,-0.13479 -0.095,-0.15378 -0.35786,-0.20858 -0.58404,-0.12178 -1.08745,0.41729 -4.04184,-2.84091 -5.53666,-6.106026 -0.5898,-1.2883 -0.7302,-2.02802 -0.82241,-4.33305 -0.12875,-3.21839 0.32085,-5.40988 1.5539,-7.57425 0.88757,-1.55795 0.96217,-1.89635 0.309,-1.40178 -0.25466,0.19282 0.0126,-0.15485 0.59384,-0.7726 2.89417,-3.0758 8.2642,-4.72808 12.52943,-3.85514 6.72644,1.37667 10.96832,6.53419 10.96986,13.33777 2.9e-4,1.29306 -0.19206,2.96427 -0.45255,3.93187 -0.24918,0.92561 -0.40307,1.732896 -0.34198,1.793986 0.0611,0.0611 0.38846,-0.51762 0.72749,-1.286036 0.83093,-1.8833 1.0325,-6.214 0.40351,-8.66918 -1.39318,-5.43812 -6.12413,-9.42134 -12.4572,-10.48834 l -2.64584,-0.44578 -2.68924,0.6799 c -1.7527,0.44312 -3.1809,0.99472 -4.10104,1.5839 -4.98115,3.18954 -7.96021,10.65081 -6.47096,16.20697 0.34953,1.30404 0.35625,1.26816 0.47112,-2.51354 0.10575,-3.48116 0.18614,-3.99964 0.86807,-5.59848 0.41335,-0.96911 1.03237,-2.10021 1.37562,-2.51354 0.52723,-0.6349 0.482,-0.44357 -0.29145,1.23285 -0.60782,1.31744 -1.02446,2.75381 -1.23966,4.27372 -0.29845,2.1079 -0.27833,2.47027 0.25384,4.57195 0.78599,3.104056 1.6605,4.713616 3.72458,6.855166 2.90075,3.00962 5.24819,3.92555 9.73329,3.79775 2.81787,-0.0803 3.05408,-0.1322 5.01773,-1.10269 z m -16.46219,-2.4337 c -0.51879,-0.67965 -1.31029,-1.95957 -1.7589,-2.84427 -0.44861,-0.8847 -0.86931,-1.45194 -0.93489,-1.26053 -0.2095,0.61143 1.50819,3.70158 2.52214,4.53736 0.53591,0.44175 1.006,0.80317 1.04465,0.80317 0.0386,0 -0.35421,-0.55608 -0.873,-1.23573 z m 15.32871,0.21576 c 2.00667,-0.98788 4.02105,-3.04046 5.05217,-5.148 2.62434,-5.363976 0.30238,-11.999426 -5.09353,-14.555686 -1.60601,-0.76083 -2.00949,-0.83971 -4.28643,-0.83795 -2.25833,0.002 -2.68944,0.0851 -4.24587,0.82091 -4.02727,1.90391 -6.34133,5.44907 -6.33433,9.70426 0.006,3.52767 0.99793,5.972226 3.2646,8.043826 2.40383,2.19697 4.68825,3.037 7.8938,2.90271 1.64334,-0.0688 2.36262,-0.24726 3.74959,-0.93007 z m 6.55711,-15.494506 c -0.72801,-1.64577 -0.94017,-1.54649 -0.24904,0.11654 0.3038,0.73103 0.60481,1.2767 0.6689,1.21261 0.0641,-0.0641 -0.12484,-0.66221 -0.41986,-1.32915 z m -12.80864,-10.10372 c -0.0879,-0.0879 -0.31613,-0.0973 -0.50712,-0.0209 -0.21107,0.0845 -0.14837,0.14715 0.15985,0.15985 0.27892,0.0115 0.43519,-0.051 0.34727,-0.13897 z m 1.98988,-0.27995 c -0.1819,-0.0734 -0.47955,-0.0734 -0.66145,0 -0.18191,0.0734 -0.0331,0.13345 0.33072,0.13345 0.36381,0 0.51263,-0.0601 0.33073,-0.13345 z"
         id="path7"
         inkscape:label="etiqueta" /><path
         id="path8"
         style="fill:#000000;stroke-width:0.426246"
         d="m -149.40296,10.030853 c -3.32992,0.07217 -6.06554,0.65557 -9.10177,1.94045 -1.67586,0.709193 -4.3248,2.305636 -5.85804,3.53105 -5.46019,4.363928 -12.44932,14.770298 -14.90144,23.348284 l 0.13038,1.66975 0.27108,2.174343 0.25394,1.543688 0.36523,1.855931 0.40445,1.65623 0.42647,1.589469 c 1.53855,-4.98673 12.00096,-23.264281 14.79552,-26.869128 4.0485,-5.22237 9.57604,-8.146522 14.56965,-7.707023 4.21474,0.370947 8.13582,2.637594 11.59413,6.702433 1.28132,1.506034 2.15571,2.77097 3.16001,4.571297 3.21069,5.755567 5.08558,12.03897 5.79035,19.403467 0.19834,2.075761 0.1973,7.961938 -0.002,10.247953 -1.02092,11.70626 -4.52572,21.577319 -10.09861,28.441675 -2.03909,2.511637 -4.0436,4.283801 -6.43733,5.691126 -1.55459,0.913984 -2.80744,1.448806 -4.08244,1.742529 -1.18945,0.274008 -3.43956,0.316525 -4.61419,0.08733 -2.72581,-0.531855 -5.51985,-2.139416 -7.94008,-4.568196 -0.72654,-0.729106 -1.4268,-1.537408 -2.09755,-2.417941 0,0 -1.40279,-0.248428 -3.1334,0.13691 -1.69169,0.376673 -3.71465,1.383932 -3.49768,1.670992 0.38385,0.507821 0.77849,0.998767 1.18387,1.472518 1.92219,2.246398 3.77537,3.831403 6.15156,5.262211 3.02208,1.819719 6.24944,2.905516 9.51932,3.202389 3.78572,0.343711 8.06771,-0.446732 11.64321,-2.148706 5.34556,-2.544539 10.18839,-7.323633 13.74283,-13.561446 3.68133,-6.460493 6.04413,-14.023771 7.2161,-23.100916 0.30614,-2.371142 0.43955,-10.119384 0.21549,-12.513965 -0.75003,-8.015816 -2.45919,-13.987128 -5.7273,-20.009631 -2.18427,-4.025172 -5.32999,-7.757957 -8.56227,-10.16062 -1.32016,-0.981319 -3.9271,-2.465848 -5.36298,-3.054077 -3.26982,-1.339525 -6.38582,-1.9090689 -10.01644,-1.830379 z"
         sodipodi:nodetypes="ssscccccccssssccssssscssssssssssssss"
         inkscape:label="Argola" /><path
         style="fill:#ffffff;stroke-width:1.38801"
         d="m -44.527227,193.46025 c -1.921346,-1.34576 -1.619386,-4.98663 0.791372,-9.54173 0.85805,-1.62131 3.633604,-6.08331 6.167893,-9.91556 5.740209,-8.68017 8.026671,-12.51261 12.592252,-21.10662 6.064959,-11.4163 8.427066,-14.32247 11.641174,-14.32247 2.133171,0 2.689357,0.69641 2.689357,3.36739 0,2.0096 -0.212503,2.74338 -1.567029,5.41099 -0.861869,1.69736 -4.149805,6.96723 -7.306545,11.71082 -7.243723,10.88509 -9.412691,14.50343 -13.843287,23.09383 -1.960975,3.8021 -4.144363,7.70397 -4.851968,8.67085 -2.129465,2.9097 -4.503897,3.89979 -6.313219,2.6325 z m 24.320065,-1.09831 c -2.127757,-0.78491 -3.88872,-2.3713 -5.140091,-4.63054 -1.022459,-1.84597 -1.089375,-2.21497 -1.089375,-6.00647 0,-3.68476 0.09063,-4.22436 1.032301,-6.14185 1.901526,-3.8723 5.168974,-5.79354 9.853008,-5.79354 3.619196,0 6.079005,1.0247 8.3041033,3.45932 2.1029937,2.30101 3.0287934,4.77211 3.0287934,8.08435 0,4.70446 -1.8913102,8.23294 -5.4994992,10.26006 -1.8006865,1.01166 -2.3760575,1.13935 -5.5086465,1.22262 -2.394712,0.0637 -3.965587,-0.0796 -4.980594,-0.45395 z m 6.72311,-6.24892 c 2.45516,-1.71966 2.78631,-7.46806 0.563835,-9.78783 -1.060407,-1.10682 -2.823077,-1.37084 -4.207085,-0.63014 -1.074623,0.57513 -2.130701,3.17641 -2.140028,5.27126 -0.01873,4.22199 3.118016,7.01353 5.783278,5.14671 z M -46.798961,162.1983 c -2.221725,-0.81283 -4.881575,-3.54289 -5.65053,-5.79967 -0.899941,-2.64119 -0.817813,-7.33229 0.174834,-9.98536 1.585088,-4.23656 5.314062,-6.73768 10.045329,-6.73768 4.821931,0 8.710776,2.34042 10.508243,6.32414 1.191853,2.64148 1.220793,8.03995 0.0569,10.61659 -0.978806,2.16697 -3.053264,4.24293 -5.206088,5.20985 -2.274817,1.02174 -7.606923,1.22157 -9.928724,0.37213 z m 6.91503,-6.22838 c 1.193989,-0.83631 1.879136,-2.6934 1.879136,-5.09342 0,-3.55407 -1.448452,-5.69226 -3.856046,-5.69226 -2.429176,0 -3.85606,2.13806 -3.85606,5.77801 0,4.34008 3.048977,6.95766 5.83297,5.00767 z"
         id="path11"
         transform="matrix(2.8153459,0,0,2.8153459,-83.702498,-257.42262)" /></g></g></svg>
