<?xml version="1.0" encoding="UTF-8" standalone="no"?>
<!-- Created with Inkscape (http://www.inkscape.org/) -->

<svg
   width="1225.5734"
   height="572.38623"
   viewBox="0 0 324.26629 151.44385"
   version="1.1"
   id="svg1"
   xml:space="preserve"
   inkscape:version="1.4.2 (f4327f4, 2025-05-13)"
   sodipodi:docname="logo-icon-whjite.svg"
   xmlns:inkscape="http://www.inkscape.org/namespaces/inkscape"
   xmlns:sodipodi="http://sodipodi.sourceforge.net/DTD/sodipodi-0.dtd"
   xmlns="http://www.w3.org/2000/svg"
   xmlns:svg="http://www.w3.org/2000/svg"><sodipodi:namedview
     id="namedview1"
     pagecolor="#ffffff"
     bordercolor="#000000"
     borderopacity="0.25"
     inkscape:showpageshadow="false"
     inkscape:pageopacity="0.0"
     inkscape:pagecheckerboard="true"
     inkscape:deskcolor="#d1d1d1"
     inkscape:document-units="mm"
     showborder="false"
     borderlayer="false"
     inkscape:zoom="0.25417602"
     inkscape:cx="810.46198"
     inkscape:cy="627.51789"
     inkscape:window-width="2560"
     inkscape:window-height="1009"
     inkscape:window-x="-8"
     inkscape:window-y="-8"
     inkscape:window-maximized="1"
     inkscape:current-layer="layer1" /><defs
     id="defs1" /><g
     inkscape:label="Camada 1"
     inkscape:groupmode="layer"
     id="layer1"
     transform="translate(482.52707,-12.356457)"><path
       style="fill:#00cce7;fill-opacity:1"
       d="m -267.86976,88.225722 c -11.93854,-23.920606 -12.37565,-24.857242 -13.52817,-28.987789 -1.87633,-6.724646 -5.70834,-15.009627 -10.11929,-21.878353 -4.0325,-6.279392 -9.62363,-12.573256 -14.58749,-16.420947 -1.9439,-1.506797 -2.24675,-1.869267 -3.20028,-3.830251 -0.57925,-1.191275 -1.05319,-2.295712 -1.05319,-2.454304 0,-0.676888 0.64912,-1.621655 1.29921,-1.890929 0.4672,-0.19352 4.76257,-0.309923 12.86411,-0.348612 l 12.16272,-0.05808 2.64584,0.763751 c 4.6936,1.354863 8.30479,3.510121 11.27545,6.729502 2.58396,2.800299 2.31651,2.314674 9.71611,17.642164 2.17783,4.511146 5.83168,12.012084 8.11966,16.668751 8.95404,18.22392 10.70857,21.9278 10.70857,22.60625 0,0.39069 -2.13053,4.87739 -4.78805,10.0832 -2.63343,5.15862 -5.98229,11.76055 -7.44192,14.670975 -2.79943,5.58193 -3.19806,6.21771 -3.89849,6.21771 -0.31302,0 -3.1837,-5.50535 -10.17479,-19.513035 z"
       id="path130" /><path
       style="fill:#000000"
       d="m -233.84748,145.57722 c -2.05084,-0.31258 -4.62017,-1.68388 -6.37646,-3.40323 -1.40968,-1.38005 -1.90523,-2.24988 -6.46175,-11.34253 -2.71425,-5.41632 -4.93499,-10.10858 -4.93499,-10.42725 0,-0.31867 0.58287,-1.66166 1.29526,-2.98444 0.7124,-1.32277 2.95944,-5.61972 4.99342,-9.54878 2.03398,-3.92907 4.07465,-7.83874 4.53482,-8.688168 3.73765,-6.89935 13.16107,-25.35239 19.88388,-38.936834 14.72562,-29.75531 18.28976,-37.021111 19.05786,-38.851005 1.6593,-3.953089 4.73348,-6.885091 8.67948,-8.278069 l 1.74799,-0.617057 16.03243,-0.0056 c 15.19992,-0.0053 16.05517,0.01954 16.47031,0.478273 0.24084,0.26612 0.43788,0.755313 0.43788,1.087096 0,0.598104 -3.86548,8.434203 -15.73544,31.898842 -3.38624,6.693959 -9.75906,19.314584 -14.16182,28.045834 -4.40276,8.73125 -8.5102,16.8275 -9.12764,17.99167 -0.61745,1.16416 -3.35726,6.52198 -6.08848,11.906248 -5.00319,9.8632 -7.77399,15.28237 -12.03994,23.54791 -1.27678,2.47386 -3.28589,6.38011 -4.46467,8.68057 -2.51737,4.91277 -3.09372,5.72515 -5.12279,7.22065 -2.45546,1.80976 -5.75645,2.6622 -8.61935,2.22585 z"
       id="path129" /><path
       style="fill:#011537;fill-opacity:1"
       d="m -458.0833,163.54417 c 0.191,-0.0764 0.4192,-0.067 0.50712,0.0209 0.0879,0.0879 -0.0684,0.15045 -0.34727,0.13896 -0.30822,-0.0127 -0.37092,-0.0754 -0.15985,-0.15985 z m 5.40742,-0.53081 c 0.25466,-0.0666 0.67138,-0.0666 0.92604,0 0.25467,0.0666 0.0463,0.121 -0.46302,0.121 -0.50932,0 -0.71768,-0.0545 -0.46302,-0.121 z m 2.25205,-0.26933 c 0.32911,-0.0633 0.80536,-0.0609 1.05833,0.005 0.25296,0.0662 -0.0163,0.118 -0.5984,0.11507 -0.58208,-0.003 -0.78905,-0.0571 -0.45993,-0.12041 z m 5.83428,-0.52278 c 0.191,-0.0764 0.4192,-0.067 0.50712,0.0209 0.0879,0.0879 -0.0684,0.15046 -0.34727,0.13897 -0.30822,-0.0127 -0.37092,-0.0754 -0.15985,-0.15986 z m 1.63711,-0.12966 c 0,-0.12032 0.35719,-0.21876 0.79375,-0.21876 0.43656,0 0.79375,0.046 0.79375,0.10226 0,0.0562 -0.35719,0.15469 -0.79375,0.21876 -0.43656,0.0641 -0.79375,0.0181 -0.79375,-0.10226 z m 3.10885,-0.39399 c 0.18191,-0.0734 0.47956,-0.0734 0.66146,0 0.1819,0.0734 0.0331,0.13345 -0.33073,0.13345 -0.3638,0 -0.51263,-0.06 -0.33073,-0.13345 z m 2.11976,-0.27648 c 0.32911,-0.0633 0.80536,-0.0609 1.05833,0.005 0.25296,0.0662 -0.0163,0.118 -0.5984,0.11506 -0.58208,-0.003 -0.78905,-0.0571 -0.45993,-0.1204 z m 3.45303,-0.2582 c 0.191,-0.0764 0.4192,-0.067 0.50712,0.0209 0.0879,0.0879 -0.0684,0.15045 -0.34727,0.13896 -0.30822,-0.0127 -0.37092,-0.0754 -0.15985,-0.15985 z m 1.30285,-0.13251 c -0.18531,-0.11769 0.21781,-0.20957 0.92957,-0.21186 0.69123,-0.002 1.25677,0.0425 1.25677,0.0993 0,0.21482 -1.87349,0.31128 -2.18634,0.11257 z m 3.50926,-1.14196 c 0.34178,-0.3638 0.68094,-0.66145 0.7537,-0.66145 0.0728,0 -0.14734,0.29765 -0.48912,0.66145 -0.34177,0.36381 -0.68093,0.66146 -0.7537,0.66146 -0.0728,0 0.14735,-0.29765 0.48912,-0.66146 z m -34.06987,-0.39687 c 0,-0.50932 0.0544,-0.71768 0.121,-0.46302 0.0666,0.25466 0.0666,0.67138 0,0.92604 -0.0666,0.25466 -0.121,0.0463 -0.121,-0.46302 z m 13.38276,-1.76824 c 0.191,-0.0764 0.4192,-0.067 0.50712,0.0209 0.0879,0.0879 -0.0684,0.15045 -0.34727,0.13896 -0.30822,-0.0127 -0.37092,-0.0754 -0.15985,-0.15985 z m -3.00412,-0.36626 c -0.12146,-0.19654 -0.0944,-0.26139 0.0673,-0.16142 0.34263,0.21175 2.55069,-4.74716 2.29674,-5.15806 -0.10616,-0.17178 -0.0689,-0.2284 0.087,-0.13207 0.33448,0.20672 1.73741,-2.92417 1.48982,-3.32479 -0.11169,-0.18071 -0.0482,-0.20494 0.17526,-0.0669 0.25657,0.15857 0.30376,0.095 0.1762,-0.23744 -0.10349,-0.26969 -0.068,-0.38839 0.0873,-0.29237 0.23859,0.14745 0.36368,-0.27447 0.3331,-1.12351 -0.006,-0.18033 0.0757,-0.27381 0.18261,-0.20773 0.28675,0.17723 2.17914,-4.3255 1.96411,-4.67341 -0.10085,-0.16318 -0.0692,-0.22613 0.0704,-0.13989 0.13955,0.0862 0.58732,-0.60894 0.99505,-1.54486 0.43201,-0.99166 0.85704,-1.63014 1.01866,-1.53025 0.16672,0.10304 0.19811,0.0432 0.0787,-0.15002 -0.10926,-0.17679 -0.0537,-0.67144 0.12351,-1.09922 0.26314,-0.63527 0.4799,-0.77778 1.18304,-0.77778 0.47348,0 1.2158,-0.071 1.64961,-0.15775 0.58795,-0.11759 0.83135,-0.0467 0.95609,0.27833 0.0952,0.24803 0.058,0.3685 -0.0862,0.27937 -0.33803,-0.20891 -1.08133,1.60622 -0.89527,2.18622 0.10129,0.31574 0.0733,0.35539 -0.0908,0.12856 -0.161,-0.22251 -0.95083,1.22388 -2.45617,4.49792 -3.19592,6.95096 -3.97304,8.86875 -3.80521,9.39062 0.1053,0.32742 0.078,0.3643 -0.0936,0.12636 -0.17033,-0.23624 -0.52561,0.29404 -1.19656,1.78594 -0.95094,2.11448 -0.95784,2.12194 -1.9655,2.12554 -0.55617,0.002 -1.26566,0.0719 -1.57666,0.15535 -0.31859,0.0855 -0.65409,0.008 -0.76849,-0.17679 z m 13.24019,-1.01714 c -1.91531,-0.16097 -2.63145,-0.41229 -2.37183,-0.83236 0.0827,-0.1338 -0.0375,-0.1712 -0.26702,-0.0831 -0.34329,0.13173 -0.35827,0.23685 -0.0844,0.59228 0.22253,0.28884 0.13705,0.265 -0.25783,-0.0719 -0.61753,-0.52687 -0.72594,-0.70794 -0.39232,-0.65526 0.50474,0.0797 0.5921,-0.0721 0.32676,-0.56791 -0.15794,-0.29512 -0.39066,-0.47262 -0.51715,-0.39444 -0.39531,0.24432 -0.91141,-1.76986 -0.91395,-3.5669 -10e-4,-0.94589 -0.12548,-1.82032 -0.27587,-1.94319 -0.16385,-0.13387 -0.0978,-0.16751 0.16486,-0.0839 0.30836,0.0981 0.5427,-0.11018 0.79051,-0.70264 0.19372,-0.46316 0.3251,-0.92785 0.29195,-1.03264 -0.0332,-0.1048 0.20643,-0.31973 0.5324,-0.47762 0.56964,-0.27592 0.57271,-0.27108 0.0791,0.12439 -0.63321,0.5073 -0.35962,0.53126 0.59287,0.0519 1.17169,-0.58964 2.62536,-0.69581 3.9642,-0.28953 1.54307,0.46826 1.64301,0.46618 0.99918,-0.0208 -0.28248,-0.21365 -0.38635,-0.38846 -0.23084,-0.38846 0.15552,0 0.43098,0.17859 0.61214,0.39687 0.18115,0.21828 0.24069,0.39688 0.13229,0.39688 -0.1084,0 -0.05,0.17728 0.12987,0.39396 0.17983,0.21668 0.42431,0.3338 0.54328,0.26027 0.11898,-0.0735 0.30248,0.006 0.40778,0.17608 0.11957,0.19347 0.0768,0.2389 -0.11401,0.121 -0.37758,-0.23336 -0.39055,-0.31626 0.2237,1.42994 0.53204,1.51248 0.72355,1.33571 0.2692,-0.24849 -0.20607,-0.71855 -0.19236,-0.83852 0.0661,-0.57878 0.45118,0.45333 0.29779,4.35666 -0.20977,5.33816 -0.47685,0.92214 -0.49159,1.13877 -0.0594,0.87381 0.19978,-0.12248 0.16591,0.047 -0.0855,0.42802 -0.22895,0.34693 -0.7052,0.80137 -1.05833,1.00987 -0.52037,0.30723 -0.50415,0.26911 0.0855,-0.20112 1.04667,-0.83462 0.90003,-1.22367 -0.15727,-0.41723 -0.48668,0.37121 -1.02949,0.67492 -1.20624,0.67492 -0.17675,0 -0.24778,0.11907 -0.15785,0.26459 0.0899,0.14552 0.12673,0.24533 0.0818,0.2218 -0.045,-0.0235 -0.9152,-0.11283 -1.93384,-0.19844 z m 1.30469,-2.82106 c 0.57474,-0.57473 0.4531,-3.89228 -0.16539,-4.51077 -0.52121,-0.52121 -1.64263,-0.56047 -2.22414,-0.0779 -0.5672,0.47073 -0.40796,3.31388 0.24109,4.30445 0.52373,0.79931 1.50369,0.92894 2.14844,0.28419 z m -0.64323,-0.11272 c 0,-0.14552 0.12609,-0.26458 0.2802,-0.26458 0.1541,0 0.20661,0.11906 0.11667,0.26458 -0.0899,0.14552 -0.21602,0.26458 -0.2802,0.26458 -0.0642,0 -0.11667,-0.11906 -0.11667,-0.26458 z m -1.54573,-1.32292 c 0,-0.3638 0.0601,-0.51263 0.13346,-0.33072 0.0734,0.1819 0.0734,0.47955 0,0.66145 -0.0734,0.18191 -0.13346,0.0331 -0.13346,-0.33073 z m -0.28547,-1.74184 c 0.0127,-0.30822 0.0754,-0.37091 0.15985,-0.15985 0.0764,0.191 0.067,0.4192 -0.0209,0.50712 -0.0879,0.0879 -0.15046,-0.0683 -0.13897,-0.34727 z m 12.68317,5.24757 c -0.002,-0.61846 0.042,-1.12448 0.0982,-1.12448 0.22106,0 0.32086,1.59502 0.11964,1.91208 -0.12824,0.20207 -0.21542,-0.11311 -0.21785,-0.7876 z m -35.70192,-0.74965 c 0.0127,-0.30822 0.0754,-0.37092 0.15985,-0.15985 0.0764,0.191 0.067,0.4192 -0.0209,0.50712 -0.0879,0.0879 -0.15046,-0.0684 -0.13897,-0.34727 z m 19.67969,-0.65701 c -0.0959,-0.1552 -0.11765,-0.33893 -0.0483,-0.40829 0.0694,-0.0693 0.1966,0.0576 0.28278,0.28219 0.1789,0.46622 0.0264,0.54823 -0.23448,0.1261 z m -20.32542,-4.08344 c 0.0838,-0.21828 0.19908,-0.39688 0.25628,-0.39688 0.0572,0 0.10398,0.1786 0.10398,0.39688 0,0.21828 -0.11533,0.39687 -0.25628,0.39687 -0.14095,0 -0.18775,-0.17859 -0.10398,-0.39687 z m 35.8562,-0.66146 c 0,-0.3638 0.0601,-0.51263 0.13346,-0.33073 0.0734,0.1819 0.0734,0.47956 0,0.66146 -0.0734,0.1819 -0.13346,0.0331 -0.13346,-0.33073 z m -16.70242,-0.39687 c 0,-0.14552 0.11542,-0.44318 0.25648,-0.66146 0.14106,-0.21828 0.25648,-0.27781 0.25648,-0.13229 0,0.14552 -0.11542,0.44317 -0.25648,0.66145 -0.14106,0.21829 -0.25648,0.27782 -0.25648,0.1323 z m -19.3938,-0.90484 c -0.11509,-0.44009 -0.0807,-0.54339 0.11568,-0.34705 0.15375,0.15375 0.22749,0.43572 0.16386,0.6266 -0.0661,0.19816 -0.18598,0.0782 -0.27954,-0.27955 z m 12.264,0.14909 c 0.0606,-0.0519 0.52696,-0.17075 1.03628,-0.26421 0.65152,-0.11955 0.80839,-0.0928 0.52917,0.0902 -0.35868,0.23513 -1.82786,0.39841 -1.56545,0.17398 z m 8.18003,-0.14425 c 0,-0.27475 0.50329,-0.6725 0.65238,-0.51556 0.0484,0.051 -0.0786,0.24616 -0.28219,0.4338 -0.2036,0.18764 -0.37019,0.22443 -0.37019,0.0818 z m -11.77208,-0.2876 c -0.0927,-0.14998 0.0135,-0.19434 0.24896,-0.10398 0.45837,0.17589 0.54224,0.36553 0.16165,0.36553 -0.13693,0 -0.32171,-0.11769 -0.41061,-0.26155 z m 0.404,-0.46646 c -1.38145,-0.69688 -1.94075,-1.89287 -2.0742,-4.43537 -0.1478,-2.81597 0.29037,-3.83106 2.01385,-4.66538 2.31267,-1.11955 5.18054,-0.51006 6.23718,1.32554 0.66706,1.15881 0.89149,4.33733 0.40636,5.75503 -0.19355,0.56562 -0.35699,1.1177 -0.3632,1.22684 -0.006,0.10914 -0.0984,0.20329 -0.2049,0.20921 -0.10648,0.006 -0.7018,0.24144 -1.32291,0.52336 -1.41574,0.64259 -3.48569,0.6694 -4.69218,0.0608 z m 3.39833,-2.15687 c 0.21241,-0.13454 0.27818,-0.37082 0.15756,-0.566 -0.13482,-0.21814 -0.10049,-0.26917 0.0984,-0.14626 0.42892,0.26509 0.39911,-2.68463 -0.0358,-3.54426 -0.36853,-0.7284 -0.94675,-0.92862 -1.95266,-0.67616 -0.45217,0.11349 -0.61559,0.29451 -0.51127,0.56634 0.0843,0.21975 0.0483,0.33465 -0.08,0.25534 -0.28834,-0.17821 -0.57334,0.87276 -0.42844,1.5799 0.0587,0.28666 0.17368,0.84029 0.25542,1.2303 0.27377,1.30619 1.48887,1.93923 2.49683,1.3008 z m -0.43553,-1.61303 c 0,-0.50932 0.0544,-0.71768 0.121,-0.46302 0.0666,0.25466 0.0666,0.67138 0,0.92604 -0.0666,0.25466 -0.121,0.0463 -0.121,-0.46302 z m 0.0879,-2.56828 c -0.14359,-0.37708 -0.1132,-0.40747 0.14811,-0.14811 0.18082,0.17947 0.26211,0.39297 0.18065,0.47443 -0.0815,0.0815 -0.2294,-0.0654 -0.32876,-0.32632 z m -12.41936,4.73846 c -0.0717,-0.11609 -0.0211,-0.38398 0.11263,-0.59531 0.18978,-0.3 0.24396,-0.25373 0.24712,0.21107 0.004,0.61199 -0.13026,0.75556 -0.35975,0.38424 z m 47.60007,-0.0835 c -3.68823,-0.53723 -6.75098,-2.04244 -9.89875,-4.8648 -2.05943,-1.84653 -2.06612,-1.85684 -2.23055,-3.43958 -0.0907,-0.87313 -0.40111,-3.73063 -0.68976,-6.35 -0.72325,-6.56321 -0.98504,-8.98392 -1.61666,-14.94896 -0.30047,-2.83766 -0.66742,-5.54157 -0.81546,-6.0087 -0.197,-0.62166 -1.55892,-1.968 -5.08076,-5.02265 -5.68045,-4.92691 -7.04533,-5.901971 -8.26158,-5.901971 -0.85344,0 -0.88898,0.0424 -1.05325,1.256771 -0.0935,0.69122 -0.40198,2.13415 -0.6855,3.2065 -0.28352,1.07235 -0.44464,2.20344 -0.35804,2.51354 0.11783,0.42189 0.092,0.4689 -0.10256,0.18675 -0.21128,-0.30638 -0.3946,-0.2171 -0.97815,0.4764 -0.90593,1.07664 -1.71723,0.95982 -3.26633,-0.47029 -1.03752,-0.95783 -1.06458,-1.02201 -0.60583,-1.43716 0.2641,-0.23901 0.88908,-0.50553 1.38886,-0.59227 0.68066,-0.11814 0.80909,-0.0876 0.5118,0.12162 -0.29453,0.2073 -0.32617,0.3928 -0.12268,0.71939 0.41358,0.66379 0.73781,0.53793 1.22869,-0.47694 0.46465,-0.96065 1.37109,-5.232071 1.15595,-5.447211 -0.22914,-0.22914 -8.08209,0.729249 -8.95132,1.092441 -0.82709,0.34558 -1.83336,1.3282 -2.98268,2.91257 l -0.54392,0.74981 -5.80608,-6.42697 c -3.19334,-3.534838 -7.27843,-8.040568 -9.07798,-10.012733 -3.53088,-3.869591 -4.5229,-5.336046 -5.31032,-7.85 -1.16718,-3.726363 -0.86859,-7.546326 0.88725,-11.350952 0.73538,-1.593443 1.77479,-2.850794 7.32718,-8.863542 3.55862,-3.85368 13.11975,-14.269505 21.24693,-23.146276 8.12719,-8.876771 15.7656,-17.171346 16.97425,-18.432389 2.29564,-2.395151 4.2694,-3.699771 6.99348,-4.622571 1.39532,-0.47267 3.17579,-0.49296 43.25938,-0.49296 39.08655,0 41.96757,0.0308 44.31771,0.47446 11.03037,2.0821 20.72623,6.478818 29.27222,13.273877 18.21922,14.48639 27.43251,38.09957 24.28464,62.240248 -1.38593,10.628537 -4.88828,20.026268 -10.72235,28.770878 -5.95908,8.93198 -13.30302,15.61885 -22.7829,20.74447 -7.3429,3.9702 -16.84712,6.71684 -25.74144,7.43908 -4.13787,0.33601 -68.84433,0.31793 -71.16349,-0.0199 z m 71.97495,-31.29772 c 2.58491,-0.51358 6.86325,-1.93022 8.84712,-2.92947 9.21443,-4.64115 15.81523,-13.34022 18.03097,-23.762677 0.77167,-3.629791 0.84626,-11.003597 0.14888,-14.717695 -1.45812,-7.765647 -6.0812,-15.824914 -11.72764,-20.444444 -5.25144,-4.296372 -11.06617,-6.817925 -17.55777,-7.613918 -3.18136,-0.390095 -48.72773,-0.371746 -50.13952,0.0202 -1.34871,0.374432 -2.90829,1.934016 -3.28273,3.282728 -0.39911,1.437609 -0.41306,61.471156 -0.0146,62.905956 0.29188,1.05104 1.52244,2.63569 2.46778,3.17787 0.87369,0.50109 5.52826,0.5882 29.13402,0.54523 18.96526,-0.0345 22.25135,-0.0978 24.09351,-0.46378 z M -446.99247,88.265682 c 3.03968,0.17789 7.60134,-2.162574 9.78205,-5.018892 4.48556,-5.875256 4.13993,-13.291 -0.86089,-18.470948 -5.67989,-5.883342 -14.34254,-5.845528 -20.00127,0.08731 -2.45037,2.569068 -3.66755,5.788606 -3.66214,9.686635 0.004,2.686063 0.41431,4.381983 1.61236,6.659966 0.82436,1.567467 2.5576,4.92537 7.03951,6.40592 2.73605,0.873671 6.09038,0.650009 6.09038,0.650009 z m 213.37157,57.470668 c -2.05084,-0.31258 -4.62017,-1.68388 -6.37646,-3.40323 -1.40969,-1.38004 -1.90523,-2.24988 -6.46176,-11.34252 -2.71424,-5.41632 -4.93498,-10.10859 -4.93498,-10.42726 0,-0.31867 0.58287,-1.66166 1.29526,-2.98443 0.7124,-1.32277 2.95943,-5.61973 4.99341,-9.54879 2.03398,-3.92905 4.07465,-7.83873 4.53482,-8.688161 3.73766,-6.899347 13.16108,-25.352397 19.88389,-38.936838 14.72562,-29.755311 18.28976,-37.021111 19.05786,-38.851006 1.6593,-3.953088 4.73348,-6.885088 8.67948,-8.278068 l 1.74799,-0.61706 16.03243,-0.006 c 15.19991,-0.005 16.05516,0.0196 16.47031,0.47828 0.24083,0.26612 0.43788,0.75531 0.43788,1.08709 0,0.59811 -3.86548,8.434205 -15.73544,31.898845 -3.38624,6.693958 -9.75906,19.314584 -14.16182,28.045835 -4.40276,8.731254 -8.5102,16.827506 -9.12764,17.991676 -0.61745,1.16417 -3.35727,6.521977 -6.08849,11.906247 -5.00319,9.86319 -7.77399,15.28237 -12.03993,23.54791 -1.27679,2.47385 -3.28589,6.38011 -4.46467,8.68056 -2.51737,4.91277 -3.09373,5.72515 -5.1228,7.22065 -2.45545,1.80976 -5.75644,2.6622 -8.61934,2.22585 z m -206.47073,-0.18385 c 0.19099,-0.0764 0.4192,-0.067 0.50712,0.0209 0.0879,0.0879 -0.0684,0.15046 -0.34727,0.13897 -0.30822,-0.0127 -0.37092,-0.0754 -0.15985,-0.15986 z m -18.45034,-1.03193 c 0.0127,-0.30822 0.0754,-0.37092 0.15985,-0.15985 0.0764,0.19099 0.067,0.4192 -0.0209,0.50712 -0.0879,0.0879 -0.15046,-0.0683 -0.13897,-0.34727 z m 9.99267,-1.19391 c -0.0504,-0.74154 -0.002,-1.40341 0.10676,-1.47082 0.10914,-0.0674 0.19843,0.5393 0.19843,1.34825 0,1.84164 -0.18329,1.91525 -0.30519,0.12257 z m 5.06769,1.01741 c 0,-0.29136 1.03947,-2.57958 1.17182,-2.57958 0.0728,0 -0.10908,0.56311 -0.4041,1.25135 -0.52209,1.218 -0.76772,1.64296 -0.76772,1.32823 z m 14.0647,-0.72749 c 0,-0.3638 0.06,-0.51263 0.13345,-0.33073 0.0734,0.1819 0.0734,0.47956 0,0.66146 -0.0734,0.1819 -0.13345,0.0331 -0.13345,-0.33073 z m -29.41053,-0.92604 c 0,-0.70335 0.0484,-1.22921 0.10764,-1.16858 0.2046,0.20957 0.27287,2.06689 0.0829,2.25682 -0.10482,0.10481 -0.19058,-0.38489 -0.19058,-1.08824 z m -6.59369,0.50711 c 0.0127,-0.30822 0.0754,-0.37091 0.15985,-0.15985 0.0764,0.191 0.067,0.4192 -0.0209,0.50712 -0.0879,0.0879 -0.15045,-0.0684 -0.13896,-0.34727 z m 35.73963,-2.49149 c 0,-0.3638 0.0601,-0.51263 0.13346,-0.33073 0.0734,0.1819 0.0734,0.47956 0,0.66146 -0.0734,0.1819 -0.13346,0.0331 -0.13346,-0.33073 z m -15.64409,-1.45521 c 0,-0.14552 0.11542,-0.44317 0.25648,-0.66146 0.14107,-0.21828 0.25648,-0.27781 0.25648,-0.13229 0,0.14552 -0.11541,0.44318 -0.25648,0.66146 -0.14106,0.21828 -0.25648,0.27781 -0.25648,0.13229 z m -20.77789,-0.92604 c -0.0899,-0.14552 -0.0374,-0.26458 0.11668,-0.26458 0.1541,0 0.28019,0.11906 0.28019,0.26458 0,0.14552 -0.0525,0.26458 -0.11667,0.26458 -0.0642,0 -0.19026,-0.11906 -0.2802,-0.26458 z m 10.03859,-0.64686 c 0.28247,-0.22631 0.69919,-0.40207 0.92604,-0.39058 0.35629,0.018 0.35841,0.0409 0.0156,0.16804 -0.21828,0.0809 -0.635,0.2567 -0.92604,0.39058 -0.5207,0.23953 -0.52095,0.23685 -0.0156,-0.16804 z m 4.3812,-0.0146 c -0.42398,-0.24236 -0.51338,-0.38149 -0.24901,-0.3875 0.22685,-0.005 0.64357,0.16544 0.92604,0.37909 0.65773,0.49748 0.1887,0.50331 -0.67703,0.008 z m -2.4474,-0.5836 c 0.32743,-0.0631 0.86321,-0.0631 1.19063,0 0.32742,0.0631 0.0595,0.11466 -0.59531,0.11466 -0.65485,0 -0.92274,-0.0516 -0.59532,-0.11466 z m -12.17205,-0.67317 c -0.0682,-0.1819 -0.0298,-0.56885 0.0854,-0.85989 0.17049,-0.43092 0.21282,-0.36951 0.22796,0.33073 0.0193,0.89422 -0.10058,1.09673 -0.31335,0.52916 z m 25.68234,-0.37918 c 0.191,-0.0764 0.4192,-0.067 0.50712,0.0209 0.0879,0.0879 -0.0684,0.15045 -0.34727,0.13897 -0.30822,-0.0127 -0.37092,-0.0754 -0.15985,-0.15986 z m -16.41762,-2.65222 c 0.32912,-0.0633 0.80537,-0.0609 1.05834,0.005 0.25296,0.0662 -0.0163,0.118 -0.5984,0.11507 -0.58208,-0.003 -0.78906,-0.0571 -0.45994,-0.12041 z m -2.16457,-0.58362 c 0.06,-0.0601 -0.24289,-0.32333 -0.67306,-0.58493 -0.43017,-0.26161 -1.05449,-0.98633 -1.38738,-1.6105 -0.84259,-1.57987 -0.88397,-5.68224 -0.0715,-7.08799 0.81517,-1.41041 2.50665,-2.17354 4.55516,-2.0551 2.03683,0.11776 2.85915,0.66277 3.81395,2.52777 0.97531,1.90505 1.1702,3.62931 0.62298,5.51168 -0.53895,1.85392 -1.46241,2.77708 -3.23154,3.2305 -1.16772,0.29927 -3.91056,0.35111 -3.62861,0.0686 z m 3.92097,-3.02056 c 0.42377,-0.57095 0.54904,-1.10848 0.52791,-2.26504 -0.0321,-1.7587 -0.47107,-2.80589 -1.49311,-3.56226 -0.59281,-0.43872 -0.86153,-0.48844 -1.45521,-0.26929 -0.40047,0.14784 -0.69542,0.41788 -0.65543,0.6001 0.04,0.18221 -0.0358,0.26423 -0.16846,0.18226 -0.60016,-0.37092 -0.89582,0.68136 -0.77549,2.76002 0.10232,1.76752 0.22681,2.2285 0.75312,2.78872 0.88597,0.94307 2.47747,0.82882 3.26667,-0.23451 z m -3.28084,-0.30973 c -0.18985,-0.22876 -0.21556,-0.39688 -0.0607,-0.39688 0.14777,0 0.3372,0.1786 0.42097,0.39688 0.0838,0.21828 0.11108,0.39687 0.0607,0.39687 -0.0504,0 -0.23981,-0.17859 -0.42097,-0.39687 z m -0.36419,-1.33315 c -0.25531,-0.66534 -0.17999,-0.83702 0.13191,-0.30065 0.15443,0.26557 0.22505,0.5386 0.15693,0.60672 -0.0681,0.0681 -0.1981,-0.0696 -0.28884,-0.30607 z m 3.60592,-0.51893 c 0.003,-0.58209 0.0571,-0.78906 0.1204,-0.45994 0.0633,0.32912 0.0609,0.80537 -0.005,1.05833 -0.0662,0.25297 -0.118,-0.0163 -0.11506,-0.59839 z m -0.31042,-1.87414 c 0.0127,-0.30822 0.0754,-0.37092 0.15985,-0.15985 0.0764,0.191 0.067,0.4192 -0.0209,0.50712 -0.0879,0.0879 -0.15045,-0.0684 -0.13896,-0.34727 z m 6.72599,6.81902 c 0.14552,-0.15067 0.62177,-0.31288 1.05833,-0.36046 0.66189,-0.0721 0.79576,-0.20573 0.80585,-0.80416 0.007,-0.39472 0.0959,-0.80151 0.19844,-0.904 0.10248,-0.10248 0.18633,0.24796 0.18633,0.77876 0,0.8372 -0.0964,0.98656 -0.7276,1.12703 -0.40018,0.0891 -0.96573,0.22377 -1.25677,0.29936 -0.36084,0.0937 -0.445,0.0503 -0.26458,-0.13653 z m -0.99346,-0.61464 c 0.0685,-0.262 -0.14229,-2.80596 -0.46847,-5.65325 -0.32617,-2.84729 -0.51862,-5.25131 -0.42767,-5.34226 0.0909,-0.091 1.58495,-0.30054 3.32,-0.46577 l 3.15463,-0.30042 0.095,0.99651 0.095,0.99651 -1.19693,0.15117 c -3.0886,0.39008 -2.99185,0.34755 -2.81399,1.23683 0.089,0.44511 0.16186,1.04462 0.16186,1.33224 0,0.48689 0.12314,0.51061 1.78593,0.34409 l 1.78594,-0.17885 0.07,1.0428 c 0.0682,1.01672 0.045,1.04693 -0.92604,1.20743 -0.5478,0.0905 -1.32189,0.16592 -1.72022,0.16752 l -0.72423,0.003 0.16987,2.0096 c 0.18712,2.21357 0.0476,2.47683 -1.31671,2.48427 -0.40877,0.002 -0.6819,0.10327 -0.60695,0.22454 0.0749,0.12126 -0.0208,0.22048 -0.21267,0.22048 -0.20578,0 -0.29783,-0.19543 -0.22437,-0.47635 z m 8.2695,-0.2292 c 0,-0.14552 0.11203,-0.26459 0.24897,-0.26459 0.13693,0 0.32255,0.11907 0.41249,0.26459 0.0899,0.14552 -0.0221,0.26458 -0.24897,0.26458 -0.22687,0 -0.41249,-0.11906 -0.41249,-0.26458 z m 1.38906,-0.18239 c 0.25466,-0.0665 0.67138,-0.0665 0.92604,0 0.25466,0.0666 0.0463,0.121 -0.46302,0.121 -0.50932,0 -0.71768,-0.0545 -0.46302,-0.121 z m -21.5027,-0.48546 c -0.18408,-0.2218 -0.28345,-0.45451 -0.22082,-0.51714 0.0626,-0.0626 0.25919,0.11885 0.43682,0.40327 0.38412,0.61508 0.25602,0.68262 -0.216,0.11387 z m 20.37822,-0.12933 c 0,-0.16081 -0.0893,-0.23843 -0.19844,-0.17249 -0.10914,0.0659 -0.23745,-1.02768 -0.28514,-2.43029 -0.091,-2.67747 -0.18163,-3.05117 -0.58509,-2.41321 -0.17905,0.28313 -0.24614,0.13681 -0.24614,-0.53683 0,-0.69441 0.0641,-0.82677 0.25648,-0.52917 0.19432,0.30069 0.25746,0.18621 0.26053,-0.47233 0.002,-0.47806 -0.20431,-1.18783 -0.45897,-1.57727 -0.25466,-0.38943 -0.31419,-0.61634 -0.13229,-0.50424 0.24737,0.15245 0.33073,-0.12398 0.33073,-1.09675 V 119.88 l 2.44739,-0.17781 c 1.34607,-0.0978 2.81056,-0.24273 3.25441,-0.32207 0.7815,-0.1397 0.80899,-0.11091 0.86926,0.91052 0.0688,1.16617 0.13796,1.12738 -2.66846,1.497 -1.11968,0.14747 -1.25677,0.23761 -1.25677,0.82639 0,0.36347 0.0975,0.60059 0.21671,0.52693 0.11919,-0.0737 0.16708,0.20419 0.10643,0.61745 l -0.11028,0.75138 1.74565,-0.14012 1.74566,-0.14012 v 1.09455 c 0,1.02921 -0.0454,1.09456 -0.76068,1.09456 -0.41837,0 -1.14204,0.0763 -1.60815,0.1695 l -0.84748,0.16949 0.18001,2.16092 0.18,2.16091 -1.21769,0.063 c -0.75062,0.0389 -1.21768,-0.0491 -1.21768,-0.22936 z m 2.81081,-0.13909 c -0.0907,-0.23646 -0.15128,-0.74761 -0.13455,-1.13589 0.0228,-0.52877 0.0822,-0.44032 0.23669,0.35237 0.21917,1.12461 0.17089,1.49502 -0.10214,0.78352 z m -8.58006,-1.57727 c 0.005,-0.43657 0.0647,-0.58313 0.13177,-0.3257 0.0671,0.25743 0.0627,0.61462 -0.01,0.79375 -0.0725,0.17913 -0.12736,-0.0315 -0.12197,-0.46805 z m -4.61426,-0.52917 c 0.0696,-0.3638 0.1721,-0.66146 0.2279,-0.66146 0.0558,0 0.10144,0.29766 0.10144,0.66146 0,0.3638 -0.10255,0.66146 -0.22789,0.66146 -0.12534,0 -0.17099,-0.29766 -0.10145,-0.66146 z m -15.35607,0.19844 c -0.0584,-0.10914 -0.0178,-0.4961 0.0903,-0.8599 0.1837,-0.61827 0.19825,-0.60531 0.22291,0.19844 0.0254,0.82945 -0.0913,1.07599 -0.31321,0.66146 z m 16.24649,-0.99219 c 0.0152,-1.2748 0.0249,-1.29139 0.26587,-0.4562 0.16201,0.56154 0.15644,1.02734 -0.0158,1.32291 -0.20247,0.34742 -0.2621,0.14075 -0.25005,-0.86671 z m 3.88723,-0.0485 c 0.191,-0.0764 0.4192,-0.067 0.50712,0.0209 0.0879,0.0879 -0.0684,0.15045 -0.34727,0.13896 -0.30822,-0.0127 -0.37092,-0.0754 -0.15985,-0.15985 z m -4.77765,-1.27447 c -0.0695,-0.3638 -0.0239,-0.66146 0.10145,-0.66146 0.12534,0 0.22789,0.29766 0.22789,0.66146 0,0.3638 -0.0456,0.66146 -0.10144,0.66146 -0.0558,0 -0.15835,-0.29766 -0.2279,-0.66146 z m -15.66665,-0.37859 c -0.0837,-0.13547 -0.0312,-0.32109 0.11668,-0.41249 0.14789,-0.0914 0.2689,0.0194 0.2689,0.2463 0,0.46475 -0.15877,0.53318 -0.38558,0.16619 z m 16.27917,-0.74589 c 0.0142,-0.75576 0.0675,-0.8671 0.22362,-0.46724 0.18904,0.484 0.095,1.45943 -0.14078,1.45943 -0.0558,0 -0.0931,-0.44648 -0.0828,-0.99219 z m 15.49614,0.59532 c -0.0838,-0.21829 -0.037,-0.39688 0.10399,-0.39688 0.14095,0 0.25628,0.17859 0.25628,0.39688 0,0.21828 -0.0468,0.39687 -0.10399,0.39687 -0.0572,0 -0.17251,-0.17859 -0.25628,-0.39687 z m -16.61164,-1.59621 c -0.23139,-0.64348 -0.32606,-1.11146 -0.21037,-1.03996 0.24848,0.15357 0.87601,1.965 0.73097,2.11004 -0.0549,0.0549 -0.2892,-0.4266 -0.5206,-1.07008 z m -10.28018,0.40558 c 0,-0.29104 0.10792,-0.52917 0.23982,-0.52917 0.13189,0 0.17754,0.23813 0.10143,0.52917 -0.0761,0.29104 -0.18403,0.52917 -0.23981,0.52917 -0.0558,0 -0.10144,-0.23813 -0.10144,-0.52917 z m 26.74381,-0.15434 c 0.0127,-0.30822 0.0754,-0.37092 0.15985,-0.15985 0.0764,0.19099 0.067,0.4192 -0.0209,0.50712 -0.0879,0.0879 -0.15045,-0.0683 -0.13896,-0.34727 z m -26.08235,-1.43316 c 0.0899,-0.14552 0.21603,-0.26458 0.2802,-0.26458 0.0642,0 0.11668,0.11906 0.11668,0.26458 0,0.14552 -0.12609,0.26458 -0.2802,0.26458 -0.15411,0 -0.20661,-0.11906 -0.11668,-0.26458 z m 13.89063,-0.10334 c 0,-0.0568 0.41672,-0.152 0.92604,-0.21146 0.50932,-0.0595 0.92604,-0.0129 0.92604,0.10335 0,0.1163 -0.41672,0.21145 -0.92604,0.21145 -0.50932,0 -0.92604,-0.0465 -0.92604,-0.10334 z m 3.175,-0.39451 c 0.82859,-0.14639 0.92769,-0.25344 0.94178,-1.01719 0.0203,-1.10075 0.38113,-1.48209 0.38113,-0.40278 0,1.37145 -0.22646,1.65666 -1.28507,1.61841 l -0.96388,-0.0348 z m 6.0358,-0.47664 c 0.191,-0.0764 0.4192,-0.067 0.50712,0.0209 0.0879,0.0879 -0.0684,0.15045 -0.34726,0.13896 -0.30823,-0.0127 -0.37092,-0.0754 -0.15986,-0.15985 z m 1.7083,-0.2672 c 0.25743,-0.0671 0.61461,-0.0627 0.79375,0.01 0.17913,0.0725 -0.0315,0.12736 -0.46806,0.12197 -0.43656,-0.005 -0.58313,-0.0647 -0.32569,-0.13178 z m -30.86246,-1.0175 c -0.25532,-0.66534 -0.18,-0.83702 0.13191,-0.30065 0.15443,0.26557 0.22505,0.5386 0.15693,0.60672 -0.0681,0.0681 -0.1981,-0.0696 -0.28884,-0.30607 z m 10.63333,-0.3028 c 0.191,-0.0764 0.4192,-0.067 0.50712,0.0209 0.0879,0.0879 -0.0684,0.15045 -0.34727,0.13896 -0.30822,-0.0127 -0.37092,-0.0754 -0.15985,-0.15985 z m 21.80683,-0.87759 c 0,-0.50933 0.0544,-0.71768 0.121,-0.46302 0.0666,0.25466 0.0666,0.67138 0,0.92604 -0.0666,0.25466 -0.121,0.0463 -0.121,-0.46302 z m -14.54229,0.34581 c 0.25743,-0.0671 0.61462,-0.0627 0.79375,0.01 0.17913,0.0725 -0.0315,0.12737 -0.46805,0.12197 -0.43657,-0.005 -0.58313,-0.0647 -0.3257,-0.13177 z m 2.52504,-0.26197 c 0.191,-0.0764 0.4192,-0.067 0.50712,0.0209 0.0879,0.0879 -0.0684,0.15045 -0.34726,0.13896 -0.30823,-0.0127 -0.37092,-0.0754 -0.15986,-0.15985 z m 5.41246,-0.53178 c 0.25743,-0.0671 0.61462,-0.0627 0.79375,0.01 0.17913,0.0725 -0.0315,0.12737 -0.46805,0.12197 -0.43657,-0.005 -0.58313,-0.0647 -0.3257,-0.13177 z m 2.17064,-0.0928 c -0.086,-0.13917 0.0888,-0.25303 0.3884,-0.25303 0.63885,0 0.7033,0.14714 0.15638,0.35701 -0.21362,0.082 -0.45877,0.0352 -0.54478,-0.10398 z m -28.11941,-0.64991 c 0.005,-0.43656 0.0647,-0.58312 0.13178,-0.32569 0.0671,0.25743 0.0627,0.61462 -0.01,0.79375 -0.0725,0.17913 -0.12736,-0.0315 -0.12197,-0.46806 z m 31.36769,0.22165 c 0.18191,-0.0734 0.47956,-0.0734 0.66146,0 0.1819,0.0734 0.0331,0.13345 -0.33073,0.13345 -0.3638,0 -0.51263,-0.0601 -0.33073,-0.13345 z m -31.80484,-4.83357 c -0.0837,-0.13547 -0.0312,-0.32109 0.11667,-0.41249 0.1479,-0.0914 0.2689,0.0194 0.2689,0.2463 0,0.46475 -0.15876,0.53318 -0.38557,0.16619 z m 16.52516,-3.19329 c 0,-0.14552 0.29063,-0.26458 0.64584,-0.26458 0.35521,0 0.71943,0.11906 0.80937,0.26458 0.0954,0.15437 -0.17365,0.26459 -0.64585,0.26459 -0.44515,0 -0.80936,-0.11907 -0.80936,-0.26459 z m -0.78609,-0.25424 c -0.21407,-0.13538 -0.32033,-0.31503 -0.23614,-0.39922 0.0842,-0.0842 0.30368,0.0284 0.48775,0.2502 0.38169,0.4599 0.3085,0.50324 -0.25161,0.14902 z m 3.42245,-0.49602 c 0.17431,-0.33989 0.38949,-0.54541 0.47818,-0.45672 0.0887,0.0887 -0.0539,0.36677 -0.31693,0.61797 -0.45713,0.43662 -0.46423,0.42953 -0.16125,-0.16125 z m -17.18845,-0.0435 c 0,-0.14552 0.12609,-0.26458 0.2802,-0.26458 0.15411,0 0.20662,0.11906 0.11668,0.26458 -0.0899,0.14552 -0.21603,0.26459 -0.2802,0.26459 -0.0642,0 -0.11668,-0.11907 -0.11668,-0.26459 z m 12.34723,-0.97013 c -0.097,-0.097 -0.17639,-0.29942 -0.17639,-0.4498 0,-0.16579 0.12323,-0.15016 0.31309,0.0397 0.1722,0.1722 0.25157,0.37461 0.17639,0.44979 -0.0752,0.0752 -0.21608,0.0573 -0.31309,-0.0397 z m 5.9606,-1.54341 c 0.005,-0.43656 0.0647,-0.58312 0.13178,-0.32569 0.0671,0.25743 0.0627,0.61462 -0.01,0.79375 -0.0725,0.17913 -0.12736,-0.0315 -0.12197,-0.46806 z m -15.39741,-1.16232 c 0,-0.12994 0.19543,-0.31126 0.4343,-0.40292 0.36313,-0.13934 0.3795,-0.10063 0.0999,0.23628 -0.38103,0.45911 -0.53419,0.50689 -0.53419,0.16664 z m 0.79375,-1.05832 c 0,-0.12995 0.19543,-0.31127 0.4343,-0.40293 0.36313,-0.13935 0.3795,-0.10063 0.0999,0.23628 -0.38103,0.45911 -0.53419,0.50689 -0.53419,0.16665 z"
       id="path151"
       sodipodi:nodetypes="ssssscsscccsccssssssssssssssccsccsssssscssssssssssssssssssssssssscssssssssssssssssssssssssssssscsssssssssssssscsssssssssssssssssssssssssssssssssssssssssssssssssssssssssssssssssssssssssssssssssssssscssssssssssssssssssssssssscssssssssssssssssssssssscssssssssscsssssssssssssssssssssssscssscsssssssssccsssssssssccssssssssssscssssssssssscsssssssssssssssssssssssssssccsccssssssssssssssccsccsssssssssssssssssssssssssssscscccssssssscssssssssscccsssscssccscsssssssssscsssssssssssscssscssssssscccsssccccsssssscscccsssssssssssssssssssssssssssssssssssssssssssssssssssssssssssssssssscsssssscccccssssssssssssscccccssssscccccsssscscccsssssssssssssssssssssssssssssssscscccssssssssss" /><g
       id="g169"
       transform="translate(-12.023337,-78.353777)"
       style="display:inline"><path
         style="display:inline;fill:#f51816;fill-opacity:1"
         d="m -440.7054,160.43052 c -0.56434,-0.0112 -1.12375,0.22975 -1.64228,0.74827 -0.41224,0.41224 -0.90083,1.27544 -1.08572,1.91823 -0.18489,0.64278 -0.66306,1.36884 -0.59852,1.40756 2.07953,1.24761 1.40499,1.17333 2.24148,-1.1816 0.53754,-1.51332 1.03838,-1.60481 1.94665,-0.62477 1.61941,1.74736 2.94568,10.61147 2.3533,13.57333 -0.14912,0.74562 -0.26048,0.82683 -1.13533,0.82683 -1.54905,0 -7.20993,0.7988 -7.76438,1.09554 -0.27805,0.14837 -0.56069,0.21498 -0.62839,0.14728 -0.1901,-0.1901 -1.81587,1.43277 -2.40037,2.39623 0,0 -6.70775,9.21803 -7.1044,10.25664 -0.42017,1.10018 -0.4378,1.55418 -0.17157,4.44676 0.60261,6.54735 3.00298,28.55592 4.30413,39.46426 0.58389,4.89515 0.85952,5.67295 2.3797,6.71225 h 5.2e-4 c 0.85475,0.58436 1.07097,0.6128 3.46439,0.45372 1.40415,-0.0933 5.33321,-0.45538 8.73125,-0.8046 3.39804,-0.34923 8.73827,-0.88594 11.86697,-1.1927 3.1287,-0.30675 6.07203,-0.61653 6.54069,-0.68833 1.18706,-0.18178 2.3356,-1.2339 2.86752,-2.62671 0.43197,-1.13112 0.4216,-1.4682 -0.24598,-8.26048 -0.56583,-8.06903 -1.52167,-16.09522 -2.27273,-24.14736 -0.72085,-7.95954 -1.69471,-15.80461 -2.04793,-16.49667 -0.41855,-0.82006 -2.00954,-2.35423 -5.10615,-4.92321 -1.09141,-0.90545 -2.52016,-2.15011 -3.175,-2.76572 -1.79838,-1.69063 -3.83866,-2.99776 -4.97954,-3.19051 l -1.02164,-0.1726 c 0.80989,-3.97866 -0.65157,-7.92542 -1.50694,-11.77497 -0.89571,-2.89192 -2.36843,-4.56685 -3.81062,-4.59558 z"
         id="path158"
         sodipodi:nodetypes="sssssssscscsssccssssssssssscsss" /><path
         style="display:inline;fill:#ffffff"
         d="m -428.61311,224.22869 c 0.26142,-0.009 0.53659,-0.006 0.8263,0.0109 1.31367,0.0742 2.02764,0.25594 2.55695,0.65113 2.02629,1.51285 2.72647,5.61166 1.32137,7.73492 -0.39412,0.59555 -1.18759,1.32304 -1.76372,1.61696 -2.05052,1.0461 -4.90005,0.51068 -6.09575,-1.14567 -1.16592,-1.61509 -1.42028,-4.81359 -0.52917,-6.65437 0.70074,-1.44754 1.85401,-2.1488 3.68402,-2.21382 z"
         id="path168" /><path
         style="display:inline;fill:#f51816;fill-opacity:1"
         d="m -428.24725,226.92362 c -0.48861,0.0198 -0.90542,0.3424 -1.04076,0.8816 -0.221,0.88056 0.0673,3.22666 0.45372,3.69228 0.40886,0.49265 1.42705,0.46845 1.942,-0.0465 0.77823,-0.77823 0.31242,-3.83581 -0.66404,-4.35839 -0.23214,-0.12424 -0.46882,-0.17798 -0.69092,-0.16898 z"
         id="path169" /><path
         style="display:inline;fill:#ffffff"
         d="m -442.2066,215.59408 c 0.50464,-0.0354 1.02613,0.005 1.55443,0.12557 2.3866,0.54466 3.38926,2.04203 3.53777,5.28236 0.0934,2.03767 0.0416,2.35764 -0.51677,3.17759 -0.34151,0.50146 -0.99425,1.1298 -1.45056,1.3963 -0.4563,0.2665 -1.58685,0.54681 -2.5125,0.62321 -1.43301,0.11823 -1.83839,0.0485 -2.72697,-0.47025 -1.5695,-0.91626 -2.0864,-2.01469 -2.20917,-4.69326 -0.0936,-2.04262 -0.0422,-2.35669 0.52245,-3.18585 0.9266,-1.36069 2.28741,-2.14954 3.80132,-2.25567 z"
         id="path165" /><path
         style="display:inline;fill:#ffffff"
         d="m -428.37799,214.56675 c 0.0455,0.0258 -1.15846,2.76797 -2.6758,6.09368 -1.51735,3.3257 -3.63539,7.99445 -4.70618,10.37508 -1.35433,3.01101 -2.10987,4.38834 -2.48305,4.52531 -0.74794,0.27453 -2.95319,0.54789 -3.11505,0.38602 -0.0735,-0.0735 0.69592,-1.94433 1.70997,-4.15737 1.01405,-2.21304 2.34879,-5.15514 2.96623,-6.53759 0.61743,-1.38245 1.92888,-4.31927 2.91403,-6.52673 l 1.79111,-4.01371 1.75803,-0.0956 c 0.96691,-0.0528 1.79521,-0.0749 1.84071,-0.0491 z"
         id="path164" /><path
         style="display:inline;fill:#f51816;fill-opacity:1"
         d="m -441.79112,218.4709 c -0.31241,-0.006 -0.63697,0.12537 -0.91364,0.40205 -0.44249,0.44247 -0.54318,0.83555 -0.49558,1.92959 0.0329,0.75565 0.24001,1.64951 0.46044,1.98593 0.46143,0.70423 1.48201,0.80933 1.98386,0.20464 0.38817,-0.46772 0.37754,-3.10619 -0.0155,-3.8406 -0.23617,-0.4413 -0.6179,-0.67443 -1.01957,-0.68161 z"
         id="path166" /><path
         style="display:inline;fill:#ffffff"
         d="m -445.52629,199.3346 c 1.30953,0 3.05489,0.68805 3.75997,1.48208 1.64255,1.84977 2.16969,5.80592 1.05834,7.94267 -0.66659,1.28162 -1.61346,2.02676 -3.09852,2.43809 -1.55525,0.43077 -2.50905,0.36381 -3.78272,-0.26665 -2.04077,-1.01015 -2.97064,-2.87556 -2.95124,-5.91953 0.0112,-1.75087 0.46929,-3.31321 1.21853,-4.15582 0.73797,-0.82995 2.46257,-1.52084 3.79564,-1.52084 z"
         id="path162" /><path
         style="display:inline;fill:#f41716;fill-opacity:1"
         d="m -445.63533,202.00834 c -0.27273,0.008 -0.52258,0.13309 -0.88367,0.40463 -0.69711,0.52423 -0.72633,0.64183 -0.71933,2.85874 0.007,2.19525 0.0445,2.34398 0.74207,2.944 v 5.2e-4 c 0.92979,0.7996 1.54149,0.7974 2.47633,-0.008 0.6886,-0.59347 0.74092,-0.7758 0.72192,-2.52129 -0.0228,-2.1003 -0.53659,-3.12331 -1.79317,-3.57084 -0.20892,-0.0744 -0.38051,-0.11206 -0.54415,-0.10749 z"
         id="path163" /><path
         style="display:inline;fill:#ffffff"
         d="m -432.45577,198.29694 c 0.0472,0.0551 0.14937,0.60057 0.22737,1.21233 l 0.14211,1.11208 -1.2299,0.15606 c -2.98859,0.37935 -3.01398,0.38847 -2.84737,1.00976 0.0853,0.3181 0.15665,0.80066 0.15865,1.07228 0.003,0.44174 0.18266,0.48221 1.70119,0.38551 1.6959,-0.10799 1.69788,-0.10695 1.85208,0.66404 0.32337,1.61687 0.27639,1.67596 -1.47795,1.85932 -0.89772,0.0938 -1.66695,0.20503 -1.70945,0.24753 -0.0425,0.0425 0.0207,0.96505 0.14056,2.05 0.11987,1.08495 0.19123,2.00601 0.15813,2.04691 -0.0331,0.0409 -0.66908,0.14641 -1.41335,0.23461 -1.02902,0.12187 -1.37968,0.0723 -1.46348,-0.20671 -0.0606,-0.20181 -0.30945,-2.33144 -0.55294,-4.73253 -0.24348,-2.40109 -0.50766,-4.85526 -0.58756,-5.45393 l -0.14521,-1.0883 3.48041,-0.33487 c 1.91441,-0.18401 3.51951,-0.28919 3.56671,-0.23409 z"
         id="path161" /><path
         style="display:inline;fill:#ffffff"
         d="m -425.18128,197.46805 c 1.19677,0.0465 1.35082,0.49917 1.35082,1.59577 0,0.70215 -0.0894,0.76764 -1.25677,0.92139 -2.54992,0.33584 -2.71198,0.39887 -2.71198,1.05678 0,1.32651 0.18455,1.4436 2.00815,1.27331 l 1.69602,-0.15865 v 1.2113 c 0,1.35171 -0.13136,1.44954 -2.08256,1.55546 l -1.15652,0.063 0.17518,2.16008 0.17518,2.16007 -0.83767,0.16744 c -1.12868,0.22572 -2.09432,0.21137 -2.09496,-0.031 -2.9e-4,-0.10914 -0.16844,-1.86531 -0.37362,-3.9026 -0.20519,-2.03729 -0.44866,-4.55112 -0.54106,-5.58623 l -0.16795,-1.88205 2.34508,-0.30076 c 1.66091,-0.213 2.75459,-0.33122 3.47266,-0.30334 z"
         id="path160" /><path
         style="display:inline;fill:none"
         d="m -441.88724,183.79137 c 0.0494,-0.002 0.0651,0.0801 0.0651,0.24132 0,0.23186 0.35719,0.54649 0.79375,0.69867 0.43657,0.15219 0.79375,0.39611 0.79375,0.5426 0,0.1465 0.43795,0.34868 0.97307,0.44907 0.84672,0.15884 1.05269,0.09 1.5875,-0.53175 0.67156,-0.78074 0.78642,-0.70866 0.30644,0.19224 -0.27833,0.52242 -0.26563,0.54323 0.13229,0.21497 0.3938,-0.32484 0.44029,-0.27781 0.44029,0.44804 0,0.51083 -0.25732,1.08654 -0.69454,1.55391 -0.24468,0.26156 -0.39715,0.40321 -0.42478,0.40152 h -5.1e-4 -5.2e-4 l -5.2e-4,-5.2e-4 h -5.1e-4 l -5.2e-4,-5.1e-4 h -5.2e-4 v -5.2e-4 l -5.1e-4,-5.2e-4 c -0.005,-0.0111 0.021,-0.0575 0.0806,-0.14056 0.28747,-0.40058 0.2848,-0.52154 -0.016,-0.70745 -0.30657,-0.18946 -0.30538,-0.29922 0.009,-0.70745 0.11132,-0.14463 0.16517,-0.22684 0.15761,-0.24598 v -5.1e-4 l -5.2e-4,-5.2e-4 v -5.2e-4 l -5.1e-4,-5.1e-4 -5.2e-4,-5.2e-4 -5.2e-4,-5.2e-4 -5.1e-4,-5.1e-4 h -5.2e-4 c -0.0265,-0.009 -0.16904,0.0988 -0.43615,0.32866 -1.07421,0.92428 -1.81792,1.20561 -2.68614,1.01492 -0.63691,-0.1399 -0.76965,-0.1015 -0.61702,0.18035 0.0217,0.0401 0.0301,0.0644 0.0264,0.0734 -1.8e-4,3e-4 -8.2e-4,0.001 -10e-4,0.002 l -5.2e-4,5.1e-4 h -5.2e-4 v 5.2e-4 l -5.2e-4,5.2e-4 h -5.1e-4 c -0.031,0.0121 -0.22622,-0.18025 -0.51005,-0.51108 -0.77778,-0.90658 -0.91165,-2.34362 -0.29455,-3.1595 0.16833,-0.22257 0.26756,-0.33149 0.32349,-0.33331 z"
         id="path159" /></g></g></svg>
