<?xml version="1.0" encoding="UTF-8" standalone="no"?>
<!-- Created with Inkscape (http://www.inkscape.org/) -->

<svg
   width="512"
   height="229.00002"
   viewBox="0 0 135.46667 60.589587"
   version="1.1"
   id="svg1"
   xml:space="preserve"
   inkscape:version="1.4.4 (dcaf3e7, 2026-05-05)"
   sodipodi:docname="Logo-light.svg"
   xmlns:inkscape="http://www.inkscape.org/namespaces/inkscape"
   xmlns:sodipodi="http://sodipodi.sourceforge.net/DTD/sodipodi-0.dtd"
   xmlns="http://www.w3.org/2000/svg"
   xmlns:svg="http://www.w3.org/2000/svg"><sodipodi:namedview
     id="namedview1"
     pagecolor="#505050"
     bordercolor="#ffffff"
     borderopacity="1"
     inkscape:showpageshadow="0"
     inkscape:pageopacity="0"
     inkscape:pagecheckerboard="1"
     inkscape:deskcolor="#505050"
     inkscape:document-units="mm"
     inkscape:zoom="1"
     inkscape:cx="271.5"
     inkscape:cy="154.5"
     inkscape:window-width="1920"
     inkscape:window-height="1009"
     inkscape:window-x="-8"
     inkscape:window-y="-8"
     inkscape:window-maximized="1"
     inkscape:current-layer="layer1"
     showgrid="false" /><defs
     id="defs1"><rect
       x="-2296"
       y="-1248"
       width="5672"
       height="1240"
       id="rect13" /></defs><g
     inkscape:label="Camada 1"
     inkscape:groupmode="layer"
     id="layer1"
     transform="translate(1004.9957,215.42417)"><g
       id="g1"><g
         id="g11"
         transform="matrix(0.41559604,0,0,0.41578844,-982.29904,-232.34364)"><path
           style="fill:#00cde6;fill-opacity:1"
           d="m 171.41591,136.83269 c -0.27758,-0.1765 -14.98542,-29.42143 -20.4831,-40.728413 -1.14754,-2.36012 -2.45077,-5.45574 -2.89607,-6.87916 -0.44529,-1.42342 -1.09018,-3.481 -1.4331,-4.57241 -0.78681,-2.50423 -3.92039,-9.54755 -5.83937,-13.12511 -4.55744,-8.49644 -11.17646,-16.48956 -18.34586,-22.15443 -1.49128,-1.178327 -1.83519,-1.637161 -2.97656,-3.971131 -0.70976,-1.451379 -1.29047,-2.803667 -1.29047,-3.005083 0,-0.201417 0.30111,-0.667317 0.66912,-1.035333 l 0.66912,-0.669121 13.02307,0.103667 13.02307,0.103666 2.38125,0.72634 c 5.91368,1.803818 10.67849,5.198809 13.71326,9.770881 0.54561,0.822 2.40109,4.384312 4.12328,7.916247 3.94093,8.082197 9.74251,19.873797 16.92271,34.395117 3.07434,6.21757 5.58971,11.537853 5.58971,11.822833 0,0.28499 -0.87871,2.22258 -1.95269,4.30575 -1.07398,2.08317 -4.54218,8.84774 -7.70712,15.03238 -3.16493,6.18463 -5.93608,11.45315 -6.15811,11.70781 -0.44822,0.51411 -0.57579,0.54569 -1.03214,0.2555 z"
           id="path6"
           inkscape:label="Ciano" /><path
           style="fill:#001537;fill-opacity:1"
           d="m 194.46968,174.52146 c -2.14236,-0.70516 -4.40648,-2.12948 -5.73261,-3.60629 -1.04839,-1.16752 -2.36917,-3.54673 -6.32383,-11.3915 -3.66202,-7.26426 -4.96549,-10.09262 -4.87457,-10.57721 0.12178,-0.64912 4.00205,-8.31333 11.25215,-22.225 6.93879,-13.31433 13.01408,-25.24924 18.90759,-37.143953 19.61128,-39.580975 21.2744,-42.834468 22.57465,-44.161962 1.72973,-1.765957 4.02093,-3.246206 6.1074,-3.945738 1.73743,-0.582508 1.95973,-0.590332 17.75168,-0.624871 l 15.99221,-0.03498 0.61039,0.61039 c 0.33572,0.335715 0.6104,0.880635 0.6104,1.210934 0,0.580261 -3.97329,8.592747 -21.10028,42.550593 -9.5791,18.992567 -15.68447,31.011267 -25.20101,49.609367 -1.56371,3.05594 -4.63884,9.0686 -6.83362,13.36146 -10.34473,20.23366 -11.01495,21.46086 -12.60016,23.07131 -0.96706,0.98245 -2.18563,1.86016 -3.45041,2.48525 -1.71033,0.84529 -2.24743,0.97883 -4.28649,1.06576 -1.49019,0.0635 -2.71801,-0.0279 -3.40349,-0.25357 z"
           id="path5"
           inkscape:label="V" /><path
           id="path4"
           style="fill:#001537;fill-opacity:1"
           d="m 44.274817,41.335978 c -47.2199352,-0.100066 -44.28121181,-0.20267 -47.8373902,1.666048 -2.095057,1.100922 -2.7320854,1.74337 -13.8849408,13.998112 -8.334337,9.157754 -15.454277,16.906216 -21.033341,22.890076 -9.349361,10.02773 -11.276268,12.06654 -11.700061,12.38064 -0.961858,0.71288 -2.897436,3.794149 -3.553789,5.657019 -1.025397,2.910307 -1.16975,7.083407 -0.341064,9.874847 0.722834,2.43487 2.108139,4.70019 4.206462,6.8802 0.840408,0.87313 3.645853,3.96875 6.234761,6.87917 2.588908,2.91041 7.039885,7.90371 9.890869,11.09596 2.850983,3.19226 5.658825,6.34741 6.239413,7.01146 1.518323,1.73658 4.373178,4.92854 12.319661,13.77487 3.856195,4.29286 8.7264004,9.74925 10.8225954,12.12536 2.279479,2.58388 4.47043385,4.79065 5.4513468,5.49062 2.7240669,1.94385 5.6147265,3.00936 9.5348188,3.51503 1.005461,0.12969 17.822157,0.21409 37.412703,0.18759 34.848963,-0.0472 35.657741,-0.0598 39.026042,-0.60772 4.432779,-0.72107 6.147417,-1.12713 10.186458,-2.41277 4.416879,-1.40591 5.612449,-1.89225 9.657289,-3.92793 12.54485,-6.31355 22.33546,-16.204 28.64993,-28.9419 3.42003,-6.89907 5.51048,-13.5798 6.57583,-21.01474 0.66642,-4.6512 0.67517,-15.05665 0.016,-19.325433 -1.27475,-8.25546 -4.22602,-16.841743 -8.20157,-23.863143 C 130.74768,69.019134 125.58407,62.37217 121.5192,58.672388 112.58612,50.541643 104.47026,45.947372 94.003564,43.095561 87.426176,41.303458 91.149193,41.435308 44.274817,41.335978 Z m 10.753865,32.253329 c 17.227623,-0.05871 25.058593,0.0059 26.742554,0.220658 2.927585,0.37334 7.13882,1.739199 10.312032,3.344499 7.682049,3.88629 13.637142,10.848058 16.485812,19.272208 1.32403,3.915468 1.67716,6.011858 1.8278,10.847918 0.11854,3.80558 0.0548,4.99978 -0.416,7.75973 -1.2068,7.07476 -3.63302,12.19452 -8.31112,17.53795 -4.092331,4.67435 -9.678805,8.04805 -16.458941,9.93996 l -2.645833,0.73846 -25.664583,0.0734 c -27.908296,0.0802 -26.246575,0.16021 -27.881502,-1.34049 -1.411923,-1.296 -1.354957,0.11477 -1.354957,-33.55867 0,-30.662531 0.01013,-31.299024 0.525033,-32.353584 0.288883,-0.59164 0.965098,-1.373562 1.502234,-1.737362 l 0.976168,-0.661458 z m -74.66521,15.580961 c 1.963222,0.01842 3.964408,0.481021 5.893181,1.403015 4.8586438,2.32254 7.6381165,6.897341 7.6553465,12.600267 0.011888,3.93472 -1.1793301,6.87471 -3.8917521,9.60406 -1.8184284,1.82978 -4.0464584,3.13083 -6.4202804,3.74913 -8.473379,2.20704 -16.790189,-4.46547 -16.790189,-13.47101 0,-4.054938 1.542632,-7.554961 4.563029,-10.351311 2.551655,-2.362388 5.71863,-3.564848 8.990665,-3.534151 z"
           inkscape:label="D" /></g><g
         id="g10"
         transform="matrix(0.11071633,-0.04268889,0.04266914,0.11076759,-977.36184,-198.98269)"><path
           style="fill:#f31614;fill-opacity:1"
           d="m -219.21557,313.08924 c -10.16391,-0.80101 -17.70067,-8.07711 -19.03642,-18.37807 -0.23139,-1.78442 -0.28837,-24.49695 -0.22733,-90.61979 l 0.0815,-88.23855 0.71596,-2.59386 c 0.39378,-1.42662 1.13985,-3.47517 1.65795,-4.55233 1.63625,-3.4019 2.81885,-4.78851 15.33784,-17.983786 2.48229,-2.61637 5.64435,-5.95109 7.02679,-7.41047 16.84133,-17.77858 17.44101,-18.36135 20.47778,-19.90019 0.7168,-0.36323 2.44496,-0.96315 3.84035,-1.33314 l 2.53708,-0.67272 23.41563,-0.0288 c 21.97348,-0.0271 23.54598,0.002 25.53229,0.46443 2.64076,0.61541 4.99373,1.66683 7.11045,3.17729 1.7911,1.27809 8.86723,8.57185 25.31651,26.09507 13.123769,13.980606 14.500809,15.853006 16.182469,22.003646 l 0.60307,2.20574 v 89.95833 89.95834 l -0.59793,2.24895 c -0.32886,1.23693 -1.15589,3.38006 -1.83784,4.7625 -1.04601,2.12046 -1.61481,2.88594 -3.63717,4.8948 -1.31849,1.30968 -3.07974,2.78192 -3.91388,3.27164 -2.238499,1.3142 -5.579219,2.37491 -8.423129,2.67443 -2.92541,0.3081 -108.24982,0.30488 -112.16193,-0.003 z m 61.28836,-205.69573 c 2.32036,-1.14679 4.17268,-2.74575 5.40437,-4.66519 1.12873,-1.75898 2.10146,-4.924236 2.08834,-6.795466 -0.0105,-1.49843 -0.014,-1.50502 -0.40996,-0.77482 -0.21965,0.40505 -0.62868,1.63306 -0.90895,2.7289 -1.3083,5.115396 -4.21192,7.936566 -9.24961,8.986956 -2.6189,0.54605 -6.201,0.36336 -7.54484,-0.3848 -0.58208,-0.32407 -0.84379,-0.52405 -0.58157,-0.44441 0.29492,0.0896 0.41086,0.0382 0.30397,-0.13479 -0.095,-0.15378 -0.35786,-0.20858 -0.58404,-0.12178 -1.08745,0.41729 -4.04184,-2.84091 -5.53666,-6.106026 -0.5898,-1.2883 -0.7302,-2.02802 -0.82241,-4.33305 -0.12875,-3.21839 0.32085,-5.40988 1.5539,-7.57425 0.88757,-1.55795 0.96217,-1.89635 0.309,-1.40178 -0.25466,0.19282 0.0126,-0.15485 0.59384,-0.7726 2.89417,-3.0758 8.2642,-4.72808 12.52943,-3.85514 6.72644,1.37667 10.96832,6.53419 10.96986,13.33777 2.9e-4,1.29306 -0.19206,2.96427 -0.45255,3.93187 -0.24918,0.92561 -0.40307,1.732896 -0.34198,1.793986 0.0611,0.0611 0.38846,-0.51762 0.72749,-1.286036 0.83093,-1.8833 1.0325,-6.214 0.40351,-8.66918 -1.39318,-5.43812 -6.12413,-9.42134 -12.4572,-10.48834 l -2.64584,-0.44578 -2.68924,0.6799 c -1.7527,0.44312 -3.1809,0.99472 -4.10104,1.5839 -4.98115,3.18954 -7.96021,10.65081 -6.47096,16.20697 0.34953,1.30404 0.35625,1.26816 0.47112,-2.51354 0.10575,-3.48116 0.18614,-3.99964 0.86807,-5.59848 0.41335,-0.96911 1.03237,-2.10021 1.37562,-2.51354 0.52723,-0.6349 0.482,-0.44357 -0.29145,1.23285 -0.60782,1.31744 -1.02446,2.75381 -1.23966,4.27372 -0.29845,2.1079 -0.27833,2.47027 0.25384,4.57195 0.78599,3.104056 1.6605,4.713616 3.72458,6.855166 2.90075,3.00962 5.24819,3.92555 9.73329,3.79775 2.81787,-0.0803 3.05408,-0.1322 5.01773,-1.10269 z m -16.46219,-2.4337 c -0.51879,-0.67965 -1.31029,-1.95957 -1.7589,-2.84427 -0.44861,-0.8847 -0.86931,-1.45194 -0.93489,-1.26053 -0.2095,0.61143 1.50819,3.70158 2.52214,4.53736 0.53591,0.44175 1.006,0.80317 1.04465,0.80317 0.0386,0 -0.35421,-0.55608 -0.873,-1.23573 z m 15.32871,0.21576 c 2.00667,-0.98788 4.02105,-3.04046 5.05217,-5.148 2.62434,-5.363976 0.30238,-11.999426 -5.09353,-14.555686 -1.60601,-0.76083 -2.00949,-0.83971 -4.28643,-0.83795 -2.25833,0.002 -2.68944,0.0851 -4.24587,0.82091 -4.02727,1.90391 -6.34133,5.44907 -6.33433,9.70426 0.006,3.52767 0.99793,5.972226 3.2646,8.043826 2.40383,2.19697 4.68825,3.037 7.8938,2.90271 1.64334,-0.0688 2.36262,-0.24726 3.74959,-0.93007 z m 6.55711,-15.494506 c -0.72801,-1.64577 -0.94017,-1.54649 -0.24904,0.11654 0.3038,0.73103 0.60481,1.2767 0.6689,1.21261 0.0641,-0.0641 -0.12484,-0.66221 -0.41986,-1.32915 z m -12.80864,-10.10372 c -0.0879,-0.0879 -0.31613,-0.0973 -0.50712,-0.0209 -0.21107,0.0845 -0.14837,0.14715 0.15985,0.15985 0.27892,0.0115 0.43519,-0.051 0.34727,-0.13897 z m 1.98988,-0.27995 c -0.1819,-0.0734 -0.47955,-0.0734 -0.66145,0 -0.18191,0.0734 -0.0331,0.13345 0.33072,0.13345 0.36381,0 0.51263,-0.0601 0.33073,-0.13345 z"
           id="path7" /><path
           id="path8"
           style="fill:#000000;stroke-width:0.426246"
           d="m -149.40296,10.030853 c -3.32992,0.07217 -6.06554,0.65557 -9.10177,1.94045 -1.67586,0.709193 -4.3248,2.305636 -5.85804,3.53105 -5.46019,4.363928 -12.44932,14.770298 -14.90144,23.348284 l 0.13038,1.66975 0.27108,2.174343 0.25394,1.543688 0.36523,1.855931 0.40445,1.65623 0.42647,1.589469 c 1.53855,-4.98673 12.00096,-23.264281 14.79552,-26.869128 4.0485,-5.22237 9.57604,-8.146522 14.56965,-7.707023 4.21474,0.370947 8.13582,2.637594 11.59413,6.702433 1.28132,1.506034 2.15571,2.77097 3.16001,4.571297 3.21069,5.755567 5.08558,12.03897 5.79035,19.403467 0.19834,2.075761 0.1973,7.961938 -0.002,10.247953 -1.02092,11.70626 -4.52572,21.577319 -10.09861,28.441675 -2.03909,2.511637 -4.0436,4.283801 -6.43733,5.691126 -1.55459,0.913984 -2.80744,1.448806 -4.08244,1.742529 -1.18945,0.274008 -3.43956,0.316525 -4.61419,0.08733 -2.72581,-0.531855 -5.51985,-2.139416 -7.94008,-4.568196 -0.72654,-0.729106 -1.4268,-1.537408 -2.09755,-2.417941 0,0 -1.40279,-0.248428 -3.1334,0.13691 -1.69169,0.376673 -3.71465,1.383932 -3.49768,1.670992 0.38385,0.507821 0.77849,0.998767 1.18387,1.472518 1.92219,2.246398 3.77537,3.831403 6.15156,5.262211 3.02208,1.819719 6.24944,2.905516 9.51932,3.202389 3.78572,0.343711 8.06771,-0.446732 11.64321,-2.148706 5.34556,-2.544539 10.18839,-7.323633 13.74283,-13.561446 3.68133,-6.460493 6.04413,-14.023771 7.2161,-23.100916 0.30614,-2.371142 0.43955,-10.119384 0.21549,-12.513965 -0.75003,-8.015816 -2.45919,-13.987128 -5.7273,-20.009631 -2.18427,-4.025172 -5.32999,-7.757957 -8.56227,-10.16062 -1.32016,-0.981319 -3.9271,-2.465848 -5.36298,-3.054077 -3.26982,-1.339525 -6.38582,-1.9090689 -10.01644,-1.830379 z"
           sodipodi:nodetypes="ssscccccccssssccssssscssssssssssssss" /><path
           style="fill:#ffffff;stroke-width:1.38801"
           d="m -44.527227,193.46025 c -1.921346,-1.34576 -1.619386,-4.98663 0.791372,-9.54173 0.85805,-1.62131 3.633604,-6.08331 6.167893,-9.91556 5.740209,-8.68017 8.026671,-12.51261 12.592252,-21.10662 6.064959,-11.4163 8.427066,-14.32247 11.641174,-14.32247 2.133171,0 2.689357,0.69641 2.689357,3.36739 0,2.0096 -0.212503,2.74338 -1.567029,5.41099 -0.861869,1.69736 -4.149805,6.96723 -7.306545,11.71082 -7.243723,10.88509 -9.412691,14.50343 -13.843287,23.09383 -1.960975,3.8021 -4.144363,7.70397 -4.851968,8.67085 -2.129465,2.9097 -4.503897,3.89979 -6.313219,2.6325 z m 24.320065,-1.09831 c -2.127757,-0.78491 -3.88872,-2.3713 -5.140091,-4.63054 -1.022459,-1.84597 -1.089375,-2.21497 -1.089375,-6.00647 0,-3.68476 0.09063,-4.22436 1.032301,-6.14185 1.901526,-3.8723 5.168974,-5.79354 9.853008,-5.79354 3.619196,0 6.079005,1.0247 8.3041033,3.45932 2.1029937,2.30101 3.0287934,4.77211 3.0287934,8.08435 0,4.70446 -1.8913102,8.23294 -5.4994992,10.26006 -1.8006865,1.01166 -2.3760575,1.13935 -5.5086465,1.22262 -2.394712,0.0637 -3.965587,-0.0796 -4.980594,-0.45395 z m 6.72311,-6.24892 c 2.45516,-1.71966 2.78631,-7.46806 0.563835,-9.78783 -1.060407,-1.10682 -2.823077,-1.37084 -4.207085,-0.63014 -1.074623,0.57513 -2.130701,3.17641 -2.140028,5.27126 -0.01873,4.22199 3.118016,7.01353 5.783278,5.14671 z M -46.798961,162.1983 c -2.221725,-0.81283 -4.881575,-3.54289 -5.65053,-5.79967 -0.899941,-2.64119 -0.817813,-7.33229 0.174834,-9.98536 1.585088,-4.23656 5.314062,-6.73768 10.045329,-6.73768 4.821931,0 8.710776,2.34042 10.508243,6.32414 1.191853,2.64148 1.220793,8.03995 0.0569,10.61659 -0.978806,2.16697 -3.053264,4.24293 -5.206088,5.20985 -2.274817,1.02174 -7.606923,1.22157 -9.928724,0.37213 z m 6.91503,-6.22838 c 1.193989,-0.83631 1.879136,-2.6934 1.879136,-5.09342 0,-3.55407 -1.448452,-5.69226 -3.856046,-5.69226 -2.429176,0 -3.85606,2.13806 -3.85606,5.77801 0,4.34008 3.048977,6.95766 5.83297,5.00767 z"
           id="path11"
           transform="matrix(2.8153459,0,0,2.8153459,-83.702498,-257.42262)" /></g></g></g></svg>
