<svg id="svg1" width="117mm" height="117mm" version="1.1" viewBox="0 0 117 117" xml:space="preserve" xmlns="http://www.w3.org/2000/svg"><g id="layer1" transform="translate(-49 -77.2)"><circle id="path2" cx="93.8" cy="123" r="42.1" fill="#dee1e5" stroke="#e7e8ea" stroke-width="1.77"/><path id="path1" d="m161 194c-0.544-0.16-6.46-5.9-18.8-18.2-9.9-9.9-18.1-18-18.2-18s-0.555 0.286-0.927 0.636c-1.32 1.24-5.87 4.14-8.55 5.43-12.2 5.92-26.1 6.22-38.6 0.834-5.03-2.18-9.19-5-13.5-9.14-7.38-7.13-12.1-16.4-13.5-26.6-0.409-2.87-0.409-9.53 0-12.4 2.55-17.9 15.3-32.7 32.5-37.7 5.79-1.68 13.6-2.28 19.1-1.47 9.71 1.41 18.3 5.56 25.2 12.2 3.21 3.07 5.26 5.54 7.38 8.91 8.37 13.3 9.25 30.1 2.33 44.4-1.14 2.37-3.93 6.79-5.62 8.93l-0.584 0.735 18 18.1c13.9 13.9 18.1 18.3 18.3 19 0.539 1.88-0.669 3.97-2.61 4.51-1.08 0.3-0.955 0.301-2.02-0.0125zm-59.4-33.6c7.61-1.48 14.4-5.07 19.9-10.6 5.64-5.64 9.22-12.5 10.8-20.5 0.621-3.25 0.621-9.98 0-13.2-2.4-12.6-10.1-22.6-21.4-28.1-10.6-5.06-23.1-4.95-33.5 0.302-10.2 5.1-17.5 14.3-20.2 25.3-4.24 17.4 4.12 35.3 20.2 43.4 4.03 2.02 9.11 3.47 13.9 3.95 2.14 0.216 7.87-0.122 10.4-0.614zm17-34.7c-1.13-0.69-1.53-1.72-1.73-4.49-0.417-5.72-2.53-10.3-6.65-14.4-2.53-2.52-4.1-3.59-7.45-5.04-2.1-0.908-5.82-1.71-7.93-1.71-2.5 0-4.05-1.41-4.06-3.67-1e-3 -1.63 0.786-2.79 2.28-3.37 1.08-0.413 1.52-0.428 4.2-0.149 13.8 1.44 24.7 11.8 26.7 25.4 0.704 4.67 0.39 6.49-1.3 7.52-1.09 0.665-2.95 0.648-4.07-0.037z" fill="#334155"/></g></svg>
