<svg id="svg1" width="66.3mm" height="41.8mm" version="1.1" viewBox="0 0 66.3 41.8" xml:space="preserve" xmlns="http://www.w3.org/2000/svg"><g id="layer1" transform="translate(-83.8 -94.7)"><path id="path5" d="m84.2 121c-0.097-0.097-0.176-5.86-0.176-12.8v-12.6l1.63-1.37h32.7l1.36 1.19 8e-3 12.6c4e-3 6.95-0.0627 12.8-0.149 12.9-0.179 0.289-35.1 0.367-35.4 0.0786z" fill="#f90"/><path id="path4" d="m106 128c-0.182-0.62-0.623-1.63-0.98-2.25l-0.65-1.12h18.3v-12c0-11.9 3e-3 -12 0.573-12.6l0.573-0.615 7.71 0.127c6.9 0.114 7.79 0.178 8.45 0.613 1.17 0.768 7.22 9.45 7.7 11 0.308 1.04 0.401 2.76 0.401 7.39v6.04h0.652c0.846 0 1.2 0.693 1.2 2.34 0 1.96-0.311 2.15-3.42 2.15h-2.59l-0.556-1.52c-0.923-2.53-2.35-4.08-4.72-5.14-1.65-0.737-4.18-0.776-6.17-0.0958-2.08 0.712-4.23 2.91-4.94 5.04l-0.529 1.59-20.6 0.138zm23.5-15.1c0-0.459-0.575-0.69-1.72-0.69-1.14 0-1.72 0.231-1.72 0.69 0 0.277 0.426 0.369 1.72 0.369s1.72-0.0913 1.72-0.369zm12.9-2.4c0.169-0.44-3.98-6.66-4.69-7.04-0.64-0.342-10.5-0.319-11.1 0.0259-0.465 0.249-0.512 0.583-0.512 3.68 0 2.48 0.0902 3.44 0.331 3.54 0.182 0.0734 3.82 0.143 8.08 0.154 6.55 0.0176 7.77-0.0387 7.9-0.364z" fill="#f90"/><path id="path3" d="m84.4 129c-0.464-0.294-0.7-2.66-0.354-3.55l0.282-0.728h7.43l-0.771 1.39c-0.424 0.764-0.851 1.78-0.949 2.25l-0.178 0.86-2.56-4e-3c-1.41-2e-3 -2.71-0.1-2.9-0.218z" fill="#f90"/><path id="path2" d="m134 136c-2.95-0.896-4.81-3.37-4.81-6.37 0-3.67 2.77-6.37 6.55-6.4 4.88-0.0366 8.03 5.48 5.54 9.72-1.45 2.47-4.7 3.83-7.28 3.04zm2.92-3.86c1.43-0.741 1.98-2.6 1.13-3.84-0.718-1.04-1.19-1.3-2.41-1.31-1.62-0.0119-2.69 1.06-2.69 2.68 0.0115 2.23 2.02 3.47 3.97 2.46z"/><path id="path1" d="m96.1 136c-2.56-0.912-4.4-3.52-4.4-6.22 0-5.75 6.99-8.58 11.1-4.48 1.19 1.19 1.66 2.25 1.81 4.08 0.368 4.59-4.21 8.15-8.5 6.63zm4.16-4.4c0.664-0.737 0.741-0.99 0.621-2.05-0.181-1.61-1.08-2.42-2.7-2.42-1.61 0-2.52 0.81-2.7 2.39-0.312 2.79 2.88 4.18 4.78 2.08z"/></g></svg>
