<svg id="svg1" width="150mm" height="150mm" version="1.1" viewBox="0 0 150 150" xml:space="preserve" xmlns="http://www.w3.org/2000/svg"><g id="layer1" transform="translate(-30 -73.5)"><g id="layer1-1" transform="translate(-12.9 -9.74)"><circle id="path2" cx="118" cy="158" r="75" fill="#e8eefc" stroke-width=".155"/><path id="path1" d="m80 188c-2.03-0.702-3.34-2.08-3.94-4.14-0.785-2.7 0.641-5.7 3.3-6.95l1.05-0.492h75l1.05 0.492c2.21 1.04 3.46 3 3.46 5.43s-1.25 4.39-3.46 5.43l-1.05 0.492-37.2 0.0419c-35.4 0.0398-37.3 0.0255-38.2-0.297zm0-24.1c-2.03-0.702-3.34-2.08-3.94-4.14-0.785-2.7 0.641-5.7 3.3-6.95l1.05-0.492h75l1.05 0.492c2.21 1.04 3.46 3 3.46 5.43s-1.25 4.39-3.46 5.43l-1.05 0.492-37.2 0.0419c-35.4 0.0398-37.3 0.0255-38.2-0.297zm0.226-24c-1.8-0.57-3.07-1.66-3.83-3.3-0.391-0.835-0.489-1.33-0.489-2.46 0-2.43 1.25-4.39 3.46-5.43l1.05-0.492h75l1.05 0.492c2.21 1.04 3.46 3 3.46 5.43s-1.25 4.39-3.46 5.43l-1.05 0.492-37.2 0.0353c-29.6 0.0282-37.4-0.0132-38-0.203z" fill="#3870ec" stroke-width=".71"/></g></g></svg>
