<svg id="svg1" width="115mm" height="150mm" version="1.1" viewBox="0 0 115 150" xml:space="preserve" xmlns="http://www.w3.org/2000/svg"><g id="layer1" transform="translate(-75.2 -109)"><g id="layer1-4" transform="matrix(5.31 0 0 5.31 -65.3 -645)"><path id="path2" d="m37.3 142c-2.6 4e-3 -3.82 0.442-5.54 1.99-2.2 1.99-2.93 4.12-2.93 8.56v2.6l-0.806 0.334c-1.44 0.597-1.58 1.23-1.57 7.32 7e-3 4.06 0.101 5.67 0.36 6.14 0.734 1.32 0.943 1.35 10.8 1.28l9.22-0.0622 0.638-0.742c0.633-0.737 0.638-0.788 0.638-6.65 0-5.49-0.037-5.95-0.525-6.57-0.289-0.367-0.813-0.74-1.16-0.828-0.63-0.158-0.641-0.214-0.735-3.67-0.0846-3.11-0.174-3.67-0.785-4.99-0.859-1.84-2.28-3.29-4.04-4.11-1.09-0.508-1.78-0.628-3.6-0.626zm-0.109 3.32c0.952-0.0448 1.91 0.182 2.72 0.718 1.87 1.24 2.27 2.24 2.38 5.94l0.0932 3.24h-9.84v-3.22c0-2.97 0.0518-3.31 0.673-4.37 0.828-1.41 2.39-2.24 3.98-2.32z" fill="#00a400"/><path id="path3" d="m36.8 167c-0.179-0.179-0.325-0.911-0.325-1.63 0-1.07-0.142-1.46-0.794-2.21-1.05-1.19-1.05-2.26-0.0204-3.29 1.59-1.59 3.96-0.577 3.98 1.7 7e-3 0.792-0.164 1.18-0.771 1.75-0.665 0.621-0.791 0.957-0.86 2.29-0.0833 1.61-0.503 2.09-1.21 1.39z" fill="#3d3846"/></g></g></svg>
