<?xml version="1.0" encoding="UTF-8" standalone="no"?>
<!-- Created with Inkscape (http://www.inkscape.org/) -->

<svg
   width="135.46666mm"
   height="80.115845mm"
   viewBox="0 0 135.46666 80.115845"
   version="1.1"
   id="svg1"
   xml:space="preserve"
   xmlns:inkscape="http://www.inkscape.org/namespaces/inkscape"
   xmlns:sodipodi="http://sodipodi.sourceforge.net/DTD/sodipodi-0.dtd"
   xmlns="http://www.w3.org/2000/svg"
   xmlns:svg="http://www.w3.org/2000/svg"><sodipodi:namedview
     id="namedview1"
     pagecolor="#505050"
     bordercolor="#ffffff"
     borderopacity="1"
     inkscape:showpageshadow="0"
     inkscape:pageopacity="0"
     inkscape:pagecheckerboard="1"
     inkscape:deskcolor="#505050"
     inkscape:document-units="mm"><inkscape:page
       x="0"
       y="0"
       width="135.46666"
       height="80.115845"
       id="page2"
       margin="0"
       bleed="0" /></sodipodi:namedview><defs
     id="defs1" /><g
     inkscape:label="Camada 1"
     inkscape:groupmode="layer"
     id="layer1"
     transform="translate(-24.488809,-37.54245)"><path
       style="fill:#0779ff;fill-opacity:1;stroke-width:0.862086"
       d="m 87.886238,116.51897 c -14.195399,-0.96956 -26.630392,-5.4259 -35.924738,-12.87442 -3.682668,-2.9513 -7.931217,-7.465194 -8.954116,-9.513347 -0.592314,-1.185998 -0.660471,-2.278077 -0.167693,-2.68705 0.68603,-0.569347 1.891278,-0.07991 4.405147,1.788971 9.464505,7.036096 18.477707,10.791036 31.289561,13.035306 3.68735,0.64592 11.845397,1.37239 15.381562,1.36972 13.111869,-0.01 26.192249,-2.64582 36.167579,-7.2883 4.29226,-1.997608 4.15866,-1.961942 4.91464,-1.31168 0.54832,0.471651 0.60588,0.642926 0.46619,1.38748 -0.38031,2.02723 -6.50816,6.81613 -12.25108,9.5742 -7.96499,3.82523 -16.38033,5.87862 -26.773547,6.53292 -3.997812,0.25168 -4.682721,0.25058 -8.553505,-0.0137 z m 48.445092,-7.40178 c -0.4217,-0.6436 -0.65171,-0.0511 2.1227,-5.46844 2.07848,-4.058458 2.86215,-7.336074 1.95075,-8.158874 -1.08487,-0.979417 -6.04055,-1.110247 -10.56894,-0.279022 -1.89901,0.348574 -2.27389,0.359635 -2.85117,0.08414 -0.96451,-0.460268 -1.01653,-1.391235 -0.12433,-2.22469 1.53984,-1.438413 5.07033,-2.906132 8.34083,-3.467487 3.13207,-0.537606 8.23069,0.173158 10.02037,1.396863 1.12427,0.76873 1.40528,1.568286 1.36361,3.879823 -0.082,4.539994 -2.13699,9.118757 -5.59006,12.454437 -2.45246,2.36912 -3.91378,2.92784 -4.66376,1.78322 z M 26.757167,88.770472 c -0.188179,-0.07164 -0.41755,-0.243152 -0.509719,-0.381155 -0.09217,-0.138003 -0.169149,-8.775336 -0.17107,-19.194083 -0.0026,-14.433386 0.06167,-19.008331 0.27022,-19.216886 0.409742,-0.409741 5.743502,-0.376671 6.087432,0.03776 0.142166,0.171296 0.425948,1.146402 0.630633,2.166888 0.204677,1.020494 0.458087,1.855441 0.56314,1.855441 0.105045,0 0.389559,-0.384904 0.632245,-0.855352 0.607409,-1.17743 2.070653,-2.591733 3.501862,-3.384732 1.109849,-0.614933 1.374975,-0.663926 3.593243,-0.663926 2.556826,0 3.343169,0.251203 5.191508,1.658455 1.949184,1.484029 3.802738,5.031005 4.548856,8.704732 0.483613,2.381166 0.472871,8.014536 -0.01957,10.279279 -1.083565,4.983166 -3.262858,8.267377 -6.477731,9.76202 -1.104306,0.513405 -1.601471,0.603778 -3.243047,0.589519 -1.081857,-0.0094 -2.31895,-0.160589 -2.798882,-0.342059 -1.281232,-0.48444 -2.749675,-1.748775 -3.736823,-3.217408 -0.482535,-0.717884 -0.954313,-1.308077 -1.04841,-1.311534 -0.09409,-0.0034 -0.171062,2.966723 -0.171062,6.600397 0,6.2984 -0.02061,6.617708 -0.4412,6.842807 -0.454922,0.24347 -5.792523,0.301721 -6.40161,0.06983 z M 41.085139,73.04468 c 1.791398,-1.366363 2.691976,-4.866518 2.484057,-9.654431 -0.231607,-5.333638 -1.858053,-7.980269 -4.905466,-7.982415 -3.381488,-0.0025 -5.063754,3.036111 -5.063754,9.14611 0,4.748025 1.083373,7.744041 3.193304,8.830932 1.340775,0.69067 3.125828,0.549183 4.291859,-0.340196 z m 102.113781,6.861195 c -3.54556,-0.791989 -6.64151,-3.298936 -8.28353,-6.707597 -1.25286,-2.600783 -1.65038,-4.192746 -1.80109,-7.212685 -0.35292,-7.07238 2.27201,-12.823277 7.11878,-15.596314 1.84346,-1.054728 3.71867,-1.440891 6.4147,-1.320982 2.07984,0.0925 2.4889,0.187141 4.0851,0.945181 4.54524,2.158526 7.22339,6.963946 7.56945,13.581913 0.12323,2.356649 0.0965,2.628974 -0.28535,2.908195 -0.33555,0.245358 -2.11382,0.308066 -8.73563,0.308066 h -8.31431 l 0.14045,1.343725 c 0.17392,1.663921 0.91301,3.686779 1.68014,4.598462 0.84566,1.005019 1.69097,1.35681 3.26022,1.35681 2.34735,0 3.68901,-0.99727 4.37645,-3.253038 0.14382,-0.47194 0.3826,-0.958569 0.53062,-1.081417 0.18021,-0.149564 1.27785,0.0077 3.32229,0.477474 1.67923,0.385465 3.13247,0.749851 3.22941,0.809766 0.35675,0.220478 0.1548,0.98433 -0.72327,2.735684 -1.46848,2.928885 -3.89773,5.0139 -6.85567,5.884132 -1.86512,0.548726 -4.82976,0.646806 -6.72876,0.222625 z m 7.28634,-19.195721 c -0.37906,-2.655631 -1.58458,-4.860345 -2.97531,-5.441427 -1.693,-0.707383 -3.76728,-0.07137 -4.80903,1.474427 -0.62956,0.934216 -1.33234,2.787399 -1.54764,4.081045 l -0.16135,0.969398 h 4.82399 4.82399 z M 56.083477,79.226465 c -0.318231,-0.318231 -0.35843,-1.963289 -0.35843,-14.666418 0,-10.824306 0.06664,-14.374626 0.273713,-14.581699 0.184271,-0.184271 1.224257,-0.273712 3.182588,-0.273712 h 2.908876 l 0.237385,0.855353 c 0.130561,0.47044 0.354024,1.445546 0.496586,2.166887 0.142555,0.72135 0.347111,1.311543 0.454552,1.311543 0.107451,0 0.343094,-0.353575 0.523649,-0.785722 0.180564,-0.432138 0.874774,-1.342846 1.542694,-2.023791 1.44927,-1.477519 3.161587,-2.208552 5.173195,-2.208552 1.602653,0 3.654487,0.5744 3.847369,1.07704 0.171117,0.445913 -1.252111,6.448332 -1.623368,6.846556 -0.20784,0.222927 -0.700402,0.132382 -2.337253,-0.429629 -1.677592,-0.576011 -2.272699,-0.68228 -3.114095,-0.556105 -1.527056,0.228995 -2.4516,0.950268 -3.240477,2.528023 L 63.36618,59.8548 63.29325,69.430523 c -0.04768,6.262425 -0.156012,9.675828 -0.31305,9.865047 -0.385085,0.464001 -6.424126,0.403491 -6.89673,-0.06914 z m 21.336685,0.04793 C 77.23315,79.049054 77.178555,74.96556 77.221167,64.391283 l 0.05871,-14.57257 h 3.649503 3.649494 l 0.05939,14.597993 c 0.055,13.521317 0.03077,14.619019 -0.328713,14.883103 -0.571538,0.419904 -6.538068,0.397886 -6.889377,-0.02543 z m 12.877348,-0.04793 c -0.318231,-0.318231 -0.35843,-1.963289 -0.35843,-14.666418 0,-10.824306 0.06664,-14.374626 0.273713,-14.581699 0.388792,-0.388783 5.742717,-0.378714 6.063119,0.01137 0.128787,0.156814 0.415439,1.131918 0.637004,2.166887 0.221565,1.034978 0.478855,1.881778 0.571744,1.881778 0.0929,0 0.389663,-0.456025 0.65947,-1.013381 0.624848,-1.290767 1.99269,-2.702657 3.24723,-3.351816 1.47241,-0.761894 4.42122,-0.860698 6.15691,-0.206297 1.56792,0.59115 3.32471,2.112611 4.07717,3.531 0.30358,0.572269 0.62421,1.040494 0.71248,1.040494 0.0882,0 0.47065,-0.450775 0.84971,-1.001726 0.89628,-1.302706 2.40899,-2.622646 3.80427,-3.319488 1.47552,-0.736902 4.25633,-0.910604 6.08187,-0.379903 1.64206,0.477362 3.59403,2.216629 4.4855,3.996733 1.42842,2.852315 1.46586,3.212287 1.5554,14.954078 0.0761,9.987463 0.0547,10.734004 -0.31664,11.005509 -0.55573,0.406361 -6.59284,0.411784 -6.85537,0.0061 -0.10148,-0.156814 -0.2877,-4.852691 -0.4138,-10.435274 -0.25232,-11.17166 -0.26916,-11.291429 -1.73548,-12.335535 -2.10415,-1.498289 -4.89828,-0.451578 -5.89323,2.207681 -0.44353,1.185428 -0.46743,1.732121 -0.46743,10.690348 0,8.278636 -0.0441,9.485169 -0.35844,9.799468 -0.49091,0.490906 -6.51299,0.531493 -6.91541,0.04664 -0.1784,-0.214961 -0.31107,-3.423187 -0.42709,-10.327943 l -0.16829,-10.016119 -0.57024,-1.10685 c -0.67483,-1.309862 -1.71589,-1.958995 -3.14182,-1.958995 -2.220426,0 -3.739861,1.598436 -4.134653,4.349637 -0.115761,0.806714 -0.221824,5.359424 -0.235695,10.117138 -0.01724,5.920323 -0.10439,8.745784 -0.276083,8.952676 -0.395076,0.476035 -6.424307,0.427026 -6.907489,-0.05613 z M 78.876546,46.815786 c -1.05666,-0.558312 -1.510746,-1.023744 -1.966004,-2.01516 -0.806199,-1.755655 -0.442268,-3.935595 0.863878,-5.174619 1.87264,-1.776412 5.414252,-1.432037 6.825849,0.663728 1.407339,2.089439 0.584892,5.481668 -1.565729,6.457938 -1.183342,0.537173 -3.207493,0.570339 -4.157994,0.06811 z"
       id="path1" /></g></svg>
