<svg width="132mm" height="155mm" version="1.1" viewBox="0 0 132 155" xmlns="http://www.w3.org/2000/svg">
 <g transform="translate(-67.7 -116)">
  <g transform="matrix(2.63 0 0 2.63 34.2 -219)">
   <path d="m35 185c-1.02-0.627-2.56-1.66-3.43-2.29-2.32-1.69-7.46-6.97-9.19-9.43-5.55-7.93-8.99-19-9.63-31-0.208-3.94-0.0992-4.1 3.18-4.8 2.75-0.585 5.77-2.01 10.6-5.01 1.89-1.17 4.81-2.81 6.48-3.64 2.68-1.34 3.23-1.51 4.63-1.51 1.4 0 1.95 0.178 4.63 1.51 1.67 0.833 4.59 2.47 6.48 3.64 4.85 3 7.86 4.42 10.6 5.01 3.29 0.7 3.39 0.845 3.18 4.92-0.585 11.7-3.81 22.2-9.35 30.5-1.72 2.57-6.99 8.06-9.47 9.86-2.92 2.12-5.24 3.43-6.09 3.43-0.502 0-1.53-0.441-2.67-1.14z" fill="#6f0"/>
   <path d="m47.5 169c0.633-0.737 0.638-0.788 0.638-6.65 0-5.49-0.037-5.95-0.525-6.57-0.289-0.367-0.813-0.74-1.16-0.828-0.63-0.158-0.641-0.214-0.735-3.67-0.0846-3.11-0.174-3.67-0.785-4.99-0.859-1.84-2.28-3.29-4.04-4.11-1.09-0.508-1.78-0.628-3.6-0.625-2.6 4e-3 -3.82 0.442-5.54 1.99-2.2 1.99-2.93 4.12-2.93 8.56v2.6l-0.806 0.334c-1.44 0.597-1.58 1.23-1.57 7.32 7e-3 4.06 0.101 5.67 0.36 6.14 0.734 1.32 0.943 1.35 10.8 1.28l9.22-0.0621z" fill="#002b00"/>
   <path d="m36.8 167c-0.179-0.179-0.325-0.911-0.325-1.63 0-1.07-0.142-1.46-0.794-2.21-1.05-1.19-1.05-2.26-0.0204-3.29 1.59-1.59 3.96-0.577 3.98 1.7 7e-3 0.792-0.164 1.18-0.771 1.75-0.665 0.621-0.791 0.957-0.86 2.29-0.0833 1.61-0.503 2.09-1.21 1.39z" fill="#fff"/>
   <path d="m32.5 152c0-2.97 0.0519-3.31 0.673-4.37 1.32-2.26 4.54-3.03 6.7-1.6 1.87 1.24 2.27 2.24 2.38 5.94l0.0934 3.24h-9.84z" fill="#6f0"/>
  </g>
 </g>
</svg>
