<svg id="svg1" width="151mm" height="150mm" version="1.1" viewBox="0 0 151 150" xml:space="preserve" xmlns="http://www.w3.org/2000/svg"><g id="layer1" transform="translate(-29.3 -73.4)"><g id="layer1-8" transform="translate(16.1 19.1)"><path id="path3" d="m70.8 202c-13.9-3.37-25.6-9.9-35.5-19.8-32.1-32.1-28.7-85.4 7.18-113 15.5-11.8 26.2-15.4 46.2-15.4 20.1 0 30.7 3.56 46.2 15.4 35.9 27.6 39.3 80.5 7.19 113-18.5 18.5-45.5 26-71.2 19.8z" fill="#16a34a" stroke-width="6.29"/><path id="path2" d="m97.8 166c8.78-5.63 17.2-16.5 20.9-26.8 1.57-4.46 2.45-13.3 2.45-24.8v-17.8l-32.6-9.28-32.3 9.32v18c0 20 2.58 29.5 11 40.6 4.54 5.96 17.7 15.7 21.2 15.7 0.885 0 5.1-2.24 9.37-4.98z" fill="#fff" stroke-width="6.29"/><path id="path1" d="m78.9 137c-9.13-9.33-9.21-9.52-5.77-13.3l3.49-3.86 11.5 11.1 10.3-12c5.68-6.61 10.7-12 11.3-12 0.517 2e-3 2.54 1.22 4.5 2.7 3.42 2.59 3.3 3.01-3.13 10.7-3.68 4.42-10.4 12.1-14.8 17.1l-8.13 9.05z" fill="#16a34a" stroke-width="7.09"/></g></g></svg>
