<svg width="1226" height="572" version="1.1" viewBox="0 0 324 151" xml:space="preserve" xmlns="http://www.w3.org/2000/svg"><g transform="translate(483 -12.4)"><path d="m-268 88.2c-11.9-23.9-12.4-24.9-13.5-29-1.88-6.72-5.71-15-10.1-21.9-4.03-6.28-9.62-12.6-14.6-16.4-1.94-1.51-2.25-1.87-3.2-3.83-0.579-1.19-1.05-2.3-1.05-2.45 0-0.677 0.649-1.62 1.3-1.89 0.467-0.194 4.76-0.31 12.9-0.349l12.2-0.0581 2.65 0.764c4.69 1.35 8.3 3.51 11.3 6.73 2.58 2.8 2.32 2.31 9.72 17.6 2.18 4.51 5.83 12 8.12 16.7 8.95 18.2 10.7 21.9 10.7 22.6 0 0.391-2.13 4.88-4.79 10.1-2.63 5.16-5.98 11.8-7.44 14.7-2.8 5.58-3.2 6.22-3.9 6.22-0.313 0-3.18-5.51-10.2-19.5z" fill="#00cce7"/><path d="m-234 146c-2.05-0.313-4.62-1.68-6.38-3.4-1.41-1.38-1.91-2.25-6.46-11.3-2.71-5.42-4.93-10.1-4.93-10.4s0.583-1.66 1.3-2.98c0.712-1.32 2.96-5.62 4.99-9.55s4.07-7.84 4.53-8.69c3.74-6.9 13.2-25.4 19.9-38.9 14.7-29.8 18.3-37 19.1-38.9 1.66-3.95 4.73-6.89 8.68-8.28l1.75-0.617 16-0.0056c15.2-0.0053 16.1 0.0195 16.5 0.478 0.241 0.266 0.438 0.755 0.438 1.09 0 0.598-3.87 8.43-15.7 31.9-3.39 6.69-9.76 19.3-14.2 28s-8.51 16.8-9.13 18c-0.617 1.16-3.36 6.52-6.09 11.9-5 9.86-7.77 15.3-12 23.5-1.28 2.47-3.29 6.38-4.46 8.68-2.52 4.91-3.09 5.73-5.12 7.22-2.46 1.81-5.76 2.66-8.62 2.23z"/><path d="m-458 164c0.191-0.0764 0.419-0.067 0.507 0.0209 0.0879 0.0879-0.0684 0.15-0.347 0.139-0.308-0.0127-0.371-0.0754-0.16-0.16zm5.41-0.531c0.255-0.0666 0.671-0.0666 0.926 0s0.0463 0.121-0.463 0.121-0.718-0.0545-0.463-0.121zm2.25-0.269c0.329-0.0633 0.805-0.0609 1.06 5e-3 0.253 0.0662-0.0163 0.118-0.598 0.115-0.582-3e-3 -0.789-0.0571-0.46-0.12zm5.83-0.523c0.191-0.0764 0.419-0.067 0.507 0.0209 0.0879 0.0879-0.0684 0.15-0.347 0.139-0.308-0.0127-0.371-0.0754-0.16-0.16zm1.64-0.13c0-0.12 0.357-0.219 0.794-0.219s0.794 0.046 0.794 0.102c0 0.0562-0.357 0.155-0.794 0.219-0.437 0.0641-0.794 0.0181-0.794-0.102zm3.11-0.394c0.182-0.0734 0.48-0.0734 0.661 0s0.0331 0.133-0.331 0.133c-0.364 0-0.513-0.06-0.331-0.133zm2.12-0.276c0.329-0.0633 0.805-0.0609 1.06 5e-3 0.253 0.0662-0.0163 0.118-0.598 0.115-0.582-3e-3 -0.789-0.0571-0.46-0.12zm3.45-0.258c0.191-0.0764 0.419-0.067 0.507 0.0209 0.0879 0.0879-0.0684 0.15-0.347 0.139-0.308-0.0127-0.371-0.0754-0.16-0.16zm1.3-0.133c-0.185-0.118 0.218-0.21 0.93-0.212 0.691-2e-3 1.26 0.0425 1.26 0.0993 0 0.215-1.87 0.311-2.19 0.113zm3.51-1.14c0.342-0.364 0.681-0.661 0.754-0.661 0.0728 0-0.147 0.298-0.489 0.661-0.342 0.364-0.681 0.661-0.754 0.661-0.0728 0 0.147-0.298 0.489-0.661zm-34.1-0.397c0-0.509 0.0544-0.718 0.121-0.463s0.0666 0.671 0 0.926-0.121 0.0463-0.121-0.463zm13.4-1.77c0.191-0.0764 0.419-0.067 0.507 0.0209 0.0879 0.0879-0.0684 0.15-0.347 0.139-0.308-0.0127-0.371-0.0754-0.16-0.16zm-3-0.366c-0.121-0.197-0.0944-0.261 0.0673-0.161 0.343 0.212 2.55-4.75 2.3-5.16-0.106-0.172-0.0689-0.228 0.087-0.132 0.334 0.207 1.74-2.92 1.49-3.32-0.112-0.181-0.0482-0.205 0.175-0.0669 0.257 0.159 0.304 0.095 0.176-0.237-0.103-0.27-0.068-0.388 0.0873-0.292 0.239 0.147 0.364-0.274 0.333-1.12-6e-3 -0.18 0.0757-0.274 0.183-0.208 0.287 0.177 2.18-4.33 1.96-4.67-0.101-0.163-0.0692-0.226 0.0704-0.14 0.14 0.0862 0.587-0.609 0.995-1.54 0.432-0.992 0.857-1.63 1.02-1.53 0.167 0.103 0.198 0.0432 0.0787-0.15-0.109-0.177-0.0537-0.671 0.124-1.1 0.263-0.635 0.48-0.778 1.18-0.778 0.473 0 1.22-0.071 1.65-0.158 0.588-0.118 0.831-0.0467 0.956 0.278 0.0952 0.248 0.058 0.368-0.0862 0.279-0.338-0.209-1.08 1.61-0.895 2.19 0.101 0.316 0.0733 0.355-0.0908 0.129-0.161-0.223-0.951 1.22-2.46 4.5-3.2 6.95-3.97 8.87-3.81 9.39 0.105 0.327 0.078 0.364-0.0936 0.126-0.17-0.236-0.526 0.294-1.2 1.79-0.951 2.11-0.958 2.12-1.97 2.13-0.556 2e-3 -1.27 0.0719-1.58 0.155-0.319 0.0855-0.654 8e-3 -0.768-0.177zm13.2-1.02c-1.92-0.161-2.63-0.412-2.37-0.832 0.0827-0.134-0.0375-0.171-0.267-0.0831-0.343 0.132-0.358 0.237-0.0844 0.592 0.223 0.289 0.137 0.265-0.258-0.0719-0.618-0.527-0.726-0.708-0.392-0.655 0.505 0.0797 0.592-0.0721 0.327-0.568-0.158-0.295-0.391-0.473-0.517-0.394-0.395 0.244-0.911-1.77-0.914-3.57-1e-3 -0.946-0.125-1.82-0.276-1.94-0.164-0.134-0.0978-0.168 0.165-0.0839 0.308 0.0981 0.543-0.11 0.791-0.703 0.194-0.463 0.325-0.928 0.292-1.03-0.0332-0.105 0.206-0.32 0.532-0.478 0.57-0.276 0.573-0.271 0.0791 0.124-0.633 0.507-0.36 0.531 0.593 0.0519 1.17-0.59 2.63-0.696 3.96-0.29 1.54 0.468 1.64 0.466 0.999-0.0208-0.282-0.214-0.386-0.388-0.231-0.388 0.156 0 0.431 0.179 0.612 0.397s0.241 0.397 0.132 0.397-0.05 0.177 0.13 0.394 0.424 0.334 0.543 0.26c0.119-0.0735 0.302 6e-3 0.408 0.176 0.12 0.193 0.0768 0.239-0.114 0.121-0.378-0.233-0.391-0.316 0.224 1.43 0.532 1.51 0.724 1.34 0.269-0.248-0.206-0.719-0.192-0.839 0.0661-0.579 0.451 0.453 0.298 4.36-0.21 5.34-0.477 0.922-0.492 1.14-0.0594 0.874 0.2-0.122 0.166 0.047-0.0855 0.428-0.229 0.347-0.705 0.801-1.06 1.01-0.52 0.307-0.504 0.269 0.0855-0.201 1.05-0.835 0.9-1.22-0.157-0.417-0.487 0.371-1.03 0.675-1.21 0.675s-0.248 0.119-0.158 0.265c0.0899 0.146 0.127 0.245 0.0818 0.222-0.045-0.0235-0.915-0.113-1.93-0.198zm1.3-2.82c0.575-0.575 0.453-3.89-0.165-4.51-0.521-0.521-1.64-0.56-2.22-0.0779-0.567 0.471-0.408 3.31 0.241 4.3 0.524 0.799 1.5 0.929 2.15 0.284zm-0.643-0.113c0-0.146 0.126-0.265 0.28-0.265s0.207 0.119 0.117 0.265c-0.0899 0.146-0.216 0.265-0.28 0.265-0.0642 0-0.117-0.119-0.117-0.265zm-1.55-1.32c0-0.364 0.0601-0.513 0.133-0.331 0.0734 0.182 0.0734 0.48 0 0.661-0.0734 0.182-0.133 0.0331-0.133-0.331zm-0.285-1.74c0.0127-0.308 0.0754-0.371 0.16-0.16 0.0764 0.191 0.067 0.419-0.0209 0.507-0.0879 0.0879-0.15-0.0683-0.139-0.347zm12.7 5.25c-2e-3 -0.618 0.042-1.12 0.0982-1.12 0.221 0 0.321 1.6 0.12 1.91-0.128 0.202-0.215-0.113-0.218-0.788zm-35.7-0.75c0.0127-0.308 0.0754-0.371 0.16-0.16 0.0764 0.191 0.067 0.419-0.0209 0.507-0.0879 0.0879-0.15-0.0684-0.139-0.347zm19.7-0.657c-0.0959-0.155-0.118-0.339-0.0483-0.408 0.0694-0.0693 0.197 0.0576 0.283 0.282 0.179 0.466 0.0264 0.548-0.234 0.126zm-20.3-4.08c0.0838-0.218 0.199-0.397 0.256-0.397s0.104 0.179 0.104 0.397-0.115 0.397-0.256 0.397-0.188-0.179-0.104-0.397zm35.9-0.661c0-0.364 0.0601-0.513 0.133-0.331 0.0734 0.182 0.0734 0.48 0 0.661s-0.133 0.0331-0.133-0.331zm-16.7-0.397c0-0.146 0.115-0.443 0.256-0.661s0.256-0.278 0.256-0.132-0.115 0.443-0.256 0.661-0.256 0.278-0.256 0.132zm-19.4-0.905c-0.115-0.44-0.0807-0.543 0.116-0.347 0.154 0.154 0.227 0.436 0.164 0.627-0.0661 0.198-0.186 0.0782-0.28-0.28zm12.3 0.149c0.0606-0.0519 0.527-0.171 1.04-0.264 0.652-0.12 0.808-0.0928 0.529 0.0902-0.359 0.235-1.83 0.398-1.57 0.174zm8.18-0.144c0-0.275 0.503-0.672 0.652-0.516 0.0484 0.051-0.0786 0.246-0.282 0.434-0.204 0.188-0.37 0.224-0.37 0.0818zm-11.8-0.288c-0.0927-0.15 0.0135-0.194 0.249-0.104 0.458 0.176 0.542 0.366 0.162 0.366-0.137 0-0.322-0.118-0.411-0.262zm0.404-0.466c-1.38-0.697-1.94-1.89-2.07-4.44-0.148-2.82 0.29-3.83 2.01-4.67 2.31-1.12 5.18-0.51 6.24 1.33 0.667 1.16 0.891 4.34 0.406 5.76-0.194 0.566-0.357 1.12-0.363 1.23-6e-3 0.109-0.0984 0.203-0.205 0.209-0.106 6e-3 -0.702 0.241-1.32 0.523-1.42 0.643-3.49 0.669-4.69 0.0608zm3.4-2.16c0.212-0.135 0.278-0.371 0.158-0.566-0.135-0.218-0.1-0.269 0.0984-0.146 0.429 0.265 0.399-2.68-0.0358-3.54-0.369-0.728-0.947-0.929-1.95-0.676-0.452 0.113-0.616 0.295-0.511 0.566 0.0843 0.22 0.0483 0.335-0.08 0.255-0.288-0.178-0.573 0.873-0.428 1.58 0.0587 0.287 0.174 0.84 0.255 1.23 0.274 1.31 1.49 1.94 2.5 1.3zm-0.436-1.61c0-0.509 0.0544-0.718 0.121-0.463s0.0666 0.671 0 0.926-0.121 0.0463-0.121-0.463zm0.0879-2.57c-0.144-0.377-0.113-0.407 0.148-0.148 0.181 0.179 0.262 0.393 0.181 0.474-0.0815 0.0815-0.229-0.0654-0.329-0.326zm-12.4 4.74c-0.0717-0.116-0.0211-0.384 0.113-0.595 0.19-0.3 0.244-0.254 0.247 0.211 4e-3 0.612-0.13 0.756-0.36 0.384zm47.6-0.0835c-3.69-0.537-6.75-2.04-9.9-4.86-2.06-1.85-2.07-1.86-2.23-3.44-0.0907-0.873-0.401-3.73-0.69-6.35-0.723-6.56-0.985-8.98-1.62-14.9-0.3-2.84-0.667-5.54-0.815-6.01-0.197-0.622-1.56-1.97-5.08-5.02-5.68-4.93-7.05-5.9-8.26-5.9-0.853 0-0.889 0.0424-1.05 1.26-0.0935 0.691-0.402 2.13-0.686 3.21s-0.445 2.2-0.358 2.51c0.118 0.422 0.092 0.469-0.103 0.187-0.211-0.306-0.395-0.217-0.978 0.476-0.906 1.08-1.72 0.96-3.27-0.47-1.04-0.958-1.06-1.02-0.606-1.44 0.264-0.239 0.889-0.506 1.39-0.592 0.681-0.118 0.809-0.0876 0.512 0.122-0.295 0.207-0.326 0.393-0.123 0.719 0.414 0.664 0.738 0.538 1.23-0.477 0.465-0.961 1.37-5.23 1.16-5.45-0.229-0.229-8.08 0.729-8.95 1.09-0.827 0.346-1.83 1.33-2.98 2.91l-0.544 0.75-5.81-6.43c-3.19-3.53-7.28-8.04-9.08-10-3.53-3.87-4.52-5.34-5.31-7.85-1.17-3.73-0.869-7.55 0.887-11.4 0.735-1.59 1.77-2.85 7.33-8.86 3.56-3.85 13.1-14.3 21.2-23.1 8.13-8.88 15.8-17.2 17-18.4 2.3-2.4 4.27-3.7 6.99-4.62 1.4-0.473 3.18-0.493 43.3-0.493 39.1 0 42 0.0308 44.3 0.474 11 2.08 20.7 6.48 29.3 13.3 18.2 14.5 27.4 38.1 24.3 62.2-1.39 10.6-4.89 20-10.7 28.8-5.96 8.93-13.3 15.6-22.8 20.7-7.34 3.97-16.8 6.72-25.7 7.44-4.14 0.336-68.8 0.318-71.2-0.0199zm72-31.3c2.58-0.514 6.86-1.93 8.85-2.93 9.21-4.64 15.8-13.3 18-23.8 0.772-3.63 0.846-11 0.149-14.7-1.46-7.77-6.08-15.8-11.7-20.4-5.25-4.3-11.1-6.82-17.6-7.61-3.18-0.39-48.7-0.372-50.1 0.0202-1.35 0.374-2.91 1.93-3.28 3.28-0.399 1.44-0.413 61.5-0.0146 62.9 0.292 1.05 1.52 2.64 2.47 3.18 0.874 0.501 5.53 0.588 29.1 0.545 19-0.0345 22.3-0.0978 24.1-0.464zm-101-26.1c3.04 0.178 7.6-2.16 9.78-5.02 4.49-5.88 4.14-13.3-0.861-18.5-5.68-5.88-14.3-5.85-20 0.0873-2.45 2.57-3.67 5.79-3.66 9.69 4e-3 2.69 0.414 4.38 1.61 6.66 0.824 1.57 2.56 4.93 7.04 6.41 2.74 0.874 6.09 0.65 6.09 0.65zm213 57.5c-2.05-0.313-4.62-1.68-6.38-3.4-1.41-1.38-1.91-2.25-6.46-11.3-2.71-5.42-4.93-10.1-4.93-10.4s0.583-1.66 1.3-2.98c0.712-1.32 2.96-5.62 4.99-9.55s4.07-7.84 4.53-8.69c3.74-6.9 13.2-25.4 19.9-38.9 14.7-29.8 18.3-37 19.1-38.9 1.66-3.95 4.73-6.89 8.68-8.28l1.75-0.617 16-6e-3c15.2-5e-3 16.1 0.0196 16.5 0.478 0.241 0.266 0.438 0.755 0.438 1.09 0 0.598-3.87 8.43-15.7 31.9-3.39 6.69-9.76 19.3-14.2 28-4.4 8.73-8.51 16.8-9.13 18-0.617 1.16-3.36 6.52-6.09 11.9-5 9.86-7.77 15.3-12 23.5-1.28 2.47-3.29 6.38-4.46 8.68-2.52 4.91-3.09 5.73-5.12 7.22-2.46 1.81-5.76 2.66-8.62 2.23zm-206-0.184c0.191-0.0764 0.419-0.067 0.507 0.0209 0.0879 0.0879-0.0684 0.15-0.347 0.139-0.308-0.0127-0.371-0.0754-0.16-0.16zm-18.5-1.03c0.0127-0.308 0.0754-0.371 0.16-0.16 0.0764 0.191 0.067 0.419-0.0209 0.507-0.0879 0.0879-0.15-0.0683-0.139-0.347zm9.99-1.19c-0.0504-0.742-2e-3 -1.4 0.107-1.47 0.109-0.0674 0.198 0.539 0.198 1.35 0 1.84-0.183 1.92-0.305 0.123zm5.07 1.02c0-0.291 1.04-2.58 1.17-2.58 0.0728 0-0.109 0.563-0.404 1.25-0.522 1.22-0.768 1.64-0.768 1.33zm14.1-0.727c0-0.364 0.06-0.513 0.133-0.331 0.0734 0.182 0.0734 0.48 0 0.661s-0.133 0.0331-0.133-0.331zm-29.4-0.926c0-0.703 0.0484-1.23 0.108-1.17 0.205 0.21 0.273 2.07 0.0829 2.26-0.105 0.105-0.191-0.385-0.191-1.09zm-6.59 0.507c0.0127-0.308 0.0754-0.371 0.16-0.16 0.0764 0.191 0.067 0.419-0.0209 0.507-0.0879 0.0879-0.15-0.0684-0.139-0.347zm35.7-2.49c0-0.364 0.0601-0.513 0.133-0.331 0.0734 0.182 0.0734 0.48 0 0.661s-0.133 0.0331-0.133-0.331zm-15.6-1.46c0-0.146 0.115-0.443 0.256-0.661s0.256-0.278 0.256-0.132-0.115 0.443-0.256 0.661-0.256 0.278-0.256 0.132zm-20.8-0.926c-0.0899-0.146-0.0374-0.265 0.117-0.265 0.154 0 0.28 0.119 0.28 0.265s-0.0525 0.265-0.117 0.265c-0.0642 0-0.19-0.119-0.28-0.265zm10-0.647c0.282-0.226 0.699-0.402 0.926-0.391 0.356 0.018 0.358 0.0409 0.0156 0.168-0.218 0.0809-0.635 0.257-0.926 0.391-0.521 0.24-0.521 0.237-0.0156-0.168zm4.38-0.0146c-0.424-0.242-0.513-0.381-0.249-0.388 0.227-5e-3 0.644 0.165 0.926 0.379 0.658 0.497 0.189 0.503-0.677 8e-3zm-2.45-0.584c0.327-0.0631 0.863-0.0631 1.19 0s0.0595 0.115-0.595 0.115c-0.655 0-0.923-0.0516-0.595-0.115zm-12.2-0.673c-0.0682-0.182-0.0298-0.569 0.0854-0.86 0.17-0.431 0.213-0.37 0.228 0.331 0.0193 0.894-0.101 1.1-0.313 0.529zm25.7-0.379c0.191-0.0764 0.419-0.067 0.507 0.0209 0.0879 0.0879-0.0684 0.15-0.347 0.139-0.308-0.0127-0.371-0.0754-0.16-0.16zm-16.4-2.65c0.329-0.0633 0.805-0.0609 1.06 5e-3 0.253 0.0662-0.0163 0.118-0.598 0.115-0.582-3e-3 -0.789-0.0571-0.46-0.12zm-2.16-0.584c0.06-0.0601-0.243-0.323-0.673-0.585s-1.05-0.986-1.39-1.61c-0.843-1.58-0.884-5.68-0.0715-7.09 0.815-1.41 2.51-2.17 4.56-2.06 2.04 0.118 2.86 0.663 3.81 2.53 0.975 1.91 1.17 3.63 0.623 5.51-0.539 1.85-1.46 2.78-3.23 3.23-1.17 0.299-3.91 0.351-3.63 0.0686zm3.92-3.02c0.424-0.571 0.549-1.11 0.528-2.27-0.0321-1.76-0.471-2.81-1.49-3.56-0.593-0.439-0.862-0.488-1.46-0.269-0.4 0.148-0.695 0.418-0.655 0.6s-0.0358 0.264-0.168 0.182c-0.6-0.371-0.896 0.681-0.775 2.76 0.102 1.77 0.227 2.23 0.753 2.79 0.886 0.943 2.48 0.829 3.27-0.235zm-3.28-0.31c-0.19-0.229-0.216-0.397-0.0607-0.397 0.148 0 0.337 0.179 0.421 0.397 0.0838 0.218 0.111 0.397 0.0607 0.397-0.0504 0-0.24-0.179-0.421-0.397zm-0.364-1.33c-0.255-0.665-0.18-0.837 0.132-0.301 0.154 0.266 0.225 0.539 0.157 0.607-0.0681 0.0681-0.198-0.0696-0.289-0.306zm3.61-0.519c3e-3 -0.582 0.0571-0.789 0.12-0.46s0.0609 0.805-5e-3 1.06c-0.0662 0.253-0.118-0.0163-0.115-0.598zm-0.31-1.87c0.0127-0.308 0.0754-0.371 0.16-0.16 0.0764 0.191 0.067 0.419-0.0209 0.507-0.0879 0.0879-0.15-0.0684-0.139-0.347zm6.73 6.82c0.146-0.151 0.622-0.313 1.06-0.36 0.662-0.0721 0.796-0.206 0.806-0.804 7e-3 -0.395 0.0959-0.802 0.198-0.904 0.102-0.102 0.186 0.248 0.186 0.779 0 0.837-0.0964 0.987-0.728 1.13-0.4 0.0891-0.966 0.224-1.26 0.299-0.361 0.0937-0.445 0.0503-0.265-0.137zm-0.993-0.615c0.0685-0.262-0.142-2.81-0.468-5.65-0.326-2.85-0.519-5.25-0.428-5.34 0.0909-0.091 1.58-0.301 3.32-0.466l3.15-0.3 0.19 1.99-1.2 0.151c-3.09 0.39-2.99 0.348-2.81 1.24 0.089 0.445 0.162 1.04 0.162 1.33 0 0.487 0.123 0.511 1.79 0.344l1.79-0.179 0.07 1.04c0.0682 1.02 0.045 1.05-0.926 1.21-0.548 0.0905-1.32 0.166-1.72 0.168l-0.724 3e-3 0.17 2.01c0.187 2.21 0.0476 2.48-1.32 2.48-0.409 2e-3 -0.682 0.103-0.607 0.225 0.0749 0.121-0.0208 0.22-0.213 0.22-0.206 0-0.298-0.195-0.224-0.476zm8.27-0.229c0-0.146 0.112-0.265 0.249-0.265s0.323 0.119 0.412 0.265c0.0899 0.146-0.0221 0.265-0.249 0.265s-0.412-0.119-0.412-0.265zm1.39-0.182c0.255-0.0665 0.671-0.0665 0.926 0 0.255 0.0666 0.0463 0.121-0.463 0.121s-0.718-0.0545-0.463-0.121zm-21.5-0.485c-0.184-0.222-0.283-0.455-0.221-0.517 0.0626-0.0626 0.259 0.119 0.437 0.403 0.384 0.615 0.256 0.683-0.216 0.114zm20.4-0.129c0-0.161-0.0893-0.238-0.198-0.172-0.109 0.0659-0.237-1.03-0.285-2.43-0.091-2.68-0.182-3.05-0.585-2.41-0.179 0.283-0.246 0.137-0.246-0.537 0-0.694 0.0641-0.827 0.256-0.529 0.194 0.301 0.257 0.186 0.261-0.472 2e-3 -0.478-0.204-1.19-0.459-1.58-0.255-0.389-0.314-0.616-0.132-0.504 0.247 0.152 0.331-0.124 0.331-1.1v-1.3l2.45-0.178c1.35-0.0978 2.81-0.243 3.25-0.322 0.782-0.14 0.809-0.111 0.869 0.911 0.0688 1.17 0.138 1.13-2.67 1.5-1.12 0.147-1.26 0.238-1.26 0.826 0 0.363 0.0975 0.601 0.217 0.527 0.119-0.0737 0.167 0.204 0.106 0.617l-0.11 0.751 3.49-0.28v1.09c0 1.03-0.0454 1.09-0.761 1.09-0.418 0-1.14 0.0763-1.61 0.17l-0.847 0.169 0.36 4.32-1.22 0.063c-0.751 0.0389-1.22-0.0491-1.22-0.229zm2.81-0.139c-0.0907-0.236-0.151-0.748-0.135-1.14 0.0228-0.529 0.0822-0.44 0.237 0.352 0.219 1.12 0.171 1.5-0.102 0.784zm-8.58-1.58c5e-3 -0.437 0.0647-0.583 0.132-0.326 0.0671 0.257 0.0627 0.615-0.01 0.794-0.0725 0.179-0.127-0.0315-0.122-0.468zm-4.61-0.529c0.0696-0.364 0.172-0.661 0.228-0.661s0.101 0.298 0.101 0.661-0.103 0.661-0.228 0.661-0.171-0.298-0.101-0.661zm-15.4 0.198c-0.0584-0.109-0.0178-0.496 0.0903-0.86 0.184-0.618 0.198-0.605 0.223 0.198 0.0254 0.829-0.0913 1.08-0.313 0.661zm16.2-0.992c0.0152-1.27 0.0249-1.29 0.266-0.456 0.162 0.562 0.156 1.03-0.0158 1.32-0.202 0.347-0.262 0.141-0.25-0.867zm3.89-0.0485c0.191-0.0764 0.419-0.067 0.507 0.0209 0.0879 0.0879-0.0684 0.15-0.347 0.139-0.308-0.0127-0.371-0.0754-0.16-0.16zm-4.78-1.27c-0.0695-0.364-0.0239-0.661 0.101-0.661 0.125 0 0.228 0.298 0.228 0.661s-0.0456 0.661-0.101 0.661c-0.0558 0-0.158-0.298-0.228-0.661zm-15.7-0.379c-0.0837-0.135-0.0312-0.321 0.117-0.412 0.148-0.0914 0.269 0.0194 0.269 0.246 0 0.465-0.159 0.533-0.386 0.166zm16.3-0.746c0.0142-0.756 0.0675-0.867 0.224-0.467 0.189 0.484 0.095 1.46-0.141 1.46-0.0558 0-0.0931-0.446-0.0828-0.992zm15.5 0.595c-0.0838-0.218-0.037-0.397 0.104-0.397s0.256 0.179 0.256 0.397-0.0468 0.397-0.104 0.397-0.173-0.179-0.256-0.397zm-16.6-1.6c-0.231-0.643-0.326-1.11-0.21-1.04 0.248 0.154 0.876 1.96 0.731 2.11-0.0549 0.0549-0.289-0.427-0.521-1.07zm-10.3 0.406c0-0.291 0.108-0.529 0.24-0.529s0.178 0.238 0.101 0.529c-0.0761 0.291-0.184 0.529-0.24 0.529-0.0558 0-0.101-0.238-0.101-0.529zm26.7-0.154c0.0127-0.308 0.0754-0.371 0.16-0.16 0.0764 0.191 0.067 0.419-0.0209 0.507-0.0879 0.0879-0.15-0.0683-0.139-0.347zm-26.1-1.43c0.0899-0.146 0.216-0.265 0.28-0.265 0.0642 0 0.117 0.119 0.117 0.265s-0.126 0.265-0.28 0.265-0.207-0.119-0.117-0.265zm13.9-0.103c0-0.0568 0.417-0.152 0.926-0.211 0.509-0.0595 0.926-0.0129 0.926 0.103 0 0.116-0.417 0.211-0.926 0.211s-0.926-0.0465-0.926-0.103zm3.18-0.395c0.829-0.146 0.928-0.253 0.942-1.02 0.0203-1.1 0.381-1.48 0.381-0.403 0 1.37-0.226 1.66-1.29 1.62l-0.964-0.0348zm6.04-0.477c0.191-0.0764 0.419-0.067 0.507 0.0209 0.0879 0.0879-0.0684 0.15-0.347 0.139-0.308-0.0127-0.371-0.0754-0.16-0.16zm1.71-0.267c0.257-0.0671 0.615-0.0627 0.794 0.01 0.179 0.0725-0.0315 0.127-0.468 0.122-0.437-5e-3 -0.583-0.0647-0.326-0.132zm-30.9-1.02c-0.255-0.665-0.18-0.837 0.132-0.301 0.154 0.266 0.225 0.539 0.157 0.607-0.0681 0.0681-0.198-0.0696-0.289-0.306zm10.6-0.303c0.191-0.0764 0.419-0.067 0.507 0.0209 0.0879 0.0879-0.0684 0.15-0.347 0.139-0.308-0.0127-0.371-0.0754-0.16-0.16zm21.8-0.878c0-0.509 0.0544-0.718 0.121-0.463s0.0666 0.671 0 0.926-0.121 0.0463-0.121-0.463zm-14.5 0.346c0.257-0.0671 0.615-0.0627 0.794 0.01 0.179 0.0725-0.0315 0.127-0.468 0.122-0.437-5e-3 -0.583-0.0647-0.326-0.132zm2.53-0.262c0.191-0.0764 0.419-0.067 0.507 0.0209 0.0879 0.0879-0.0684 0.15-0.347 0.139-0.308-0.0127-0.371-0.0754-0.16-0.16zm5.41-0.532c0.257-0.0671 0.615-0.0627 0.794 0.01 0.179 0.0725-0.0315 0.127-0.468 0.122-0.437-5e-3 -0.583-0.0647-0.326-0.132zm2.17-0.0928c-0.086-0.139 0.0888-0.253 0.388-0.253 0.639 0 0.703 0.147 0.156 0.357-0.214 0.082-0.459 0.0352-0.545-0.104zm-28.1-0.65c5e-3 -0.437 0.0647-0.583 0.132-0.326 0.0671 0.257 0.0627 0.615-0.01 0.794-0.0725 0.179-0.127-0.0315-0.122-0.468zm31.4 0.222c0.182-0.0734 0.48-0.0734 0.661 0s0.0331 0.133-0.331 0.133c-0.364 0-0.513-0.0601-0.331-0.133zm-31.8-4.83c-0.0837-0.135-0.0312-0.321 0.117-0.412 0.148-0.0914 0.269 0.0194 0.269 0.246 0 0.465-0.159 0.533-0.386 0.166zm16.5-3.19c0-0.146 0.291-0.265 0.646-0.265s0.719 0.119 0.809 0.265c0.0954 0.154-0.174 0.265-0.646 0.265-0.445 0-0.809-0.119-0.809-0.265zm-0.786-0.254c-0.214-0.135-0.32-0.315-0.236-0.399 0.0842-0.0842 0.304 0.0284 0.488 0.25 0.382 0.46 0.308 0.503-0.252 0.149zm3.42-0.496c0.174-0.34 0.389-0.545 0.478-0.457 0.0887 0.0887-0.0539 0.367-0.317 0.618-0.457 0.437-0.464 0.43-0.161-0.161zm-17.2-0.0435c0-0.146 0.126-0.265 0.28-0.265s0.207 0.119 0.117 0.265c-0.0899 0.146-0.216 0.265-0.28 0.265-0.0642 0-0.117-0.119-0.117-0.265zm12.3-0.97c-0.097-0.097-0.176-0.299-0.176-0.45 0-0.166 0.123-0.15 0.313 0.0397 0.172 0.172 0.252 0.375 0.176 0.45-0.0752 0.0752-0.216 0.0573-0.313-0.0397zm5.96-1.54c5e-3 -0.437 0.0647-0.583 0.132-0.326 0.0671 0.257 0.0627 0.615-0.01 0.794-0.0725 0.179-0.127-0.0315-0.122-0.468zm-15.4-1.16c0-0.13 0.195-0.311 0.434-0.403 0.363-0.139 0.38-0.101 0.0999 0.236-0.381 0.459-0.534 0.507-0.534 0.167zm0.794-1.06c0-0.13 0.195-0.311 0.434-0.403 0.363-0.139 0.38-0.101 0.0999 0.236-0.381 0.459-0.534 0.507-0.534 0.167z" fill="#011537"/><g transform="translate(-12 -78.4)"><path d="m-441 160c-0.564-0.0112-1.12 0.23-1.64 0.748-0.412 0.412-0.901 1.28-1.09 1.92-0.185 0.643-0.663 1.37-0.599 1.41 2.08 1.25 1.4 1.17 2.24-1.18 0.538-1.51 1.04-1.6 1.95-0.625 1.62 1.75 2.95 10.6 2.35 13.6-0.149 0.746-0.26 0.827-1.14 0.827-1.55 0-7.21 0.799-7.76 1.1-0.278 0.148-0.561 0.215-0.628 0.147-0.19-0.19-1.82 1.43-2.4 2.4 0 0-6.71 9.22-7.1 10.3-0.42 1.1-0.438 1.55-0.172 4.45 0.603 6.55 3 28.6 4.3 39.5 0.584 4.9 0.86 5.67 2.38 6.71h5.2e-4c0.855 0.584 1.07 0.613 3.46 0.454 1.4-0.0933 5.33-0.455 8.73-0.805 3.4-0.349 8.74-0.886 11.9-1.19 3.13-0.307 6.07-0.617 6.54-0.688 1.19-0.182 2.34-1.23 2.87-2.63 0.432-1.13 0.422-1.47-0.246-8.26-0.566-8.07-1.52-16.1-2.27-24.1-0.721-7.96-1.69-15.8-2.05-16.5-0.419-0.82-2.01-2.35-5.11-4.92-1.09-0.905-2.52-2.15-3.18-2.77-1.8-1.69-3.84-3-4.98-3.19l-1.02-0.173c0.81-3.98-0.652-7.93-1.51-11.8-0.896-2.89-2.37-4.57-3.81-4.6z" fill="#f51816"/><path d="m-429 224c0.261-9e-3 0.537-6e-3 0.826 0.0109 1.31 0.0742 2.03 0.256 2.56 0.651 2.03 1.51 2.73 5.61 1.32 7.73-0.394 0.596-1.19 1.32-1.76 1.62-2.05 1.05-4.9 0.511-6.1-1.15-1.17-1.62-1.42-4.81-0.529-6.65 0.701-1.45 1.85-2.15 3.68-2.21z" fill="#fff"/><path d="m-428 227c-0.489 0.0198-0.905 0.342-1.04 0.882-0.221 0.881 0.0673 3.23 0.454 3.69 0.409 0.493 1.43 0.468 1.94-0.0465 0.778-0.778 0.312-3.84-0.664-4.36-0.232-0.124-0.469-0.178-0.691-0.169z" fill="#f51816"/><path d="m-442 216c0.505-0.0354 1.03 5e-3 1.55 0.126 2.39 0.545 3.39 2.04 3.54 5.28 0.0934 2.04 0.0416 2.36-0.517 3.18-0.342 0.501-0.994 1.13-1.45 1.4-0.456 0.266-1.59 0.547-2.51 0.623-1.43 0.118-1.84 0.0485-2.73-0.47-1.57-0.916-2.09-2.01-2.21-4.69-0.0936-2.04-0.0422-2.36 0.522-3.19 0.927-1.36 2.29-2.15 3.8-2.26z" fill="#fff"/><path d="m-428 215c0.0455 0.0258-1.16 2.77-2.68 6.09-1.52 3.33-3.64 7.99-4.71 10.4-1.35 3.01-2.11 4.39-2.48 4.53-0.748 0.275-2.95 0.548-3.12 0.386-0.0735-0.0735 0.696-1.94 1.71-4.16s2.35-5.16 2.97-6.54c0.617-1.38 1.93-4.32 2.91-6.53l1.79-4.01 1.76-0.0956c0.967-0.0528 1.8-0.0749 1.84-0.0491z" fill="#fff"/><path d="m-442 218c-0.312-6e-3 -0.637 0.125-0.914 0.402-0.442 0.442-0.543 0.836-0.496 1.93 0.0329 0.756 0.24 1.65 0.46 1.99 0.461 0.704 1.48 0.809 1.98 0.205 0.388-0.468 0.378-3.11-0.0155-3.84-0.236-0.441-0.618-0.674-1.02-0.682z" fill="#f51816"/><path d="m-446 199c1.31 0 3.05 0.688 3.76 1.48 1.64 1.85 2.17 5.81 1.06 7.94-0.667 1.28-1.61 2.03-3.1 2.44-1.56 0.431-2.51 0.364-3.78-0.267-2.04-1.01-2.97-2.88-2.95-5.92 0.0112-1.75 0.469-3.31 1.22-4.16 0.738-0.83 2.46-1.52 3.8-1.52z" fill="#fff"/><path d="m-446 202c-0.273 8e-3 -0.523 0.133-0.884 0.405-0.697 0.524-0.726 0.642-0.719 2.86 7e-3 2.2 0.0445 2.34 0.742 2.94v5.2e-4c0.93 0.8 1.54 0.797 2.48-8e-3 0.689-0.593 0.741-0.776 0.722-2.52-0.0228-2.1-0.537-3.12-1.79-3.57-0.209-0.0744-0.381-0.112-0.544-0.107z" fill="#f41716"/><path d="m-432 198c0.0472 0.0551 0.149 0.601 0.227 1.21l0.142 1.11-1.23 0.156c-2.99 0.379-3.01 0.388-2.85 1.01 0.0853 0.318 0.157 0.801 0.159 1.07 3e-3 0.442 0.183 0.482 1.7 0.386 1.7-0.108 1.7-0.107 1.85 0.664 0.323 1.62 0.276 1.68-1.48 1.86-0.898 0.0938-1.67 0.205-1.71 0.248s0.0207 0.965 0.141 2.05c0.12 1.08 0.191 2.01 0.158 2.05s-0.669 0.146-1.41 0.235c-1.03 0.122-1.38 0.0723-1.46-0.207-0.0606-0.202-0.309-2.33-0.553-4.73-0.243-2.4-0.508-4.86-0.588-5.45l-0.145-1.09 3.48-0.335c1.91-0.184 3.52-0.289 3.57-0.234z" fill="#fff"/><path d="m-425 197c1.2 0.0465 1.35 0.499 1.35 1.6 0 0.702-0.0894 0.768-1.26 0.921-2.55 0.336-2.71 0.399-2.71 1.06 0 1.33 0.185 1.44 2.01 1.27l1.7-0.159v1.21c0 1.35-0.131 1.45-2.08 1.56l-1.16 0.063 0.35 4.32-0.838 0.167c-1.13 0.226-2.09 0.211-2.09-0.031-2.9e-4 -0.109-0.168-1.87-0.374-3.9-0.205-2.04-0.449-4.55-0.541-5.59l-0.168-1.88 2.35-0.301c1.66-0.213 2.75-0.331 3.47-0.303z" fill="#fff"/><path d="m-442 184c0.0494-2e-3 0.0651 0.0801 0.0651 0.241 0 0.232 0.357 0.546 0.794 0.699 0.437 0.152 0.794 0.396 0.794 0.543 0 0.146 0.438 0.349 0.973 0.449 0.847 0.159 1.05 0.09 1.59-0.532 0.672-0.781 0.786-0.709 0.306 0.192-0.278 0.522-0.266 0.543 0.132 0.215 0.394-0.325 0.44-0.278 0.44 0.448 0 0.511-0.257 1.09-0.695 1.55-0.245 0.262-0.397 0.403-0.425 0.402h-0.00103l-5.2e-4 -5.2e-4h-5.1e-4l-5.2e-4 -5.1e-4h-5.2e-4v-5.2e-4l-5.1e-4 -5.2e-4c-5e-3 -0.0111 0.021-0.0575 0.0806-0.141 0.287-0.401 0.285-0.522-0.016-0.707-0.307-0.189-0.305-0.299 9e-3 -0.707 0.111-0.145 0.165-0.227 0.158-0.246v-5.1e-4l-5.2e-4 -5.2e-4v-5.2e-4l-0.00206-0.00206h-5.2e-4c-0.0265-9e-3 -0.169 0.0988-0.436 0.329-1.07 0.924-1.82 1.21-2.69 1.01-0.637-0.14-0.77-0.102-0.617 0.18 0.0217 0.0401 0.0301 0.0644 0.0264 0.0734-1.8e-4 3e-4 -8.2e-4 1e-3 -1e-3 2e-3l-5.2e-4 5.1e-4h-5.2e-4v5.2e-4l-5.2e-4 5.2e-4h-5.1e-4c-0.031 0.0121-0.226-0.18-0.51-0.511-0.778-0.907-0.912-2.34-0.295-3.16 0.168-0.223 0.268-0.331 0.323-0.333z" fill="none"/></g></g></svg>
